<svg xmlns="http://www.w3.org/2000/svg" viewBox="0 0 320.84 180.47"><defs><style>.cls-1{fill:#fff;}</style></defs><g id="レイヤー_2" data-name="レイヤー 2"><g id="レイヤー_1-2" data-name="レイヤー 1"><path class="cls-1" d="M119.61,55.71s-.6-.7-1.11-4.58c-.51,3.88-1.11,4.58-1.11,4.58-.46,1.22-5,1.78-5,1.78s4.56.56,5,1.77c0,0,.6.71,1.11,4.59.51-3.88,1.11-4.59,1.11-4.59.46-1.21,5-1.77,5-1.77S120.07,56.93,119.61,55.71Z"/><path class="cls-1" d="M118.5,65.77l-.25-1.89c-.48-3.68-1-4.45-1-4.46l0-.07c-.3-.78-3.12-1.41-4.83-1.62l-2-.24,2-.25c1.71-.21,4.53-.84,4.83-1.62l0-.07s.57-.78,1-4.46l.25-1.89.25,1.89c.48,3.68,1,4.46,1,4.46l0,.07c.3.78,3.12,1.41,4.82,1.62l2,.25-2,.24c-1.7.22-4.52.84-4.82,1.62l0,.08s-.57.77-1,4.45Zm-.89-6.63a8.48,8.48,0,0,1,.89,3,8.48,8.48,0,0,1,.89-3c.36-.85,2.28-1.37,3.69-1.65-1.41-.28-3.33-.81-3.69-1.66a8.37,8.37,0,0,1-.89-3,8.37,8.37,0,0,1-.89,3c-.37.85-2.28,1.38-3.7,1.66C115.33,57.77,117.24,58.3,117.61,59.14Z"/><path class="cls-1" d="M230.3,112.21s-1-1.23-1.93-8c-.88,6.76-1.93,8-1.93,8-.8,2.11-8.75,3.09-8.75,3.09s7.95,1,8.75,3.1c0,0,1.05,1.22,1.93,8,.89-6.76,1.93-8,1.93-8,.8-2.12,8.75-3.1,8.75-3.1S231.1,114.32,230.3,112.21Z"/><path class="cls-1" d="M317.7,49.94a168.09,168.09,0,0,0-52.35-9.14,116,116,0,0,0-11.8-7.69c-24.73-14-57.44-21.77-92.12-21.77S94,19.07,69.31,33.11C51,43.49,38.55,56.49,32.7,70.84c-1-.14-1.89-.27-2.84-.43A144.17,144.17,0,0,1,0,69.48q1.35,27.92,2.7,55.8a162.62,162.62,0,0,0,37.43,8.37q-.32-6.1-.62-12.24c.1,0,.2,0,.3,0,6.84,9.36,16.76,17.88,29.5,25.12,24.73,14,57.44,21.77,92.12,21.77s67.39-7.73,92.12-21.77c19.84-11.27,32.87-25.64,38-41.47a159,159,0,0,1,29.32,7.84Q319.28,81.41,317.7,49.94ZM70.4,35c24.4-13.86,56.73-21.49,91-21.49s66.63,7.63,91,21.49q4.81,2.73,9.07,5.69-3.84,0-7.69.11c-2.88-1.77-5.91-3.48-9.12-5.09l.05,0-2-1-.47-.22h0C219.69,23.72,191,17.78,161.43,17.78s-58.26,5.94-80.87,16.74h0l-.47.22-2,1,0,0C59,45.34,45.66,57.89,39.39,71.72c-1.49-.16-3-.35-4.46-.55C40.68,57.47,52.78,45,70.4,35Zm.46,92.67c.11,2.23.23,4.47.34,6.7,2-.1,4.1-.24,6.16-.4a91.53,91.53,0,0,0,8.35,6.47l-1.08.46c-.69.3-1.36.62-2,.93s-1.37.61-2,.93c-12-5.83-21.72-12.8-28.89-20.49q7.4.3,14.78.08Q68.5,125.1,70.86,127.69ZM69,122.29l1.55,0,.11,2.08C70.12,123.65,69.56,123,69,122.29ZM232.62,38.76l-.4.17-2.3.88-2.19.8-2.38.83-1.57.52a84.69,84.69,0,0,0-30.33-18.67A123.14,123.14,0,0,1,232.62,38.76ZM208.1,25.07a164,164,0,0,1,31.69,10.62l-1.12.52-2.08.91c-.52.23-1.06.45-1.59.67A117.61,117.61,0,0,0,208.1,25.07ZM221.48,42.7l-.79.25-2.29.69-2.49.7-2.33.64-2.55.64-1.62.39c-6.86-10.63-16.15-18.93-26.87-23.7A84.67,84.67,0,0,1,221.48,42.7ZM182.25,91.32c-23,5.26-46,11.35-69,15.65q-.89-17.41-1.78-34.84c22.63-4.15,45.26-10.08,67.88-15.32,9.06,0,18.11,0,27.17.4q.57,11.28,1.15,22.55C199.22,83.41,190.73,87.31,182.25,91.32Zm7.3,19.14a94.3,94.3,0,0,1-5.31,16.77l-.81-.09c-1-.1-2-.17-3-.26-.83-.07-1.65-.16-2.48-.22-1.09-.08-2.19-.14-3.29-.21-.73,0-1.46-.1-2.19-.13-1.23-.07-2.47-.1-3.7-.14-.61,0-1.22-.06-1.83-.07-1.85,0-3.7-.07-5.55-.07s-3.7,0-5.55.07l-1.78.06c-1.25,0-2.5.08-3.75.15-.71,0-1.41.09-2.11.13-1.13.07-2.25.13-3.37.21-.81.06-1.61.14-2.41.21-1,.09-2,.17-3,.27l-.81.09c-.45-1-.85-2.12-1.26-3.18,15.56-3.54,31.11-7.48,46.67-11C185.87,112.17,187.71,111.32,189.55,110.46Zm-53.13,17-2.39.28-2.34.32c-1,.14-2,.27-3,.43-.81.12-1.6.26-2.4.39-1,.16-1.92.31-2.87.48l-2.39.47c-.94.18-1.87.35-2.8.54s-1.57.35-2.36.52l-1.44.32c-.43-.69-.81-1.41-1.21-2.12,7.35-1.38,14.7-2.93,22-4.59C135.65,125.51,136,126.51,136.42,127.48Zm-3.81-64.21c-8.92,2-17.83,3.79-26.75,5.3a75.59,75.59,0,0,1,8.58-20.13l1.34.29c.82.19,1.64.38,2.47.55s1.81.35,2.71.53,1.65.33,2.48.48l2.78.46c.83.14,1.65.29,2.48.41s1.88.27,2.83.4l2.51.35c.79.1,1.59.18,2.38.27A96.66,96.66,0,0,0,132.61,63.27Zm6-10.84.81.1c1,.1,2.06.18,3.09.27.78.07,1.56.15,2.35.21,1.13.08,2.28.14,3.42.21.69,0,1.37.1,2.06.13,1.23.06,2.47.1,3.71.14.6,0,1.21.06,1.82.07,1.85,0,3.7.07,5.55.07s3.71,0,5.55-.07c.6,0,1.2-.05,1.81-.07,1.24,0,2.48-.08,3.72-.14.68,0,1.36-.09,2.05-.13l.95-.06c-13.52,3.18-27,6.54-40.54,9.58A94.78,94.78,0,0,1,138.62,52.43Zm48.83-.36,1.37-.16,2.51-.35c.94-.13,1.89-.25,2.83-.4s1.65-.27,2.47-.41l2.79-.46c.83-.15,1.65-.32,2.47-.48s1.82-.34,2.73-.53,1.63-.36,2.44-.54l1.36-.3c.73,1.18,1.41,2.4,2.07,3.64C202.81,51.9,195.13,51.92,187.45,52.07Zm19.74-5.55-1.13.25c-.8.18-1.59.36-2.4.52l-2.66.52c-.81.15-1.61.31-2.42.45l-2.72.46c-.81.13-1.61.27-2.42.39l-2.81.39c-.8.11-1.6.23-2.41.33s-1.75.2-2.63.3A92.82,92.82,0,0,0,164.24,20C181.63,21,197,31.15,207.19,46.52Zm-23.85,3.86-.4,0-3,.26-2.34.2c-1.05.08-2.12.14-3.18.2-.73,0-1.45.1-2.18.13-1.2.06-2.4.1-3.61.14l-1.79.07c-1.8,0-3.62.06-5.43.06s-3.62,0-5.43-.06l-1.78-.07c-1.21,0-2.42-.08-3.62-.14-.72,0-1.44-.09-2.16-.13-1.07-.06-2.14-.12-3.21-.2l-2.31-.2c-1-.08-2-.17-3-.27l-.39,0a90.66,90.66,0,0,1,21.91-30.11A90.66,90.66,0,0,1,183.34,50.38Zm-46.07-.25c-.88-.1-1.76-.19-2.63-.3l-2.39-.32-2.83-.4c-.8-.12-1.6-.26-2.39-.39l-2.76-.46c-.8-.14-1.59-.3-2.39-.45l-2.69-.52c-.8-.16-1.58-.34-2.37-.51l-1.15-.26C125.82,31.15,141.23,21,158.62,20A92.82,92.82,0,0,0,137.27,50.13ZM113.45,46c-.54-.12-1.07-.26-1.61-.39L109.28,45,107,44.35l-2.5-.71c-.77-.22-1.52-.46-2.28-.69l-.8-.25a84.67,84.67,0,0,1,38.94-20.39C129.6,27.08,120.31,35.38,113.45,46ZM99.08,42l-1.57-.52-2.38-.83L93,39.81c-.78-.29-1.55-.58-2.31-.89l-.4-.16a123.14,123.14,0,0,1,39.17-15.47A84.69,84.69,0,0,0,99.08,42ZM87.86,37.79c-.53-.22-1.07-.44-1.59-.67l-2.08-.91-1.12-.52a163.85,163.85,0,0,1,31.7-10.62A117.49,117.49,0,0,0,87.86,37.79Zm-3.23,1,1.08.46c-13.37,9.15-23.13,20.7-27.78,33.6q-8.15-.09-16.3-.87c6.34-13.48,19.75-25.72,38.92-35,.66.32,1.35.62,2,.92S83.94,38.45,84.63,38.75ZM88,40.18l1.07.44c.79.32,1.61.62,2.42.92s1.43.56,2.16.82,1.63.57,2.45.86l1.26.43A69,69,0,0,0,80.56,71.88c-6.79.6-13.58.93-20.37.93C64.9,60.25,74.69,49,88,40.18ZM99.65,44.4l1.23.38c.77.24,1.53.49,2.31.72l2.59.73c.78.22,1.55.45,2.34.65s1.73.44,2.6.66l1.54.39a78.69,78.69,0,0,0-8.69,21c-6.9,1.12-13.81,2-20.72,2.72A67.26,67.26,0,0,1,99.65,44.4ZM111,129.5c.42.75.81,1.51,1.24,2.24l-1.46.37-2.69.67-2.3.65c-.88.24-1.76.48-2.62.74s-1.51.47-2.26.7l-1.28.4c-1.1-1.1-2.15-2.24-3.16-3.4Q103.75,130.84,111,129.5ZM97.38,136l-1.24.44c-.83.28-1.66.56-2.47.85s-1.46.56-2.2.84-1.6.6-2.38.91l-1.07.44a93.3,93.3,0,0,1-7.73-5.74q6.84-.6,13.68-1.52C95.06,133.52,96.19,134.79,97.38,136ZM84.2,143.46l2.06-.91,1.6-.68a117.07,117.07,0,0,0,26.91,12.72A163.16,163.16,0,0,1,83.07,144Zm6-2.56.38-.15c.78-.31,1.56-.6,2.35-.9l2.15-.79c.79-.29,1.6-.56,2.4-.84l1.56-.52a84.71,84.71,0,0,0,30.33,18.68A123.15,123.15,0,0,1,90.24,140.9ZM101.38,137l.83-.26,2.23-.68,2.56-.72c.75-.21,1.5-.42,2.26-.61l2.63-.67,1.56-.38c6.86,10.64,16.15,18.93,26.87,23.71A84.62,84.62,0,0,1,101.38,137Zm14.29-3.82,1.2-.27,2.3-.5,2.76-.53,2.33-.44c.93-.17,1.87-.32,2.81-.47l2.34-.38,2.88-.4,2.34-.32c.87-.11,1.76-.2,2.64-.3a92.82,92.82,0,0,0,21.35,30.13C141.23,158.68,125.82,148.52,115.67,133.15Zm23.85-3.86.39,0c1-.1,2-.18,3.07-.27l2.25-.19c1.07-.08,2.16-.14,3.24-.21l2.13-.13c1.2-.06,2.41-.09,3.62-.13l1.78-.07c1.81,0,3.62-.07,5.43-.07s3.63,0,5.43.07l1.79.07c1.21,0,2.41.07,3.61.13l2.15.14c1.07.06,2.15.12,3.22.2l2.28.19c1,.09,2,.17,3,.27l.39,0a90.76,90.76,0,0,1-21.91,30.11A90.76,90.76,0,0,1,139.52,129.29Zm46.07.25c.88.1,1.76.19,2.64.3l2.37.32,2.84.4,2.37.38c.93.16,1.87.3,2.79.47l2.34.44,2.74.53,2.32.5,1.19.27c-10.15,15.37-25.56,25.53-42.95,26.52A92.82,92.82,0,0,0,185.59,129.54Zm23.82,4.11L211,134c.88.21,1.75.43,2.62.66s1.51.4,2.27.61l2.55.72,2.24.68.82.26a84.62,84.62,0,0,1-38.94,20.39C193.26,152.58,202.55,144.29,209.41,133.65Zm14.37,4,1.56.52c.8.28,1.61.55,2.4.84l2.15.79c.79.3,1.57.59,2.35.9l.38.15a123.15,123.15,0,0,1-39.17,15.48A84.71,84.71,0,0,0,223.78,137.7ZM235,141.87l1.6.68,2.06.91,1.13.52a163.29,163.29,0,0,1-31.69,10.61A117.19,117.19,0,0,0,235,141.87Zm3.23-1-1.08-.45c14.81-10.14,25.19-23.22,29.08-37.82q8.31.23,16.62,1.19c-5.45,15-19.54,28.73-40.54,39-.66-.32-1.35-.62-2-.93Zm-3.39-1.42-1.07-.44c-.78-.31-1.57-.6-2.36-.9s-1.47-.58-2.23-.85-1.62-.57-2.43-.85l-1.27-.44a68.1,68.1,0,0,0,18-32.77c6.85-.52,13.7-.75,20.55-.64C260.09,116.88,249.66,129.66,234.84,139.49Zm-11.63-4.22-1.25-.39-2.29-.71-2.58-.73c-.78-.22-1.55-.45-2.35-.66s-1.75-.44-2.62-.66l-1.52-.38a79.14,79.14,0,0,0,9.77-25.81c7-1.07,13.92-1.94,20.89-2.53A66.36,66.36,0,0,1,223.21,135.27Zm-14.79-4-1.37-.3c-.81-.18-1.62-.37-2.44-.54s-1.8-.35-2.7-.53-1.65-.33-2.49-.48l-2.78-.46c-.83-.14-1.65-.29-2.48-.42l-2.9-.4c-.81-.12-1.62-.24-2.43-.34l-2.39-.28A97.85,97.85,0,0,0,192,109.32c7.38-3.42,14.76-6.72,22.14-9.8.13,2.45.25,4.9.38,7.36,1.21-.21,2.42-.39,3.63-.59A76.45,76.45,0,0,1,208.42,131.23Zm4.28-79.51c-.67-1.29-1.36-2.56-2.1-3.79l1.54-.39c.87-.22,1.74-.43,2.6-.66s1.57-.43,2.35-.65l2.58-.73c.78-.23,1.54-.48,2.31-.72l1.23-.38c.82.82,1.62,1.66,2.39,2.51Q219.15,49.21,212.7,51.72Zm12.78-8.07,1.26-.43c.82-.29,1.64-.56,2.45-.86s1.44-.54,2.16-.82,1.63-.6,2.42-.92l1.07-.44q1.83,1.22,3.57,2.49-5.31,1.65-10.62,3.47Q226.67,44.88,225.48,43.65Zm11.67-4.44,1.07-.46c.7-.3,1.39-.63,2.08-.94l2-.92c2.67,1.3,5.2,2.67,7.65,4.08-2.55.13-5.09.28-7.63.49l-1.45.44Q239.07,40.54,237.15,39.21ZM33.08,98.51q.31,6.1.62,12.21a161.56,161.56,0,0,1-26.28-6Q6.67,89.86,5.93,75a148.52,148.52,0,0,0,25.13.15,194.66,194.66,0,0,0,43,1.78c8.78-.55,17.56-1.57,26.34-2.92q.88,17.44,1.78,34.89c-8.75,1.39-17.51,2.47-26.27,3.08q-.31-6-.62-12.09A197.26,197.26,0,0,1,33.08,98.51Zm219.38,46.14c-24.4,13.86-56.73,21.49-91,21.49s-66.63-7.63-91-21.49c-11.75-6.67-21-14.44-27.62-22.93,2,.17,4,.32,5.95.43,7.19,8.18,17.1,15.6,29.41,21.79l0,0,2,1,.47.22h0c22.61,10.79,51.31,16.74,80.87,16.74s58.26-5.95,80.87-16.74h0l.47-.22,2-1-.05,0c20.88-10.5,34.89-24.5,40.29-39.84,1.44.19,2.89.4,4.33.63C284.34,119.91,271.68,133.74,252.46,144.65Zm34.8-62.4q-.74-14.69-1.48-29.36c-3-.41-6-.73-9-1q.74,14.64,1.48,29.28a197.19,197.19,0,0,0-23.43-.69q-.75-14.56-1.49-29.11-4.5.15-9,.48.74,14.52,1.48,29.05c-8.89.59-17.78,1.66-26.67,3.06q-.77-14.69-1.51-29.37c8.61-3.25,17.22-6.19,25.83-8.69a198.51,198.51,0,0,1,45.35,1.39,161.27,161.27,0,0,1,23.27,5.33q.9,17.86,1.79,35.73A162.81,162.81,0,0,0,287.26,82.25Z"/><path class="cls-1" d="M74.39,82.83a196.7,196.7,0,0,1-42.18-1.57c.19,3.71.38,7.43.56,11.14A197.29,197.29,0,0,0,75,93.85C74.76,90.18,74.58,86.5,74.39,82.83Z"/><path class="cls-1" d="M138.42,72.48l1.17,22.91c13.84-3.18,27.67-6.64,41.5-9.82q-.59-11.46-1.18-22.92C166.08,65.85,152.25,69.31,138.42,72.48Z"/><path class="cls-1" d="M29,59.45,25.31,66l1.76,1-.83,1.49-3.83-2.13a2,2,0,0,1-.76-2.78l3.47-6.22,1.46.81-3.65,6.53.92.51,3.64-6.53Z"/><path class="cls-1" d="M26.3,68.64l-4-2.21a2.1,2.1,0,0,1-1-1.29,2.19,2.19,0,0,1,.2-1.68l3.54-6.34,1.72,1-3.65,6.52.66.37,3.64-6.53,1.72,1-3.64,6.52,1.76,1ZM25.17,57.51,21.78,63.6a1.88,1.88,0,0,0,.7,2.58l3.71,2.06L26.87,67l-1.76-1,3.64-6.53-1.2-.67-3.64,6.53-1.18-.65,3.65-6.53Z"/><path class="cls-1" d="M35,51.5a2,2,0,0,1,.34,2.86l-3.08,4a2,2,0,0,1-2.85.39L26,56.09l1-1.35,3.75,2.89,3.51-4.57-3.74-2.89,1-1.35Z"/><path class="cls-1" d="M30.64,59.32a2.13,2.13,0,0,1-1.3-.44l-3.59-2.77L27,54.53l.11.09,3.63,2.8,3.34-4.33L30.3,50.2l1.22-1.58.12.09,3.47,2.67a2.2,2.2,0,0,1,.37,3.07l-3.08,4a2.2,2.2,0,0,1-1.48.84A1.32,1.32,0,0,1,30.64,59.32Zm-4.48-3.26,3.36,2.59a1.9,1.9,0,0,0,2.64-.37l3.09-4a1.9,1.9,0,0,0-.33-2.66L31.57,49l-.86,1.11L34.46,53l-.09.12-3.6,4.68-.12-.09L27,54.94Z"/><path class="cls-1" d="M39.09,41.13l3.45,3.42a1.69,1.69,0,0,1,0,2.39,1.73,1.73,0,0,1-1.2.51l-6.48.11L38.31,51,37.1,52.2l-3.45-3.43a1.68,1.68,0,0,1,0-2.38,1.76,1.76,0,0,1,1.2-.51l6.47-.12-3.45-3.42Z"/><path class="cls-1" d="M37.1,52.41l-3.55-3.53a1.83,1.83,0,0,1,0-2.59,1.87,1.87,0,0,1,1.3-.56L41,45.62l-3.31-3.28,1.41-1.42,3.56,3.53a1.84,1.84,0,0,1,0,2.59,1.89,1.89,0,0,1-1.3.56l-6.13.1L38.51,51Zm1-10.08,3.59,3.57L34.87,46a1.63,1.63,0,0,0-1.1.46,1.55,1.55,0,0,0,0,2.18L37.1,52l1-1-3.6-3.57,6.83-.12a1.56,1.56,0,0,0,1.11-2.64l-3.35-3.33Z"/><path class="cls-1" d="M51.77,39l-2.86,2.34-3.74.81a1.7,1.7,0,0,1-1.49-.4L45.57,44l-1.32,1.07-4-5,1.32-1.08,1.86,2.29a1.68,1.68,0,0,1-.1-1.54l1.51-3.42L47.67,34l-2.9,6.47Z"/><path class="cls-1" d="M44.23,45.3l-.09-.11L40,40.1l1.55-1.26L43,40.64a1.77,1.77,0,0,1,.15-.9l1.55-3.48,3.35-2.73L45,40.3l7.32-1.62-3.4,2.75-3.74.81a1.75,1.75,0,0,1-.91,0L45.77,44Zm-3.82-5.15,3.86,4.74L45.36,44l-1.79-2.21.21-.2a1.55,1.55,0,0,0,1.36.37l3.7-.8,2.36-1.93-6.69,1.48,2.77-6.17-2.36,1.93-1.49,3.38a1.52,1.52,0,0,0,.08,1.41l-.24.17-1.76-2.17Z"/><path class="cls-1" d="M58.17,32.25a2,2,0,0,1-.57,2.82l-4.19,2.84a2,2,0,0,1-2.83-.52l-1.33-2a2,2,0,0,1,.57-2.82L54,29.77a2,2,0,0,1,2.84.52ZM57,33.49,55.24,31l-4.78,3.24,1.72,2.53Z"/><path class="cls-1" d="M52.25,38.41a2.12,2.12,0,0,1-1.79-.94l-1.33-1.95a2.15,2.15,0,0,1-.33-1.64,2.21,2.21,0,0,1,.94-1.39l4.18-2.84a2.19,2.19,0,0,1,3,.56l1.33,1.95a2.14,2.14,0,0,1,.33,1.61,2.21,2.21,0,0,1-.94,1.42L53.5,38A2.23,2.23,0,0,1,52.25,38.41Zm2.92-8.85a2,2,0,0,0-1.08.33L49.9,32.73a1.94,1.94,0,0,0-.81,1.21,1.84,1.84,0,0,0,.28,1.41l1.33,2a1.9,1.9,0,0,0,2.63.48L57.52,35a1.92,1.92,0,0,0,.81-1.23,1.89,1.89,0,0,0-.28-1.39l-1.33-2A1.86,1.86,0,0,0,55.17,29.56Zm-3,7.37-1.88-2.78,5-3.4,1.89,2.78Zm-1.47-2.7,1.55,2.29,4.53-3.07L55.2,31.16Z"/><path class="cls-1" d="M65.24,25.08,62,26.9,64.39,31l-1.48.85-2.35-4.12-3.2,1.83-.83-1.45,7.88-4.5Z"/><path class="cls-1" d="M62.86,32.06l-2.35-4.12L57.3,29.77l-1-1.71.13-.07,8-4.57,1,1.71L62.24,27l2.35,4.11Zm-2.25-4.52L63,31.66l1.23-.7-2.35-4.11L65,25l-.68-1.2-7.63,4.35.68,1.2Z"/><path class="cls-1" d="M77.35,24.18l-2.15,1-1.45-3.1c-.07.56-.76,1-1.53,1.5s-1.37.89-1.12,1.42.84.38,1.47.08a4.22,4.22,0,0,0,1-.63l.55,1.16a7.16,7.16,0,0,1-1.63,1c-1.56.73-2.88.65-3.35-.37-.63-1.34.72-2.42,2.3-3.38,1.16-.73,2.09-1.28,1.81-1.87s-.88-.63-2-.12A2.46,2.46,0,0,0,69.58,23l-2,.12c0-1.3,1.29-2.76,3.25-3.67a5.11,5.11,0,0,1,2-.52l1.86-1.5.94,1-1.29.83c.6.1,1,.55,1.39,1.37Z"/><path class="cls-1" d="M70.63,27.15h-.25a1.54,1.54,0,0,1-1.32-.88c-.65-1.39.74-2.48,2.33-3.45l.12-.08c1.07-.66,1.92-1.19,1.67-1.71s-.94-.54-1.9-.1A2.41,2.41,0,0,0,69.64,23v.06h-.06l-2,.13v-.07c0-1.34,1.32-2.81,3.28-3.72a5.42,5.42,0,0,1,2-.53l1.89-1.52,0,0,1,1.08-1.23.8c.52.13.92.55,1.29,1.36l1.66,3.54-.05,0-2.21,1,0-.05-1.37-2.95c-.18.51-.82.94-1.52,1.37s-1.32.86-1.09,1.35a.41.41,0,0,0,.26.24A1.56,1.56,0,0,0,72.55,25a4.36,4.36,0,0,0,1-.63l0-.05.6,1.28,0,0a7.16,7.16,0,0,1-1.65,1A4.5,4.5,0,0,1,70.63,27.15Zm1.81-6.65a.86.86,0,0,1,.85.47c.29.61-.6,1.16-1.72,1.86l-.12.08c-1.55.94-2.89,2-2.28,3.3a1.42,1.42,0,0,0,1.22.81,4,4,0,0,0,2-.46A7.23,7.23,0,0,0,74,25.61l-.5-1.06a4.35,4.35,0,0,1-.93.6,1.68,1.68,0,0,1-1.22.19.57.57,0,0,1-.33-.3c-.27-.58.33-1,1.14-1.5s1.43-.92,1.5-1.46l0-.2.08.19,1.43,3,2-.95-1.6-3.44c-.4-.84-.8-1.24-1.35-1.33l-.15,0,1.36-.88-.86-.94L72.84,19h0a5.56,5.56,0,0,0-1.94.52c-1.89.89-3.14,2.28-3.2,3.56L69.52,23a2.54,2.54,0,0,1,1.71-2.17A2.87,2.87,0,0,1,72.44,20.5Z"/><path class="cls-1" d="M79.87,18.3a1.07,1.07,0,0,0-1.6-.6,4.42,4.42,0,0,0-1.28.84l-.86-1a7.21,7.21,0,0,1,2.22-1.38c1.69-.68,3-.47,3.6,1.05l1.75,4.34-2.15.87Z"/><path class="cls-1" d="M81.52,22.53l0-.05-1.68-4.16c-.28-.69-.77-.87-1.53-.56a4.41,4.41,0,0,0-1.26.82l0,0,0,0-.9-1,0,0a7.19,7.19,0,0,1,2.24-1.39,3.66,3.66,0,0,1,2.23-.31A2.16,2.16,0,0,1,82,17.23l1.78,4.39-.06,0Zm-2.59-5a1,1,0,0,1,1,.78l1.66,4.1,2-.83-1.73-4.28A2,2,0,0,0,80.53,16a3.52,3.52,0,0,0-2.16.3,7.28,7.28,0,0,0-2.16,1.32l.79.88a4.07,4.07,0,0,1,1.25-.81A1.87,1.87,0,0,1,78.93,17.5Z"/><path class="cls-1" d="M84,19.36a1.83,1.83,0,0,1,.83-2.1c-1,.09-1.69-.27-1.92-.92-.32-.91.3-2,2-2.63a5.44,5.44,0,0,1,2-.36v1.21a3.87,3.87,0,0,0-1.2.22c-.64.22-.9.61-.76,1s.83.49,1.52.24l.61-.21.36,1c-1.07.38-1.5.91-1.28,1.51s.78.71,2,.27,1.79-1,1.44-2l-1.41-4,1.11-.39a3.8,3.8,0,0,0,1.09-.53l1.44,4.06c.55,1.56-.15,3-3.24,4.14C85.75,20.94,84.36,20.36,84,19.36Z"/><path class="cls-1" d="M86,20.52a1.93,1.93,0,0,1-2-1.14h0a1.81,1.81,0,0,1,.7-2.05h-.12a1.62,1.62,0,0,1-1.68-1c-.3-.85.2-2.06,2-2.71a5.52,5.52,0,0,1,2-.36h0v1.32h-.06a3.88,3.88,0,0,0-1.18.21c-.58.21-.86.57-.73.94s.84.42,1.46.2l.65-.23,0,.06.39,1.09-.06,0a2,2,0,0,0-1.23.85.77.77,0,0,0,0,.58.68.68,0,0,0,.57.45,2.71,2.71,0,0,0,1.38-.22,2.64,2.64,0,0,0,1.32-.78,1.15,1.15,0,0,0,.08-1.14l-1.43-4,.06,0,1.11-.39a3.37,3.37,0,0,0,1.07-.52l.07,0,0,.07,1.44,4.06a2.46,2.46,0,0,1,0,1.94c-.44.91-1.52,1.68-3.23,2.28A8.51,8.51,0,0,1,86,20.52Zm-1.92-1.18c.42,1.19,2.09,1.4,4.46.56,1.68-.59,2.74-1.34,3.16-2.22a2.32,2.32,0,0,0,0-1.85l-1.41-4a4,4,0,0,1-1,.49l-1.06.37,1.39,3.91a1.26,1.26,0,0,1-.1,1.25,2.8,2.8,0,0,1-1.37.83,3,3,0,0,1-1.44.22.8.8,0,0,1-.66-.53.82.82,0,0,1,0-.67,2,2,0,0,1,1.24-.9L87,15.89l-.55.2c-.8.28-1.44.17-1.6-.28s.15-.86.8-1.09a4.19,4.19,0,0,1,1.16-.22V13.41h-.08a5.78,5.78,0,0,0-1.79.36c-1.73.61-2.22,1.75-1.93,2.55.23.64.9,1,1.85.88H85l-.16.12a1.76,1.76,0,0,0-.8,2Z"/><path class="cls-1" d="M92.94,16.21a1.81,1.81,0,0,1,.93-2.05c-1,0-1.67-.36-1.87-1-.27-.93.4-2,2.1-2.53a5.58,5.58,0,0,1,2-.26L96,11.56a3.6,3.6,0,0,0-1.2.15c-.66.2-.94.58-.82,1s.81.54,1.51.33l.62-.19.31,1c-1.09.33-1.55.83-1.36,1.44s.74.76,2,.38,1.83-.92,1.53-1.92l-1.2-4,1.12-.33a3.63,3.63,0,0,0,1.11-.47l1.24,4.13c.47,1.59-.31,3-3.45,4C94.6,17.88,93.24,17.23,92.94,16.21Z"/><path class="cls-1" d="M95.1,17.47c-1,0-1.93-.27-2.22-1.24h0a1.82,1.82,0,0,1,.8-2,1.65,1.65,0,0,1-1.74-1.07,1.64,1.64,0,0,1,.32-1.47,3.6,3.6,0,0,1,1.83-1.13,5.58,5.58,0,0,1,2-.26h.06v0l-.05,1.27H96a3.68,3.68,0,0,0-1.13.15,1.18,1.18,0,0,0-.73.49.49.49,0,0,0,0,.41.52.52,0,0,0,.24.29,1.69,1.69,0,0,0,1.2,0l.67-.2v.06l.33,1.1,0,0a2.06,2.06,0,0,0-1.28.79.77.77,0,0,0,0,.58.68.68,0,0,0,.32.4,2.23,2.23,0,0,0,1.62-.07,2.69,2.69,0,0,0,1.35-.71,1.16,1.16,0,0,0,.14-1.14L97.33,9.7l.06,0,1.13-.34a3.48,3.48,0,0,0,1.09-.46l.07,0,0,.07L100.93,13a2.43,2.43,0,0,1-.37,2.29,6.08,6.08,0,0,1-3.11,1.76A8.66,8.66,0,0,1,95.1,17.47ZM93,16.19c.37,1.21,2,1.51,4.43.79a6,6,0,0,0,3-1.72,2.28,2.28,0,0,0,.36-2.18L99.61,9a3.83,3.83,0,0,1-1.06.44l-1.07.31,1.18,4A1.23,1.23,0,0,1,98.5,15a2.85,2.85,0,0,1-1.41.76,2.36,2.36,0,0,1-1.7.05.75.75,0,0,1-.38-.47.86.86,0,0,1,.06-.67,2.11,2.11,0,0,1,1.29-.83l-.28-.93-.56.16a1.76,1.76,0,0,1-1.29,0,.55.55,0,0,1-.29-.36.62.62,0,0,1,0-.5,1.34,1.34,0,0,1,.81-.54A3.58,3.58,0,0,1,96,11.5h0L96,10.4h-.24a5.94,5.94,0,0,0-1.65.28,3.37,3.37,0,0,0-1.76,1.08,1.5,1.5,0,0,0-.3,1.37c.19.66.85,1,1.8,1h.21l-.17.12a1.78,1.78,0,0,0-.91,2Z"/><path class="cls-1" d="M97.55,6.39l1.89-.5L100,8.12l-1.89.5Z"/><path class="cls-1" d="M98.1,8.7l0-.06-.61-2.29.06,0,2-.52,0,.06.6,2.29,0,0Zm-.48-2.27.56,2.12L100,8.08,99.4,6Z"/><path class="cls-1" d="M102,14.23l-.51-2.08,2-.49.26,1c.17.69,1.17.81,2.31.52a2.07,2.07,0,0,0,1.74-2.68A2.06,2.06,0,0,0,105,9,2.51,2.51,0,0,0,103,11l-2-.17c.22-1.43,1.74-2.69,3.95-3.24s4.67,0,5.26,2.36-1.5,4.07-3.71,4.62A6.36,6.36,0,0,1,102,14.23Z"/><path class="cls-1" d="M104.53,14.85a5.13,5.13,0,0,1-2.56-.57h0l-.53-2.17h0l2-.5v.05l.25,1c.15.6,1,.79,2.25.48a2,2,0,0,0,1.69-2.6A2,2,0,0,0,105,9.05,2.43,2.43,0,0,0,103,11v.06l-2.14-.18v-.06c.23-1.47,1.76-2.73,4-3.29a5.68,5.68,0,0,1,3.23.09,3.25,3.25,0,0,1,2.1,2.32c.57,2.32-1.45,4.12-3.76,4.69A7.85,7.85,0,0,1,104.53,14.85Zm-2.48-.66a6.35,6.35,0,0,0,4.37.32c2.24-.56,4.22-2.31,3.66-4.55a3.11,3.11,0,0,0-2-2.24,5.64,5.64,0,0,0-3.17-.09c-2.12.53-3.64,1.76-3.89,3.14l1.9.16a2.58,2.58,0,0,1,2.11-2,2.11,2.11,0,0,1,2.8,1.58A2.12,2.12,0,0,1,106,13.26c-1.29.32-2.21.11-2.38-.57l-.24-1-1.84.46Z"/><path class="cls-1" d="M116.14,11.56l-5.5-6.05,1.63-.32,4.1,4.61,2-5.81,1.6-.32-2.76,7.68Z"/><path class="cls-1" d="M116.06,11.81l-.09-.09-5.78-6.36,2.17-.43.09.1,3.83,4.31,1.89-5.55,2.14-.43-2.94,8.2Zm-5-6.15,5.13,5.64.79-.15L119.59,4l-1.06.21-2.07,6.07-4.27-4.81Z"/><path class="cls-1" d="M122.11,10.47,121,3.58l1.45-.24,1.14,6.89Z"/><path class="cls-1" d="M121.92,10.74l0-.23L120.7,3.39l1.91-.32,0,.23,1.18,7.12Zm-.68-7,1.06,6.43,1-.17-1.07-6.42Z"/><path class="cls-1" d="M132.52,8.92,125.3,4.78,126,9.83l-1.27.17-1-6.93L125,2.9l6.63,3.92L131,2.07l1.27-.17.95,6.92Z"/><path class="cls-1" d="M124.52,10.26l-1-7.39,1.57-.22.07.05,6.21,3.67-.62-4.5,1.74-.24,1,7.4-1,.14-6.88-3.95.66,4.81Zm-.48-7,.88,6.47.8-.12L125,4.34l7.57,4.34.4-.06-.89-6.46-.81.11.69,5-7-4.12Z"/><path class="cls-1" d="M142.09,8l-3.55-5-2.63,5.59-1.63.15,3.55-7.34,1.08-.1,4.83,6.55Z"/><path class="cls-1" d="M133.89,9l3.79-7.83L139,1l5.16,7-2.2.21-3.4-4.79-2.51,5.34ZM138,1.58l-3.32,6.85,1.09-.1,2.73-5.83,3.72,5.22,1.1-.1L138.8,1.5Z"/><path class="cls-1" d="M152.75,7.39l-.14-3.06-4.82.21.14,3.06-1.47.06-.32-7L147.61.6l.12,2.67,4.83-.21L152.44.39l1.47-.06.32,7Z"/><path class="cls-1" d="M146.24,7.9,145.9.44l1.93-.08L148,3l4.35-.19L152.19.17l1.95-.09.34,7.46-1.95.09-.14-3.06L148,4.76l.13,3.06Zm.15-7,.29,6.52,1,0-.14-3.06,5.3-.23L153,7.14l1,0L153.69.57l-1,.05.12,2.66-5.29.23L147.39.85Z"/><path class="cls-1" d="M157.33,7.27c-1.47,0-2-.67-2.05-1.67l0-3.61c0-1,.54-1.7,2-1.71l4.29,0c1.48,0,2,.66,2.05,1.66l0,3.62c0,1-.54,1.69-2,1.71Zm4.82-5.37c0-.28-.2-.41-.57-.4l-4.3,0c-.37,0-.56.14-.56.41l0,3.65c0,.28.2.4.57.4l4.3,0c.37,0,.56-.13.56-.42Z"/><path class="cls-1" d="M157.29,7.5A2.47,2.47,0,0,1,155.6,7a1.81,1.81,0,0,1-.55-1.39L155,2c0-.88.38-1.93,2.25-1.95l4.29,0h.05a2.47,2.47,0,0,1,1.69.51,1.83,1.83,0,0,1,.55,1.39l0,3.62c0,.87-.37,1.92-2.25,1.94l-4.29,0Zm4.32-7h0l-4.3,0c-1.21,0-1.79.5-1.78,1.47l0,3.62a1.33,1.33,0,0,0,.4,1,2,2,0,0,0,1.37.4h0l4.3,0c1.21,0,1.79-.49,1.78-1.47l0-3.61a1.35,1.35,0,0,0-.4-1A2,2,0,0,0,161.61.47Zm-4.3,5.76a.85.85,0,0,1-.62-.19.6.6,0,0,1-.17-.44l0-3.65c0-.19.08-.64.8-.65l4.29,0h0a.87.87,0,0,1,.62.2.6.6,0,0,1,.17.44l0,3.64a.56.56,0,0,1-.16.44.83.83,0,0,1-.63.21l-4.3,0Zm4.28-4.5h0l-4.3,0c-.33,0-.33.12-.33.18l0,3.64c0,.08,0,.1,0,.11s.08.06.29.06h0l4.29,0c.22,0,.29,0,.31-.07a.18.18,0,0,0,0-.1l0-3.65c0-.07,0-.09,0-.1S161.79,1.73,161.59,1.73Z"/><path class="cls-1" d="M171.6.44l1.46,0-.16,5.3c0,1-.61,1.68-2.08,1.63l-4-.12c-1.48,0-2-.75-2-1.75L165,.25l1.47,0-.16,5.31c0,.29.19.42.56.43l4,.12c.37,0,.57-.1.58-.39Z"/><path class="cls-1" d="M171,7.66h-.15l-4-.12A2.49,2.49,0,0,1,165.06,7a1.79,1.79,0,0,1-.5-1.41L164.73,0l1.93,0-.17,5.55c0,.08,0,.1,0,.11s.09.07.3.07l4,.12a.48.48,0,0,0,.31,0s0,0,0-.11L171.37.2l1.94.06-.17,5.54a1.84,1.84,0,0,1-.53,1.33A2.34,2.34,0,0,1,171,7.66ZM165.18.49,165,5.56a1.34,1.34,0,0,0,.35,1.06,2.12,2.12,0,0,0,1.4.44l4,.12a2.07,2.07,0,0,0,1.47-.39,1.42,1.42,0,0,0,.38-1l.15-5.07-1,0-.15,5.07a.61.61,0,0,1-.18.44.83.83,0,0,1-.64.18l-4-.12a.87.87,0,0,1-.63-.22.56.56,0,0,1-.15-.45l.15-5.07Z"/><path class="cls-1" d="M174.08,7.56l.09-1.26,5.62.39c.41,0,.58,0,.6-.38l.07-1c0-.31-.14-.43-.54-.46l-3.78-.27c-1.48-.1-2-.82-1.93-1.83l0-.48c.07-1,.69-1.65,2.17-1.55l5.46.39-.09,1.25L176.32,2c-.39,0-.59.07-.61.38l0,.5c0,.3.14.44.56.47l3.77.26c1.48.11,2,.83,1.93,1.84l-.07,1c-.07,1-.68,1.66-2.16,1.56Z"/><path class="cls-1" d="M180,8.2h-.32l-5.85-.41L174,6.05l5.85.41c.27,0,.31,0,.32,0s0,0,0-.13l.06-1a.22.22,0,0,0,0-.14s-.08-.06-.31-.08l-3.78-.26c-1.88-.14-2.2-1.21-2.14-2.09l0-.48a1.87,1.87,0,0,1,.58-1.31,2.43,2.43,0,0,1,1.83-.45l5.7.4L182,2.61l-5.7-.4c-.35,0-.35.06-.36.17l0,.49c0,.11,0,.2.33.22l3.78.27a2.49,2.49,0,0,1,1.7.65,1.75,1.75,0,0,1,.44,1.43l-.06,1a1.88,1.88,0,0,1-.64,1.37A2.32,2.32,0,0,1,180,8.2Zm-5.67-.85,5.39.37a1.93,1.93,0,0,0,1.44-.31,1.36,1.36,0,0,0,.47-1l.07-1a1.39,1.39,0,0,0-.32-1.08,2.07,2.07,0,0,0-1.39-.5l-3.78-.27c-.54,0-.8-.28-.77-.72l0-.49c0-.44.34-.63.87-.61l5.23.37.05-.79L176.39,1a2,2,0,0,0-1.49.34,1.36,1.36,0,0,0-.42,1l0,.47c-.06,1,.5,1.5,1.72,1.59l3.77.26a.94.94,0,0,1,.63.24.63.63,0,0,1,.13.48l-.07,1a.6.6,0,0,1-.19.46.87.87,0,0,1-.66.13l-5.38-.37Z"/><path class="cls-1" d="M182.71,8.19l.72-6.95,6.63.69-.13,1.25-5.18-.53L184.61,4l4.9.51-.13,1.26-4.9-.51-.18,1.78,5.17.54-.13,1.26Z"/><path class="cls-1" d="M189.55,9.14l-7.1-.74L183.22,1l7.1.74-.18,1.72L185,2.9l-.09.93,4.9.51-.18,1.73-4.9-.51-.14,1.31,5.18.54ZM183,8l6.16.64.09-.79L184,7.29,184.27,5l4.9.51.08-.79-4.89-.51.19-1.86,5.17.54.08-.79-6.16-.64Z"/><path class="cls-1" d="M193.51,5.37a.67.67,0,0,1,.34-.47,1.86,1.86,0,0,0,.8-1.37c0-.24.11-.27.15-.26s.4,1,.28,1.7S194.41,6,194,6A.5.5,0,0,1,193.51,5.37ZM204.1,8c0,.26-.56.25-1,.18s-.42-.19-.4-.33V7.73L198.4,7v0c0,.23-.52.24-1,.17-.28,0-.46-.16-.43-.31v0a6.27,6.27,0,0,0,.21-.86l.07-.42a3.83,3.83,0,0,0,.05-.6l-.13,0a.39.39,0,0,1-.35-.43,1.73,1.73,0,0,0-.1-.91l-.13.85c-.23,1.39-.47,3-.47,3-.23,1.41-.25,1.53-.27,1.72s-.06.51-.07.61-.12.36-1,.22c-.36-.06-.46-.2-.43-.36V9.63c0-.12.34-1.61.46-2.34l.62-3.81a10.2,10.2,0,0,0,.14-1.65c.11,0,1.86.37,1.82.65,0,.11-.2.17-.48.17,0,.15-.09.4-.14.72,1,.58,1.08,1,1.05,1.22a.53.53,0,0,1-.19.32c.37.15.79.35,1.07.5l4.15.67a2.42,2.42,0,0,1,.7-.31c.07,0,1.1.56,1,.82s-.17.17-.4.17c0,.17-.07.38-.07.38s0,.32,0,.44l0,.34Zm-2.54.19a2.19,2.19,0,0,1,.74-.29c.19,0,1.22.7,1.18,1s-.22.2-.59.15a7.11,7.11,0,0,1-1.45.75,24.28,24.28,0,0,0,2.87.68c.1,0,.14.06.14.09s-.07.07-.16.09a4.32,4.32,0,0,0-1.39.54.28.28,0,0,1-.25.07,7.88,7.88,0,0,1-2.55-1.1,15.79,15.79,0,0,1-4.19.11c-.11,0-.15-.06-.15-.08s.06-.08.2-.08a13,13,0,0,0,3.46-.5,3.51,3.51,0,0,1-1-1.58c-.52-.08-1.13-.15-1.37-.16a1,1,0,0,1-.18-.46c.39.13,2.39.45,2.39.45Zm1.92-2.57c0,.29-.9.18-1,.17-.36-.06-.5-.17-.48-.34h0l0-.06-2.41-.39V5c0,.27-1,.15-1,.15-.29,0-.46-.15-.44-.31v0a5.26,5.26,0,0,0,.22-.94l.09-.54a6.33,6.33,0,0,0,.06-1A9.24,9.24,0,0,1,200,3l2.26.37c.52-.33.64-.34.68-.33s1.14.6,1.1.85-.17.17-.41.19a1.19,1.19,0,0,0,0,.22c0,.19-.05.39-.05.39s0,.39,0,.52,0,.34,0,.39Zm-4.17.24-.7-.11-.11.65c0,.08,0,.27-.05.39l.7.11Zm-.09,2.24L198.79,8a4,4,0,0,0,1.44,1.21,6,6,0,0,0,1.25-.78Zm2.89-3c0-.18.06-.31.09-.47V4.47l-2.46-.4v.06c0,.12-.05.42-.07.5v0l2.43.39Zm.24-1.38-2.46-.4-.09.56,2.46.4ZM201.09,6.1,200.4,6l-.17,1,.69.11Zm1.86.3-.76-.13-.17,1,.75.12c0-.1,0-.26.07-.38Z"/><path class="cls-1" d="M202.72,11.35h-.1a8,8,0,0,1-2.56-1.08,15.67,15.67,0,0,1-4.18.09.35.35,0,0,1-.25-.12,2.2,2.2,0,0,1-.85,0,.74.74,0,0,1-.5-.24.4.4,0,0,1-.07-.32V9.61c0-.13.35-1.62.47-2.35l.24-1.49a1.09,1.09,0,0,1-1,.38.71.71,0,0,1-.57-.4.7.7,0,0,1,0-.41h0a.81.81,0,0,1,.42-.59,1.69,1.69,0,0,0,.72-1.25.51.51,0,0,1,.17-.36.24.24,0,0,1,.18-.05c.19,0,.32.38.39.79l.08-.43a10.85,10.85,0,0,0,.14-1.61V1.62l.21,0a9.6,9.6,0,0,1,1,.23c.75.21,1,.38,1,.62s-.11.29-.51.31c0,.13-.06.29-.08.47.93.56,1.07,1,1,1.33a.57.57,0,0,1-.07.22l0,0s0,0,0-.07l0-.08a5,5,0,0,0,.21-.89l.09-.54a6.11,6.11,0,0,0,.06-1V2.07l.24.08a8.94,8.94,0,0,1,1.48.64l2.16.35c.52-.32.66-.33.75-.32a3.51,3.51,0,0,1,1.16.79.4.4,0,0,1,.09.27c0,.23-.28.3-.45.32,0,0,0,.06,0,.09s0,.37,0,.38,0,.32,0,.45v.06c0,.12,0,.35,0,.4h0v0a3.57,3.57,0,0,1,1.09.74.4.4,0,0,1,.08.26c0,.09-.08.28-.43.32,0,.12,0,.23,0,.24s0,.3,0,.41l0,.4c0,.18-.18.37-.7.37h-.19a.7.7,0,0,1,.27.49c0,.14-.14.37-.72.3a6.94,6.94,0,0,1-1,.54c.69.2,1.47.36,2.38.53.21,0,.3.18.29.3s-.08.18-.3.23a4.48,4.48,0,0,0-1.31.5A.38.38,0,0,1,202.72,11.35Zm-2.58-1.46.06,0A7.78,7.78,0,0,0,202.68,11c.07,0,.08,0,.09,0a3.08,3.08,0,0,1,1.15-.5,20.73,20.73,0,0,1-2.54-.61l-.47-.16.47-.18a6.16,6.16,0,0,0,1.4-.73l.06,0h.07c.33.05.4,0,.4,0a3.71,3.71,0,0,0-1-.73,2.36,2.36,0,0,0-.58.25l.2,0-.3.25a6,6,0,0,1-1.29.81l-.08,0-.07,0a4.17,4.17,0,0,1-1.45-1.2,3.3,3.3,0,0,0,.84,1.23l.21.21-.28.09a11.4,11.4,0,0,1-2,.4,13.63,13.63,0,0,0,2.63-.19ZM195.79,2a11.61,11.61,0,0,1-.15,1.47L195,7.32c-.12.74-.44,2.23-.47,2.36v0a.11.11,0,0,0,0,.06s.07.07.27.1c.56.09.73,0,.78,0a.05.05,0,0,0,0,0c0-.05,0-.2,0-.34s0-.23,0-.27,0-.29.26-1.72h0l.47-3,.23-1.44h0c0-.17.06-.33.09-.46l0-.14H197a1.28,1.28,0,0,0,.22,0A7.45,7.45,0,0,0,195.79,2Zm1,2.85c-.2,1.3-.41,2.63-.41,2.63-.22,1.4-.25,1.54-.26,1.72s0,.15,0,.26,0,.28,0,.34a13.47,13.47,0,0,0,3.1-.41,3.64,3.64,0,0,1-.79-1.33c-.5-.08-1-.14-1.24-.15H197l-.05-.07a1.13,1.13,0,0,1-.21-.56V7.08l.15,0a.41.41,0,0,1,0-.2l0-.09a7.25,7.25,0,0,0,.2-.81l.07-.42c0-.09,0-.24,0-.42A.55.55,0,0,1,196.74,4.89Zm2.47,3.34a4.44,4.44,0,0,0,1,.78,4.6,4.6,0,0,0,.81-.49Zm3.69-.6,0,.2c0,.07.16.11.26.13.57.09.79,0,.79,0l0-.36a3.42,3.42,0,0,1,0-.45s0-.22.07-.39l0-.13h.14a.44.44,0,0,0,.24,0,4,4,0,0,0-.94-.6,5.71,5.71,0,0,0-.55.28l.16,0-.13.83c0,.06,0,.13,0,.2a1.49,1.49,0,0,0,0,.18l0,.17Zm-4.63-.21,1,.18,2.23.36.38-.18-3.38-.55A.39.39,0,0,1,198.27,7.42Zm-1.1.19.36,0-.39-.07Zm3.91-.32.74.12L202,6.12,201.28,6Zm1.14-.12.41.06v0a1.16,1.16,0,0,0,0-.18l.08-.48-.42-.07Zm-5-.22s.08.1.28.13c.47.08.72,0,.75,0l.06-.35,0-.23c0-.06,0-.12,0-.16l.13-.83.08,0c-.28-.15-.64-.32-.93-.44l-.09,0a4.19,4.19,0,0,1-.06.63l-.06.42A7.77,7.77,0,0,1,197.19,7Zm2.11,0,.73.12.21-1.29-.73-.11Zm1.13-.12.35,0,.11-.69-.35,0Zm-1.78-.29.35.06.11-.69-.35-.06-.08.48s0,.09,0,.14S198.65,6.57,198.65,6.59Zm-5-1.19h0a.46.46,0,0,0,0,.21.34.34,0,0,0,.3.19c.37.07.8-.22.9-.86a3.29,3.29,0,0,0-.1-1.3,2,2,0,0,1-.87,1.41A.5.5,0,0,0,193.68,5.4Zm5.6-.08,2.75.44a.33.33,0,0,1-.18-.29l-2.09-.33A.64.64,0,0,1,199.28,5.32Zm3-.14h0l-.09.26s.14.08.34.12a1.5,1.5,0,0,0,.78,0h0s0-.25,0-.36V5.1c0-.14,0-.35.05-.48a2.64,2.64,0,0,1,0-.38A1.5,1.5,0,0,1,203.5,4l0-.11h.12a1,1,0,0,0,.23,0,3.42,3.42,0,0,0-.95-.65,4.32,4.32,0,0,0-.53.29l.14,0-.18,1.09a1.3,1.3,0,0,1,0,.21c0,.08,0,.16-.05.26Zm-3.9-.35s.09.09.29.12a1.69,1.69,0,0,0,.82,0h0l0-.1h0l0-.17a1.31,1.31,0,0,0,0-.25c0-.1,0-.21,0-.27L199.74,3h.09a10.16,10.16,0,0,0-1.09-.48,6,6,0,0,1-.07.77l-.08.55A6,6,0,0,1,198.36,4.83ZM197,3.66a2,2,0,0,1,.08.94.23.23,0,0,0,.21.25h.23l.09-.07a.42.42,0,0,0,.13-.22C197.7,4.47,197.68,4.14,197,3.66Zm2.92.85,2.09.34,0-.14s0-.06,0-.1l-2.11-.34c0,.05,0,.1,0,.16Zm.13-.86,2.11.34,0-.22L200,3.43Z"/><path class="cls-1" d="M213.65,13.25a2,2,0,0,0,.11-.32v0l-3.15-.69c0,.07,0,.24,0,.31h0c0,.05-.1.31-1,.1-.29-.06-.49-.17-.45-.35v0a5.74,5.74,0,0,0,.28-.93l.12-.55a4.12,4.12,0,0,0,.09-.93,11.5,11.5,0,0,1,1.52.48c.18.07.28.18.26.27s-.18.15-.43.14a5.83,5.83,0,0,0-.15.6l-.12.56.85.19L212,10l-.59-.13c-.53-.11-1.85-.39-2.3-.44a.61.61,0,0,1-.14-.52c.44.15,2.07.57,2.82.73l.28.06.22-1-.16,0c-.49-.11-1.42-.3-1.89-.37v0a5.06,5.06,0,0,1-1.64.5l-.23,1.09c-.08.33-.17.89-.23,1.22v0c-.21.93-1.61.88-1.81.83a.3.3,0,0,1-.26-.23c-.06-.4-.59-.77-.84-.9-.09-.05-.16-.11-.15-.16s.1-.06.17-.05l.06,0a5.84,5.84,0,0,0,.82.22c.32.07.6,0,.66-.27L207.12,9l-.55.08v0c0,.19-.16.29-.28.26-.34-.07-.63-1.38-.64-1.56a15.5,15.5,0,0,0,1.68.23l.38-1.77A12.25,12.25,0,0,0,206.4,6a.6.6,0,0,1-.13-.47c.35.13,1,.29,1.51.42l.13-.6a8,8,0,0,0,.17-1.4c.22,0,1.91.46,1.85.74,0,.1-.2.14-.47.13-.05.19-.18.75-.33,1.41a3.14,3.14,0,0,1,.57-.5.24.24,0,0,1,.12,0c.15,0,.69.73.64,1s-.14.13-.24.11l-1.15-.26-.35,1.58c.44,0,.87,0,1.27,0h.08a.75.75,0,0,1-.09-.43c.44.15,1.76.49,2.51.65l1.87.41a5.17,5.17,0,0,1,.89-.51h.1c.14,0,1.12.87,1.06,1.11s-.14.14-.28.11L213.7,9l-.22,1,1,.23a4.21,4.21,0,0,1,1-.6h.1c.22.05,1.2,1,1.14,1.23s-.16.14-.29.11l-3-.65L213,12.4l.88.2.18-.81a4.38,4.38,0,0,0,.1-1,11.37,11.37,0,0,1,1.55.5c.18.07.28.17.26.27s-.18.15-.41.14a5.92,5.92,0,0,0-.16.61l0,.25c0,.18-.08.47-.1.61a2.15,2.15,0,0,1,0,.34c-.05.21-.57.21-1.05.1-.3-.06-.49-.19-.45-.36ZM214,8.6s-.08,0-.07-.07a.21.21,0,0,1,.05-.09,5.75,5.75,0,0,0,1.09-1.75c-1.58-.22-3.56-.54-5-.84-.17,0-.24-.1-.23-.12s.07-.07.24-.05a20.93,20.93,0,0,0,5.51-.12c.45.28,1.33,1.06,1.28,1.31,0,.1-.15.14-.3.1a1,1,0,0,1-.35-.15l-.7-.08c.53.24,1.31.69,1.27.88s-.2.14-.4.09l-.14,0A8.64,8.64,0,0,1,214,8.6Zm-3.22-1.32a1.41,1.41,0,0,0-.26-1.09.24.24,0,0,1-.07-.14.14.14,0,0,1,.12,0c.23.05,1.8.63,1.63,1.43a.74.74,0,0,1-.91.46A.59.59,0,0,1,210.82,7.28Zm1.89.23a1.44,1.44,0,0,0-.09-1,.22.22,0,0,1-.06-.13s.07,0,.1,0c.21,0,1.61.68,1.45,1.41-.07.35-.48.53-.93.43A.57.57,0,0,1,212.71,7.51Z"/><path class="cls-1" d="M214.69,13.89a3.43,3.43,0,0,1-.62-.07,1,1,0,0,1-.43-.18.37.37,0,0,1-.16-.4l0-.14,0-.06-2.78-.61c0,.05,0,.11,0,.14-.05.23-.31.45-1.24.25a.81.81,0,0,1-.53-.29.39.39,0,0,1-.05-.28l0-.07a5.55,5.55,0,0,0,.27-.89l.12-.55a3.66,3.66,0,0,0,.08-.89V9.62l.22.06a13.27,13.27,0,0,1,1.55.48c.26.12.4.29.36.48s-.13.26-.47.28c0,.13-.08.32-.11.46l-.09.39.51.11.39-1.77-.42-.1c-.54-.11-1.84-.39-2.28-.44h0l0,0a.74.74,0,0,1-.21-.62h0l-.21,1c-.05.23-.11.57-.16.86l-.06.37a1.11,1.11,0,0,1-.51.73,2.46,2.46,0,0,1-1.52.28.5.5,0,0,1-.4-.39c0-.29-.47-.62-.75-.77s-.25-.28-.23-.35.15-.23.38-.18l.11,0a4.48,4.48,0,0,0,.77.21.53.53,0,0,0,.37,0,.15.15,0,0,0,.08-.11l.29-1.34-.18,0a.4.4,0,0,1-.46.3c-.52-.11-.78-1.71-.78-1.72V7.59l.22,0a14.12,14.12,0,0,0,1.51.21l.31-1.45a9.63,9.63,0,0,0-1.12-.19h-.06l0,0a.74.74,0,0,1-.17-.61l0-.21.2.07c.26.09.75.22,1.32.36l.09-.42A7.33,7.33,0,0,0,207.91,4V3.76l.22,0c.78.17,2.08.52,2,1,0,.18-.21.27-.51.28,0,.15-.1.4-.17.71l.18-.13a.45.45,0,0,1,.2,0,.47.47,0,0,1,.36-.07,20.93,20.93,0,0,0,5.44-.1l.08,0,.07,0c.18.12,1.45,1,1.35,1.49a.35.35,0,0,1-.41.26c.22.17.37.34.33.5a.28.28,0,0,1-.13.19.62.62,0,0,1-.48,0h-.07c-.22.12-.47.24-.74.36.38.27,1,.89,1,1.19a.38.38,0,0,1-.49.25l-.19,0c.41.32,1,.94,1,1.24a.38.38,0,0,1-.5.24l-2.82-.61-.39,1.77.54.12.14-.64a4.2,4.2,0,0,0,.1-.93V10.6l.22.05a13,13,0,0,1,1.58.5c.27.11.4.29.36.48s-.12.26-.45.28c0,.13-.08.3-.11.44l-.06.28a4.72,4.72,0,0,0-.09.59c0,.07,0,.27-.06.36a.33.33,0,0,1-.15.21A1,1,0,0,1,214.69,13.89Zm-.87-.59h0a.09.09,0,0,0,0,0,.8.8,0,0,0,.29.11,1.4,1.4,0,0,0,.85,0c0-.06,0-.24,0-.3s.06-.46.09-.63l.06-.26a4.63,4.63,0,0,1,.17-.63l0-.11h.12l.2,0-.12-.06a10.6,10.6,0,0,0-1.31-.43,4,4,0,0,1-.1.77l-.21.95h0l0,.17c0,.11-.06.2-.09.28Zm-4.06-3.23a4.2,4.2,0,0,1-.09.75l-.12.55a7.12,7.12,0,0,1-.29,1,.62.62,0,0,0,.32.13c.69.16.82,0,.82,0s0-.09,0-.14,0-.13,0-.17l0-.14h0l.16-.74a4,4,0,0,1,.16-.62l0-.12H211l.21,0-.12-.06C210.77,10.38,210.23,10.2,209.76,10.07Zm1.9,2.2,1.09.24.81-3.71-1.09-.24ZM205.71,11a1.3,1.3,0,0,1,.51.74s.05.07.13.09a2.15,2.15,0,0,0,1.25-.22.76.76,0,0,0,.35-.48l.07-.39c0-.3.1-.64.15-.87l.27-1.2.11,0,1.06-.26c-.27,0-.56,0-.9,0h-.21l.32-1.42h0l.15-.67c.13-.62.28-1.21.34-1.42l0-.13h.34a7.13,7.13,0,0,0-1.42-.47,8.35,8.35,0,0,1-.17,1.22l-.17.77h0l-.44,2h-.16c-.21,0-.86-.08-1.45-.19.09.4.32,1.11.47,1.17s0,0,.07-.13l0-.13.13,0,.3,0,.23,0,.25,0-.4,1.84a.52.52,0,0,1-.23.33.83.83,0,0,1-.64.07Zm8.87-.59,1.86.41h.07a3.75,3.75,0,0,0-1-1,4.34,4.34,0,0,0-.91.56Zm-9.35.31,0,.08,0-.05Zm0,0h0v0Zm8.44-.79.76.17a5,5,0,0,1,.83-.53l-1.45-.32Zm-4.44-1.06c.61.18,1.89.5,2.55.65l.11,0,.15-.67c-.44-.1-1.26-.27-1.76-.35A3.36,3.36,0,0,1,209.25,8.79Zm-.07.44c.24,0,.65.11,1.06.19l-1.11-.29S209.16,9.2,209.18,9.23ZM214.44,9l1.73.38h.06a4.09,4.09,0,0,0-.93-.89,6,6,0,0,0-.84.49Zm-1.17-.58.53.12a.32.32,0,0,1,.1-.17l.08-.1h0A1,1,0,0,1,213.27,8.37Zm2-1.59a6.05,6.05,0,0,1-.94,1.57,9.56,9.56,0,0,0,1.9-.83l.08,0,.08,0,.11,0,.13,0a4.74,4.74,0,0,0-1.11-.66Zm-3.41,1.27.66.16.51.11a.74.74,0,0,1-.49-.84h0a1.3,1.3,0,0,0-.07-.89.37.37,0,0,1-.07-.14l-.68-.12a1.9,1.9,0,0,1,.56.53.81.81,0,0,1,.13.63A.77.77,0,0,1,212,8,.35.35,0,0,1,211.86,8.05Zm-1.61,0,.8.15L210.18,8a.2.2,0,0,0,0,.08Zm2.64-.53h0a.39.39,0,0,0,.33.47.81.81,0,0,0,.56-.07.34.34,0,0,0,.16-.23c.1-.45-.66-.92-1.08-1.11A1.81,1.81,0,0,1,212.89,7.54ZM208.94,8h.88a1.32,1.32,0,0,1,0-.27l0-.21.21.07.76.22a.73.73,0,0,1-.15-.52,2.27,2.27,0,0,0,0-.52.34.34,0,0,1-.13.2.43.43,0,0,1-.32,0l-1-.22Zm4.7-1.33a1.2,1.2,0,0,1,.64,1.14.19.19,0,0,1,0,.07,5.86,5.86,0,0,0,.61-1Zm-2.79-.36a1.94,1.94,0,0,1,.15,1h0a.41.41,0,0,0,.37.44.63.63,0,0,0,.47-.06.43.43,0,0,0,.23-.27.49.49,0,0,0-.08-.36A2.55,2.55,0,0,0,210.85,6.29Zm3.53.09,1.24.18c.24,0,.48.06.69.08l.08,0a1,1,0,0,0,.29.13h.08a4.45,4.45,0,0,0-1.12-1,18.44,18.44,0,0,1-4.1.18c.91.17,1.94.34,2.93.48Zm-5.16,0,1,.22h.05a2.23,2.23,0,0,0-.55-.73,4.18,4.18,0,0,0-.5.46Zm-2.73-.55a2.33,2.33,0,0,1,.34,0l-.36-.11S206.48,5.85,206.49,5.87Z"/><path class="cls-1" d="M229.43,13.47l.68.25a9.47,9.47,0,0,1-.75,2,10.16,10.16,0,0,1-1.2,1.89c-1.43-.34-2.89-.73-4.26-1.13-.92-.27-2.14-.7-4.11-1.32l2.89-5.78-.63-.92.07-.16c1.31.31,3.14.83,4.84,1.32,1.17.35,2.41.72,3.6,1.14a7.62,7.62,0,0,1-.63,1.83A7.4,7.4,0,0,1,229.43,13.47ZM222,14.61c.78.29,1.53.53,2.45.8s1.85.52,2.73.73a7.14,7.14,0,0,0,.52-.89,6.42,6.42,0,0,0,.39-.94c-.62-.22-1.27-.41-1.94-.61l-3.22-.94Zm1.49-3,3,.89c.4.11.79.23,1.26.34.16-.26.32-.5.45-.76a5.94,5.94,0,0,0,.31-.75c-.65-.23-1.31-.43-2.08-.65s-1.48-.41-2.17-.58Z"/><path class="cls-1" d="M228.22,17.8l-.09,0c-1.48-.36-3-.76-4.27-1.14-.48-.14-1-.32-1.72-.55s-1.43-.47-2.4-.77l-.16-.05,2.93-5.85-.63-.93.16-.34.12,0c1.09.26,2.73.7,4.84,1.32,1.09.32,2.38.71,3.61,1.15l.11,0,0,.12a7.71,7.71,0,0,1-.64,1.86,5.73,5.73,0,0,1-.41.73l.64.22,0,.13a10.44,10.44,0,0,1-.77,2.06,10.32,10.32,0,0,1-1.21,1.91ZM220,15.09l2.24.72c.69.23,1.23.41,1.7.55,1.28.37,2.72.76,4.16,1.11a10.23,10.23,0,0,0,1.13-1.79,9.86,9.86,0,0,0,.71-1.87l-.74-.26.11-.16a7.84,7.84,0,0,0,.49-.85,7.26,7.26,0,0,0,.58-1.66c-1.18-.42-2.41-.79-3.46-1.1-2-.58-3.59-1-4.68-1.28l.61.89Zm7.23,1.22-.1,0c-.86-.21-1.73-.45-2.73-.74s-1.74-.54-2.46-.81l-.15-.05,1.05-2.11,3.34,1c.7.21,1.33.4,1.95.62l.13,0,0,.14a6.71,6.71,0,0,1-.4,1,7.45,7.45,0,0,1-.53.91Zm-5-1.78c.66.24,1.36.47,2.28.74s1.79.5,2.62.71a8.61,8.61,0,0,0,.46-.79c.12-.26.25-.52.34-.78-.57-.2-1.16-.38-1.78-.56L223,12.93ZM227.82,13l-.1,0c-.5-.11-.91-.23-1.27-.34l-3.18-.94.91-1.77.19.05c.65.16,1.32.33,2.1.55l.05,0c.75.22,1.4.41,2,.64l.14,0,0,.14a6.68,6.68,0,0,1-.32.76,6,6,0,0,1-.41.69Zm-4.13-1.48,2.84.84c.34.1.71.21,1.15.31a5,5,0,0,0,.39-.66,3.87,3.87,0,0,0,.25-.59c-.58-.21-1.19-.38-1.88-.59h-.05c-.76-.23-1.42-.39-2-.55Z"/><path class="cls-1" d="M229.75,17.88c.8-1.68,1.75-3.47,2.69-5.11l.19-.34-.54-1,.09-.15,2.64.94-.65,1.13c-.73,1.26-1.47,2.67-2.13,3.94a16.64,16.64,0,0,0,2.3,1,16.21,16.21,0,0,0,2.43.71c.79-1.22,1.62-2.6,2.35-3.86l.64-1.13,1.74.61-.64,1.13c-1,1.65-2.11,3.36-3.1,5a22.86,22.86,0,0,1-4.18-1.09A21.06,21.06,0,0,1,229.75,17.88Z"/><path class="cls-1" d="M237.83,20.88h-.1a23.81,23.81,0,0,1-4.2-1.1A21.79,21.79,0,0,1,229.67,18l-.11-.07.05-.12c.81-1.69,1.77-3.51,2.7-5.12l.15-.27-.54-1,.19-.33,2.92,1-.73,1.28c-.71,1.22-1.44,2.6-2.06,3.81a18.17,18.17,0,0,0,2.15.89,20,20,0,0,0,2.31.68c.67-1,1.44-2.31,2.29-3.78l.71-1.23,2,.71L241,15.83c-.57,1-1.24,2-1.88,3-.42.65-.83,1.3-1.22,1.93Zm-7.89-3.05a21.28,21.28,0,0,0,3.69,1.66,23.72,23.72,0,0,0,4.05,1.07c.38-.61.78-1.23,1.18-1.85.63-1,1.3-2,1.87-3l.56-1-1.46-.51-.59,1c-.87,1.51-1.66,2.81-2.35,3.87l0,.09-.1,0a18.36,18.36,0,0,1-2.45-.72,17.15,17.15,0,0,1-2.32-1l-.13-.07.07-.13c.64-1.24,1.4-2.68,2.14-4l.55-1-2.32-.83.52.92-.23.41C231.66,14.41,230.73,16.18,229.94,17.83Z"/><path class="cls-1" d="M251,19a9.51,9.51,0,0,1-1.34,3.1,11.27,11.27,0,0,1-2.42,2.64A25.58,25.58,0,0,1,243,23.3c-.89-.38-1.73-.78-3.9-1.78l3.54-5.4-.51-1,.09-.15c1.18.43,3.1,1.19,4.68,1.85l.28.12A24.78,24.78,0,0,1,251,19Zm-4.68,4a9.07,9.07,0,0,0,1.47-1.71,8.1,8.1,0,0,0,.93-1.95,18.41,18.41,0,0,0-2.35-1.15A25.22,25.22,0,0,0,244,17.3L241.56,21a20.43,20.43,0,0,0,2.24,1.09A18.67,18.67,0,0,0,246.3,23Z"/><path class="cls-1" d="M247.25,24.85h-.06a24.65,24.65,0,0,1-4.26-1.41c-.63-.27-1.23-.54-2.31-1L239,21.65l-.16-.07.09-.14,3.5-5.33-.51-1,.19-.32.12,0c1.2.45,3.13,1.21,4.68,1.86l.29.12a23.3,23.3,0,0,1,3.83,2l.08.05,0,.1a9.57,9.57,0,0,1-1.36,3.15,11.24,11.24,0,0,1-2.45,2.67Zm-7.95-3.39,1.44.66c1.08.5,1.68.77,2.31,1a24.71,24.71,0,0,0,4.13,1.38A10.83,10.83,0,0,0,249.51,22a9.25,9.25,0,0,0,1.3-2.95,22.47,22.47,0,0,0-3.7-1.94l-.28-.12c-1.49-.62-3.32-1.35-4.53-1.8l.5,1-.05.07Zm7,1.69-.08,0a19.89,19.89,0,0,1-2.52-.91,23.79,23.79,0,0,1-2.25-1.1l-.14-.08.08-.13,2.49-3.78.11,0c.79.25,1.5.5,2.38.87a22.63,22.63,0,0,1,2.37,1.16l.1.06,0,.12a8.42,8.42,0,0,1-.94,2,9.58,9.58,0,0,1-1.5,1.74Zm-4.57-2.22c.64.35,1.25.65,2.08,1a20.4,20.4,0,0,0,2.41.88,8.67,8.67,0,0,0,1.39-1.63,8.14,8.14,0,0,0,.88-1.8,21.13,21.13,0,0,0-2.24-1.09c-.83-.35-1.48-.58-2.25-.83Z"/><path class="cls-1" d="M252.62,27.77a33.55,33.55,0,0,1-3.88-2.3c.66-1,1.3-1.9,2-2.85s1.43-1.82,2.23-2.74a37.4,37.4,0,0,1,4.23,1.82A35,35,0,0,1,261.1,24c-.66,1-1.29,1.9-2,2.85s-1.43,1.82-2.22,2.74A37.56,37.56,0,0,1,252.62,27.77Zm-1.26-2.57a24.6,24.6,0,0,0,2.24,1.29A25.82,25.82,0,0,0,256,27.55c.48-.53.9-1,1.33-1.6s.78-1.09,1.16-1.68A22.22,22.22,0,0,0,256.25,23a24.48,24.48,0,0,0-2.39-1.07c-.49.54-.91,1-1.34,1.6S251.74,24.61,251.36,25.2Z"/><path class="cls-1" d="M256.9,29.76l-.09,0a36.91,36.91,0,0,1-4.26-1.83h0a33.26,33.26,0,0,1-3.89-2.31l-.12-.08.08-.12c.72-1.09,1.35-2,2-2.86s1.42-1.79,2.24-2.74l.06-.08.1,0a35.73,35.73,0,0,1,4.25,1.82,34.11,34.11,0,0,1,3.89,2.31l.12.08-.08.12c-.72,1.1-1.35,2-2,2.86s-1.41,1.79-2.23,2.75Zm-4.21-2.12a36.31,36.31,0,0,0,4.12,1.78c.79-.92,1.48-1.77,2.16-2.66s1.24-1.68,1.93-2.72a34,34,0,0,0-3.75-2.21A34.53,34.53,0,0,0,253,20.06c-.79.91-1.47,1.76-2.16,2.65s-1.24,1.69-1.92,2.72a32,32,0,0,0,3.74,2.21Zm3.34.08-.1,0c-.79-.31-1.6-.67-2.4-1.07a25.77,25.77,0,0,1-2.25-1.29l-.12-.08.08-.13c.33-.52.7-1.08,1.17-1.69s.83-1.05,1.34-1.61l.06-.07.1,0a25.22,25.22,0,0,1,2.41,1.08,23.56,23.56,0,0,1,2.24,1.29l.12.08-.08.12c-.31.49-.69,1.07-1.17,1.69s-.86,1.08-1.33,1.61Zm-4.47-2.56c.63.4,1.36.82,2.11,1.2s1.52.72,2.28,1c.44-.5.84-1,1.25-1.52s.79-1.09,1.08-1.55c-.64-.41-1.35-.81-2.1-1.19s-1.54-.74-2.28-1c-.47.53-.86,1-1.26,1.52S251.87,24.68,251.56,25.16Z"/><path class="cls-1" d="M268.76,30.28c-1.53-1-2.36-1.53-3-1.9l-3.86,4.41-1.62-1,3.85-4.42c-.61-.35-1.49-.84-3.12-1.72l1-1.2c1.36.7,2.67,1.43,4,2.19s2.55,1.56,3.77,2.41Z"/><path class="cls-1" d="M262,33l-1.88-1.12,3.85-4.41c-.66-.38-1.59-.89-3-1.63l-.16-.09,1.23-1.42.1.05c1.3.67,2.6,1.38,4,2.2s2.62,1.61,3.77,2.41l.14.09-1.25,1.41-.1-.07c-1.29-.84-2.18-1.41-2.86-1.83Zm-1.42-1.19,1.36.81,3.86-4.41.1.06c.68.42,1.56,1,2.86,1.84l.86-1c-1.11-.77-2.3-1.52-3.62-2.31s-2.59-1.49-3.85-2.14l-.84,1c1.39.75,2.31,1.26,3,1.63l.15.09Z"/><path class="cls-1" d="M267.82,32.51A9.92,9.92,0,0,1,269,31.12a12.12,12.12,0,0,1,1.53-1.29A34.51,34.51,0,0,1,274.08,32c1.14.8,2.23,1.62,3.28,2.51l-1,1c-.82-.66-1.6-1.3-2.65-2s-1.83-1.2-2.71-1.71a4.75,4.75,0,0,0-.49.42c-.13.14-.24.27-.37.43a49.1,49.1,0,0,1,5,4.18,12,12,0,0,1-1.23,1.44,13.63,13.63,0,0,1-1.58,1.34,34.62,34.62,0,0,1-3.6-2.22c-1.13-.79-2.23-1.62-3.27-2.51l1-1c.82.66,1.65,1.31,2.74,2.07s1.81,1.21,2.64,1.69a4.66,4.66,0,0,0,.54-.48,2.91,2.91,0,0,0,.44-.49A57.76,57.76,0,0,1,267.82,32.51Z"/><path class="cls-1" d="M272.33,39.75l-.08,0a35.13,35.13,0,0,1-3.62-2.23A40.89,40.89,0,0,1,265.36,35l-.13-.11,1.21-1.19.1.08c.74.6,1.57,1.26,2.73,2.07.87.61,1.65,1.11,2.55,1.64.17-.14.31-.27.45-.41s.23-.24.34-.37l-1.25-1a35.32,35.32,0,0,1-3.64-3.1l-.09-.09.08-.1a10.17,10.17,0,0,1,1.2-1.41,13.11,13.11,0,0,1,1.54-1.3l.08-.05.08,0a34.35,34.35,0,0,1,3.56,2.19c1.31.92,2.35,1.72,3.29,2.52l.12.1-1.21,1.2-.16-.12c-.8-.65-1.56-1.27-2.59-2A28.67,28.67,0,0,0,271,32a4,4,0,0,0-.39.34,2.61,2.61,0,0,0-.27.31c.48.4,1,.79,1.49,1.17a28.33,28.33,0,0,1,3.4,2.93l.08.09-.07.1A12.41,12.41,0,0,1,274,38.34a12.59,12.59,0,0,1-1.6,1.36Zm-6.66-4.9c.9.76,1.9,1.52,3.13,2.39a34.61,34.61,0,0,0,3.5,2.16,11.56,11.56,0,0,0,1.5-1.27,11.17,11.17,0,0,0,1.14-1.32A29,29,0,0,0,271.66,34c-.53-.41-1.09-.84-1.62-1.27l-.11-.1.17-.2c.1-.12.19-.23.31-.35a6.47,6.47,0,0,1,.51-.43l.08,0,.08,0c1,.6,1.84,1.11,2.71,1.72s1.77,1.32,2.56,2l.79-.79c-.89-.76-1.9-1.52-3.14-2.4A35.18,35.18,0,0,0,270.55,30a12.1,12.1,0,0,0-1.44,1.22A10,10,0,0,0,268,32.49a32.85,32.85,0,0,0,3.52,3l1.37,1.08.11.09-.09.11a5.47,5.47,0,0,1-.45.51,5.76,5.76,0,0,1-.56.49l-.08.06-.08-.05c-.94-.55-1.76-1.07-2.66-1.7-1.11-.78-1.93-1.42-2.64-2Z"/><path class="cls-1" d="M293.92,115l3.29-.48,1-1.89-2.43-1.24.95-1.87,7.69,3.91-2.3,4.52c-.84,1.65-2.36,2.49-4.11,1.6a2.7,2.7,0,0,1-1.59-2.94l-3.58.57Zm4.6,1c-.34.67-.37,1.27.38,1.65s1.21,0,1.56-.67l1.28-2.53-1.93-1Z"/><path class="cls-1" d="M290,123.92l2.31-3.23-.94-1.51,1.3-1.8,4.81,8.06-1.35,1.88-9.18-2,1.31-1.83Zm1.88.44,3.2.77-1.74-2.81Z"/><path class="cls-1" d="M282.56,132.49a4.77,4.77,0,0,1,1.37-4.34c2-2.2,4.48-2.43,6.63-.47s2.15,4.45.15,6.65A5.09,5.09,0,0,1,287,136.1l0-2a2.79,2.79,0,0,0,2.22-1,2.62,2.62,0,1,0-3.89-3.49,2.65,2.65,0,0,0-.85,2.06l.58.53,1.61-1.78,1.3,1.18L285,134.75Z"/><path class="cls-1" d="M277.3,137.22l3-2.64-.58-1.68,1.65-1.47,2.92,8.93-1.73,1.53-8.52-4,1.68-1.49Zm1.73.85,3,1.45-1.08-3.12Z"/><path class="cls-1" d="M272.69,147.13l2.4-1.82-4-5.25,1.68-1.28,4,5.25,2.38-1.81,1.22,1.59-6.45,4.92Z"/><path class="cls-1" d="M265.33,146.05l3.31-2.2-.35-1.75,1.85-1.23,1.67,9.24-1.92,1.28L262,146.3l1.87-1.24Zm1.61,1.08,2.74,1.84-.65-3.24Z"/><path class="cls-1" d="M256.12,149.61l3.94,2,.56-2.27-1-1.74,1.84-1,4.24,7.49-1.83,1-2-3.47-1.26,5.3-2.28,1.3,1.11-4.58L254,150.83Z"/><path class="cls-1" d="M247.84,154.49l-.26-.6,1.11-.49.6,1.49.7,1.57.54,1.12,0,.06-1.54.63-4.73,2.08-1.51.71h-.07l-.45-1.16-.68-1.55-.69-1.44,1.12-.49.25.56Zm-5.47,7.17c.44.16.85.31,1.25.44,2.71-1.43,5-2.61,7.78-3.93,0-.26,0-.33.14-.4s.38,0,1.16.89c-.68.26-1,.4-1.28.52l-1.17.55a19.59,19.59,0,0,0-.12,2.63,3.18,3.18,0,0,0,.15.86c-1.49.3-1.69.32-1.76.17s0-.22.35-.4a24.36,24.36,0,0,1,.21-2.69c-1.45.67-2.87,1.41-4.32,2.13a19.89,19.89,0,0,0,2.3.46l-.59.86a27.89,27.89,0,0,1-4.69-1.08Zm1.07-1.89,5.64-2.48-.9-2-5.64,2.49Z"/><path class="cls-1" d="M246.59,164l-.16,0a28.6,28.6,0,0,1-4.73-1.08l-.31-.1.87-1.5.21.08c.39.15.77.29,1.13.41,2.75-1.45,5-2.6,7.52-3.81a.49.49,0,0,1,.32-.48c.36-.17.66.08,1.46,1l.26.28-.36.14c-.66.24-1,.39-1.27.51l-1,.48a19.6,19.6,0,0,0-.11,2.45,2.79,2.79,0,0,0,.15.79l.08.28-.28.06c-1.61.32-1.9.37-2.06,0s.09-.51.33-.66c0-.71.07-1.4.15-2.09-.85.4-1.7.83-2.52,1.24l-.72.36c.52.12,1,.21,1.58.29l.42.06Zm-4.41-1.51a27.21,27.21,0,0,0,4.16.94l.26-.38c-.65-.1-1.26-.23-1.91-.39l-.69-.18.64-.32,1.36-.68c1-.48,2-1,3-1.45l.44-.2-.06.47a26.25,26.25,0,0,0-.22,2.66v.15l-.07,0c.25,0,.57-.1.9-.16a3.61,3.61,0,0,1-.08-.64,19.91,19.91,0,0,1,.12-2.68v-.14l1.31-.62c.21-.1.49-.22.93-.39a2.46,2.46,0,0,0-.6-.53.44.44,0,0,1,0,.12l0,.19-.17.08c-2.59,1.25-4.91,2.42-7.77,3.93l-.1,0-.11,0c-.33-.11-.68-.23-1-.37Zm.58-1.19-.3,0L242,160l-.68-1.54-.8-1.68,1.62-.71.25.56,5.15-2.27-.26-.6,1.61-.7.7,1.74.69,1.57.6,1.22-.14.27-1.63.66-4.72,2.08ZM241.18,157l.57,1.19.69,1.55.37.95,1.31-.62,4.74-2.08,1.33-.55-.44-.9-.7-1.59-.5-1.24-.62.27.26.6-6.13,2.7-.24-.56Zm2.12,3.08-1.11-2.52,6.12-2.69,1.11,2.52Zm-.41-2.25.68,1.56,5.16-2.27-.68-1.56Z"/><path class="cls-1" d="M233.54,166.94l-.26.37-.17.05c-1-.19-1.18-.25-1.23-.39s0-.21.48-.48a10.45,10.45,0,0,1,1.2-2h-.05a15.1,15.1,0,0,0-4.89.79,3.4,3.4,0,0,0,.35-1.07c.7-.16,1.3-.3,1.84-.39l-.38-1.19-.17-.49-.5-1.24,1.12-.4.14.41,4.2-1.47-.17-.48,1.1-.39.38,1.25.21.59.41,1q.79-.49,1.71-1a3.32,3.32,0,0,0,.89.52,15,15,0,0,0-4.37,2.84,7.61,7.61,0,0,1,1.75.74,10.12,10.12,0,0,1,1.83-2.07,2.48,2.48,0,0,0,.89.4,6.48,6.48,0,0,0-2.23,2.82,1.59,1.59,0,0,0-.14.65l2.23-.79-.43-1.22,1.13-.39.3,1,.39.95,0,.06-1.9.63-2.65.93,0,.09a3.29,3.29,0,0,0,.4.84c-1.33.44-1.61.47-1.66.33s.06-.2.29-.35l-.18-.52-2.7.95-1.87.7h-.07l-.3-1-.42-1,1.14-.4.43,1.22,5.48-1.93c-.91.09-1,.08-1,0s0-.19.33-.3c0-.07.05-.16.08-.23Zm-2.25-5.31.38,1.09,4.2-1.48-.39-1.08Zm4.34.52-3.23,1.13-1.09.42a11.22,11.22,0,0,1,2.54-.14l.46,0a12.54,12.54,0,0,1,2.1-1.71Zm.8,3a5.12,5.12,0,0,0-1.76-.62,6.58,6.58,0,0,0-1,1.59Z"/><path class="cls-1" d="M230.84,169.86l-.3-.07-.34-1.13-.52-1.23,1.65-.58.43,1.22,1.27-.45c-1-.2-1.29-.27-1.4-.56s.16-.53.53-.76a12.49,12.49,0,0,1,.89-1.59,16.39,16.39,0,0,0-4.36.8l-.56.15.25-.52a2.85,2.85,0,0,0,.32-1l0-.17.17,0c.49-.12,1-.25,1.57-.35L230,162.2l-.59-1.49,1.62-.57.14.41,3.7-1.31-.17-.47,1.61-.57.67,2.09.29.74c.43-.26.92-.54,1.45-.83l.15-.09.14.11a3.16,3.16,0,0,0,.82.48l.57.22-.55.26a16.14,16.14,0,0,0-4,2.49,8.25,8.25,0,0,1,1.15.51,10.76,10.76,0,0,1,1.75-1.92l.15-.14.17.13a2.11,2.11,0,0,0,.8.35l.52.13-.41.34a6.29,6.29,0,0,0-2.15,2.7l-.06.16,1.57-.55-.44-1.22,1.64-.57.38,1.31.44,1.06-.19.25-.08,0-1.9.63-2.39.84a3.57,3.57,0,0,0,.33.64l.17.28-.31.1c-1.38.45-1.86.58-2,.16a.47.47,0,0,1,.23-.53l0-.08-2.45.86Zm-.46-2.12.32.74.23.78,1.67-.63,3-1,.33.92c.22-.06.47-.13.67-.2a3.49,3.49,0,0,1-.26-.61l-.13-.33,2.9-1,1.7-.56-.3-.73-.23-.8-.61.21.43,1.22-8.61,3-.43-1.22Zm3.33-.58-.21.29,2.35-.83a1,1,0,0,1,0-.1.29.29,0,0,1,0-.09Zm-1.5-.25.88.18h0l.27-.36.08,0,3.46-1.22-.24.64s0,.08,0,.13h0l.42,0,.17,0a1.78,1.78,0,0,1,.16-.61,6.25,6.25,0,0,1,1.94-2.61,2.68,2.68,0,0,1-.33-.18,9.37,9.37,0,0,0-1.64,1.88l-.13.22-.23-.13a7.59,7.59,0,0,0-1.68-.72l-.44-.12.33-.32a14.32,14.32,0,0,1,3.94-2.65l-.31-.21c-.57.32-1.09.62-1.54.9l-.26.18v0l-.46.31a12.93,12.93,0,0,0-2.07,1.67l-.08.09-.58,0a10.08,10.08,0,0,0-2.48.13l-.2,0h0l-.29.05c-.53.09-1.13.22-1.66.35,0,.15-.07.29-.12.46a13.55,13.55,0,0,1,4.44-.66l.51,0-.26.4a10.56,10.56,0,0,0-1.17,2l0,.07-.07,0Zm-2.1-5.89.57,1.5.33,1,1.3-.49,4.57-1.58-.59-1.59-.31-1-.6.21.17.48-4.69,1.65-.14-.41Zm3.1,2.26.65,0,.34,0c.22-.21.46-.43.71-.64Zm0,3.32.21-.54a6.53,6.53,0,0,1,1.05-1.66l.1-.12.15,0a5.86,5.86,0,0,1,1.84.65l.51.29Zm1.57-1.75a7,7,0,0,0-.59.85l1.56-.55A4.73,4.73,0,0,0,234.78,164.85Zm-3.27-1.8-.56-1.58,4.69-1.65.56,1.58Zm.11-1.25.21.58,3.7-1.3-.21-.59Z"/><path class="cls-1" d="M213.71,174a.78.78,0,0,1,0-.34l1-7.43c0-.14.19-.28.3-.31l4.2-1.07a.37.37,0,0,1,.42.12l4.44,6.05a.92.92,0,0,1,.17.3l0,.15c0,.12,0,.19-.13.22l-1.88.48c-.08,0-.15,0-.21-.09l-4.17-5.6s-.06-.05-.12,0l-1,.26c-.07,0-.11.06-.11.1l-1,6.91a.19.19,0,0,1-.15.18l-1.51.39c-.13,0-.2,0-.23-.13Z"/><path class="cls-1" d="M213.9,174.36a.21.21,0,0,1-.21-.18l0-.15a1,1,0,0,1,0-.34v0l1-7.44a.53.53,0,0,1,.35-.36l4.2-1.07a.42.42,0,0,1,.47.15L224.1,171a.83.83,0,0,1,.18.31l0,.16a.27.27,0,0,1,0,.18.3.3,0,0,1-.17.11l-1.88.48a.26.26,0,0,1-.26-.11l-4.17-5.61s0,0-.07,0l-1,.27s-.08,0-.08.05l-1,6.91a.25.25,0,0,1-.19.22l-1.52.39Zm5.44-9.47-.12,0L215,166a.44.44,0,0,0-.26.27l-1,7.45a1,1,0,0,0,0,.3l0,.16c0,.08.07.11.16.08l1.52-.38a.17.17,0,0,0,.11-.14l.95-6.9s0-.12.16-.15l1-.27a.15.15,0,0,1,.18.06l4.17,5.6c0,.07.1.08.14.07l1.88-.48a.14.14,0,0,0,.1-.06.14.14,0,0,0,0-.09l0-.16a.73.73,0,0,0-.15-.27l-4.44-6A.3.3,0,0,0,219.34,164.89Z"/><path class="cls-1" d="M202.47,169.31a.71.71,0,0,1-.15-.3l0-.16a.17.17,0,0,1,.15-.22l1.9-.38c.08,0,.14,0,.2.1l.89,1.33,5.29-1.08L211,167a.21.21,0,0,1,.16-.17l1.53-.31c.13,0,.2,0,.23.14l0,.15a1,1,0,0,1,0,.34l-1.35,7.38a.43.43,0,0,1-.31.29l-4.25.87a.35.35,0,0,1-.41-.15Zm7.12,4.66c.07,0,.12-.05.12-.1l.77-4.08-4.38.9,2.32,3.46s.06,0,.12,0Z"/><path class="cls-1" d="M206.9,175.78a.39.39,0,0,1-.34-.18l-4.14-6.26.05,0-.05,0a1.07,1.07,0,0,1-.16-.32l0-.16a.22.22,0,0,1,0-.18.26.26,0,0,1,.17-.1l1.89-.39h.06a.22.22,0,0,1,.2.13l.88,1.3,5.21-1.07.28-1.54a.26.26,0,0,1,.2-.21l1.53-.32a.22.22,0,0,1,.29.18l0,.16a.75.75,0,0,1,0,.36l-1.34,7.38a.51.51,0,0,1-.36.34l-4.25.87Zm-2.53-7.48h0l-1.89.39a.15.15,0,0,0-.1.05.11.11,0,0,0,0,.1l0,.16a.7.7,0,0,0,.15.28h0l4.13,6.25a.31.31,0,0,0,.35.13l4.25-.87a.42.42,0,0,0,.27-.25l1.34-7.38a.72.72,0,0,0,0-.32l0-.15a.12.12,0,0,0-.16-.1l-1.53.31a.15.15,0,0,0-.11.13l-.3,1.62h0l-5.32,1.09,0,0-.9-1.33C204.44,168.32,204.41,168.3,204.37,168.3Zm4.13,5.94a.14.14,0,0,1-.13-.06L206,170.65h.08l4.46-.92-.79,4.16s0,.11-.16.14l-1,.22Zm-2.31-3.51,2.27,3.39a.08.08,0,0,0,.07,0l1-.22c.05,0,.08,0,.08,0l.76-4Z"/><path class="cls-1" d="M198.89,169.38c0-.12.05-.19.17-.21l2-.34c.12,0,.21,0,.23.14l1.24,7.4c0,.11,0,.19-.17.21l-2,.34c-.13,0-.21,0-.23-.14Z"/><path class="cls-1" d="M200.32,177a.22.22,0,0,1-.24-.19l-1.24-7.4a.22.22,0,0,1,.21-.28l2-.34a.23.23,0,0,1,.29.19l1.25,7.4a.19.19,0,0,1,0,.17.26.26,0,0,1-.18.11l-2,.34Zm.79-8.1h0l-2,.34c-.13,0-.13.09-.12.15l1.24,7.4a.13.13,0,0,0,.17.1l2-.34a.17.17,0,0,0,.11-.06s0-.05,0-.09l-1.25-7.4A.11.11,0,0,0,201.11,168.88Z"/><path class="cls-1" d="M192,172.41a.22.22,0,0,0-.11-.17l-.86-.56a.4.4,0,0,0-.27-.06l-4.32.53a.16.16,0,0,1-.21-.15l-.11-.88c0-.13,0-.19.17-.21l5.71-.7a.52.52,0,0,1,.37.08l1.85,1.2a.36.36,0,0,1,.15.23l.73,5.84c0,.12,0,.18-.18.2l-2,.25c-.14,0-.21,0-.23-.15Z"/><path class="cls-1" d="M192.89,178.07a.2.2,0,0,1-.14,0,.22.22,0,0,1-.09-.17l-.68-5.45a.22.22,0,0,0-.09-.13l-.87-.56a.33.33,0,0,0-.22,0l-4.32.53a.27.27,0,0,1-.19,0,.24.24,0,0,1-.09-.17l-.11-.88a.27.27,0,0,1,0-.18.25.25,0,0,1,.18-.08l5.71-.71a.57.57,0,0,1,.41.09l1.85,1.2a.37.37,0,0,1,.17.28l.73,5.83c0,.11,0,.24-.23.27l-2,.25Zm-2-6.51a.51.51,0,0,1,.24.07l.86.56a.33.33,0,0,1,.14.21l.68,5.45c0,.07,0,.11.12.11h0l2-.25c.12,0,.14-.07.13-.15l-.73-5.83a.26.26,0,0,0-.12-.19l-1.86-1.21a.44.44,0,0,0-.33-.07l-5.71.71a.13.13,0,0,0-.1,0,.15.15,0,0,0,0,.1l.12.88s0,.08,0,.09a.15.15,0,0,0,.1,0l4.32-.54Z"/><path class="cls-1" d="M174.86,172.56a.87.87,0,0,1-.11-.32l0-.16a.16.16,0,0,1,.18-.19l1.93-.16c.09,0,.14,0,.19.12l.72,1.44,5.39-.43.47-1.54a.23.23,0,0,1,.18-.15l1.56-.13a.17.17,0,0,1,.21.17v.16a.87.87,0,0,1-.06.34l-2.24,7.16a.46.46,0,0,1-.35.26l-4.33.35a.38.38,0,0,1-.39-.2Zm6.5,5.5c.08,0,.13,0,.14-.09l1.27-4-4.47.36,1.88,3.72s0,.06.12,0Z"/><path class="cls-1" d="M178.54,179.53a.43.43,0,0,1-.39-.22l-3.34-6.72.05,0-.05,0a.87.87,0,0,1-.12-.34v-.15a.24.24,0,0,1,0-.18.26.26,0,0,1,.19-.08l1.93-.16h0a.27.27,0,0,1,.22.15l.71,1.41,5.3-.43.47-1.49a.26.26,0,0,1,.23-.19l1.56-.13h0a.21.21,0,0,1,.23.22l0,.16a.77.77,0,0,1-.06.33v0l-2.24,7.17a.5.5,0,0,1-.4.29l-4.33.35Zm-1.68-7.74h0l-1.93.15a.13.13,0,0,0-.1,0,.1.1,0,0,0,0,.1v.16a.75.75,0,0,0,.11.29h0l3.34,6.71a.31.31,0,0,0,.34.17l4.32-.35a.37.37,0,0,0,.3-.21l2.25-7.19a.84.84,0,0,0,.06-.3l0-.15c0-.09,0-.12-.12-.12h0l-1.56.13a.14.14,0,0,0-.13.11l-.49,1.57h0l-5.42.44-.74-1.47C176.94,171.8,176.9,171.79,176.86,171.79Zm3.42,6.41c-.11,0-.14-.06-.15-.09l-1.92-3.78h.09l4.55-.37,0,.08-1.27,4s0,.11-.18.12h0l-1.07.09Zm-1.89-3.78,1.84,3.65s0,0,.06,0l1.07-.08s.08,0,.08,0l1.25-3.88Z"/><path class="cls-1" d="M163.76,172.54a.27.27,0,0,1,.31-.31l1.26,0a.91.91,0,0,1,.63.23l6.22,4.89-.16-5.14q0-.18.18-.18l1.41,0c.13,0,.19,0,.2.18l.23,7.37c0,.2-.09.31-.31.31l-1.26,0a.87.87,0,0,1-.63-.22l-6.16-4.92.16,5.16c0,.13-.06.19-.2.19l-1.45.05c-.12,0-.19-.05-.19-.18Z"/><path class="cls-1" d="M164.18,180.14a.21.21,0,0,1-.24-.23l-.23-7.37a.34.34,0,0,1,.08-.27.4.4,0,0,1,.28-.1l1.26,0h0a1,1,0,0,1,.64.23l6.12,4.83-.16-5a.22.22,0,0,1,.24-.25l1.41,0h0a.21.21,0,0,1,.24.23l.24,7.36a.41.41,0,0,1-.09.28.42.42,0,0,1-.27.1l-1.26,0a1,1,0,0,1-.67-.24l-6.07-4.84.16,5a.28.28,0,0,1-.06.18.34.34,0,0,1-.2.07l-1.45,0Zm-.36-7.6.23,7.37c0,.09,0,.12.13.12h0l1.45,0a.24.24,0,0,0,.12,0,.1.1,0,0,0,0-.1l-.16-5.28.09.08,6.17,4.92a.84.84,0,0,0,.59.21l1.26,0a.27.27,0,0,0,.2-.07.25.25,0,0,0,.06-.19l-.24-7.37c0-.09,0-.12-.12-.12h0l-1.41,0c-.1,0-.13,0-.13.13l.17,5.26-.1-.07-6.21-4.9a.87.87,0,0,0-.57-.21h0l-1.26,0a.28.28,0,0,0-.2.07.26.26,0,0,0-.05.19Z"/><path class="cls-1" d="M153.52,179c0-.11.07-.17.19-.16l5.53.06a.36.36,0,0,0,.29-.1l.68-.56a.2.2,0,0,0,.07-.15l.05-3.69a.27.27,0,0,0-.09-.2l-.82-.7a.25.25,0,0,0-.19-.07l-3.8-.05c-.14,0-.21.07-.21.22l0,2.79a.16.16,0,0,1-.2.17h-1.56c-.14,0-.21-.06-.2-.19l.05-3.85c0-.23.13-.34.37-.34l7,.08a.5.5,0,0,1,.32.11l1.7,1.46a.34.34,0,0,1,.11.25l-.06,4.63a.3.3,0,0,1-.12.25l-1.25,1a.49.49,0,0,1-.33.13L153.7,180c-.13,0-.19-.06-.19-.18Z"/><path class="cls-1" d="M161,180.14h0l-7.29-.08a.25.25,0,0,1-.18-.07.18.18,0,0,1-.06-.17V179a.21.21,0,0,1,.24-.22h0l5.53.07a.31.31,0,0,0,.25-.09l.69-.56a.18.18,0,0,0,0-.11l.05-3.69a.2.2,0,0,0-.07-.16l-.81-.7a.21.21,0,0,0-.16,0l-3.8-.05c-.11,0-.15,0-.15.16l0,2.79a.21.21,0,0,1-.24.23h0l-1.56,0a.24.24,0,0,1-.2-.07.22.22,0,0,1-.06-.17l.05-3.85a.38.38,0,0,1,.11-.29.41.41,0,0,1,.31-.1h0l7,.08a.58.58,0,0,1,.35.11l1.7,1.47a.35.35,0,0,1,.13.3l-.06,4.62a.36.36,0,0,1-.13.29l-1.25,1A.59.59,0,0,1,161,180.14ZM153.58,179v.85a.12.12,0,0,0,0,.09.13.13,0,0,0,.1,0L161,180h0a.43.43,0,0,0,.28-.11l1.25-1a.25.25,0,0,0,.1-.21l.06-4.63a.29.29,0,0,0-.09-.21l-1.7-1.46a.45.45,0,0,0-.28-.09l-7-.08h0a.33.33,0,0,0-.24.07.31.31,0,0,0-.07.21l-.05,3.85a.13.13,0,0,0,0,.1.17.17,0,0,0,.12,0l1.56,0h0c.09,0,.13,0,.13-.12l0-2.79a.24.24,0,0,1,.26-.27l3.8,0a.32.32,0,0,1,.23.09l.82.7a.31.31,0,0,1,.1.24l0,3.69a.24.24,0,0,1-.08.19l-.69.56a.38.38,0,0,1-.31.12h0l-5.53-.07h0C153.59,178.86,153.58,178.92,153.58,179Z"/><path class="cls-1" d="M141.51,176.76l-.8-.06-.26,3.16-1.71-.14.06-.69-1.59-.13-.06.69-1.72-.14.28-3.44,4.56.37,0-.62-5.21-.42.09-1.07,12.12,1-.08,1.06L142,175.9l-.05.62,4.6.38-.29,3.44-1.7-.14.05-.69-1.6-.13,0,.69-1.71-.14Zm-2.55-2.7a8.84,8.84,0,0,1-1-.14,4.93,4.93,0,0,1-1-.31,2.54,2.54,0,0,1-.81-.51,1,1,0,0,1-.29-.77,1.37,1.37,0,0,1,.37-.86A1.85,1.85,0,0,1,137,171a4.27,4.27,0,0,1,1.06-.13,11.34,11.34,0,0,1,1.16,0l5,.41a9.49,9.49,0,0,1,1,.15,3.55,3.55,0,0,1,.92.31,1.91,1.91,0,0,1,.66.52,1.07,1.07,0,0,1,.21.79,1.1,1.1,0,0,1-.36.76,2.05,2.05,0,0,1-.8.43,4.63,4.63,0,0,1-1,.16,7.58,7.58,0,0,1-1.07,0Zm-1.66,3.75,1.59.13,0-.58-1.58-.13Zm.3-5.36a.26.26,0,0,0,.15.24,1.52,1.52,0,0,0,.4.15,3.89,3.89,0,0,0,.53.09l.57.06,4.38.36.59,0a2.06,2.06,0,0,0,.51,0,1.06,1.06,0,0,0,.37-.13.31.31,0,0,0,.16-.25.3.3,0,0,0-.11-.24.87.87,0,0,0-.32-.16,3.83,3.83,0,0,0-.45-.1l-.53-.05-4.54-.37-.65,0a2.24,2.24,0,0,0-.53,0,.81.81,0,0,0-.37.13A.37.37,0,0,0,137.6,172.45Zm5.5,5.84,1.6.13.05-.58-1.6-.13Z"/><path class="cls-1" d="M146.37,180.47l-1.94-.16.06-.69-1.37-.11-.06.68-1.94-.15.26-3.17-.57-.05-.26,3.17-1.94-.16.06-.69-1.35-.11-.06.69-2-.16.3-3.68,4.56.38,0-.39-5.21-.43.11-1.29,12.36,1-.11,1.3L142.1,176l0,.38,4.6.38Zm-1.68-.38,1.47.12.26-3.21-4.6-.37.07-.86,5.24.43.07-.82-11.9-1-.06.83,5.21.43-.07.85-4.56-.38-.26,3.21,1.48.12.06-.68,1.82.15,0,.68,1.47.13.26-3.17,1,.09-.26,3.16,1.48.12.05-.69,1.84.15Zm.12-1.55-1.84-.15.07-.81,1.84.15Zm-1.58-.36,1.37.11,0-.34-1.36-.12Zm-4.24-.11-1.82-.15.07-.82,1.82.15Zm-1.57-.37,1.36.11,0-.34-1.36-.11Zm7-3.1-.66,0-4.79-.4a9.28,9.28,0,0,1-1-.14,5.22,5.22,0,0,1-1.06-.32,2.69,2.69,0,0,1-.85-.54,1,1,0,0,1-.32-.86,1.38,1.38,0,0,1,.39-.93,2,2,0,0,1,.85-.47,5,5,0,0,1,1.2-.14c.34,0,.7,0,1.06,0l5,.41a9,9,0,0,1,1,.15,3.79,3.79,0,0,1,.95.32,2.06,2.06,0,0,1,.7.56,1.18,1.18,0,0,1,.24.87,1.22,1.22,0,0,1-.4.84,2.26,2.26,0,0,1-.84.45,4.89,4.89,0,0,1-1.07.17ZM138.16,171a4,4,0,0,0-1.14.13,1.62,1.62,0,0,0-.74.41,1.17,1.17,0,0,0-.33.77.8.8,0,0,0,.26.68,2.39,2.39,0,0,0,.77.5,5.48,5.48,0,0,0,1,.3c.36.07.69.11,1,.14l4.8.39a9.07,9.07,0,0,0,1,0,5,5,0,0,0,1-.16,1.94,1.94,0,0,0,.75-.41,1,1,0,0,0,.32-.68.91.91,0,0,0-.18-.7,1.71,1.71,0,0,0-.62-.5,3.8,3.8,0,0,0-.9-.3,8.42,8.42,0,0,0-1-.14l-5-.41C138.84,171,138.49,171,138.16,171Zm6.14,2.48h-.08l-.6,0-4.38-.36-.57,0a4.51,4.51,0,0,1-.55-.09,1.75,1.75,0,0,1-.43-.17.36.36,0,0,1-.2-.35.5.5,0,0,1,.2-.38,1,1,0,0,1,.43-.15,2.31,2.31,0,0,1,.55,0l.65,0,4.54.37.53.06a2.4,2.4,0,0,1,.48.1,1,1,0,0,1,.35.18.39.39,0,0,1,.15.34.4.4,0,0,1-.21.34,1,1,0,0,1-.41.15A3.09,3.09,0,0,1,144.3,173.5Zm-5.82-1.38-.33,0a.86.86,0,0,0-.32.11.27.27,0,0,0-.11.21h0s0,.07.09.13a1.23,1.23,0,0,0,.36.14l.53.08.56.06,4.38.36.58,0a3.62,3.62,0,0,0,.49,0,1,1,0,0,0,.33-.12.2.2,0,0,0,.1-.16.17.17,0,0,0-.07-.14.76.76,0,0,0-.27-.14,2.63,2.63,0,0,0-.44-.09l-.52-.05-4.54-.37-.64,0Z"/><path class="cls-1" d="M120.56,175.17l.16-1.15,1.5.22.25-1.74,1.75.24-.73,5.23-1.76-.25.33-2.34Zm12.87-2.67-.16,1.12-10.75-1.51.47-3.31,1.75.25-.3,2.19Zm-7.82.64.31.31c.12.13.24.26.36.41l.36.42c.12.14.22.27.31.39a6.76,6.76,0,0,1,.9-.72c.34-.24.68-.45,1-.65l1.33.85-.42.26c.13.11.28.24.45.41s.33.32.47.48l.93-.62a10,10,0,0,1,.94-.53l1.18.92c-.31.18-.63.36-.95.56s-.62.41-.91.62a8.62,8.62,0,0,0-.79.66,3.48,3.48,0,0,0-.59.71L133,178l-.16,1.11-8.14-1.14a2.91,2.91,0,0,1,.21-.67,5.33,5.33,0,0,1,.31-.58c.12-.18.24-.35.36-.5s.23-.3.32-.43a3.51,3.51,0,0,0-.33-.49c-.13-.18-.27-.37-.42-.55s-.31-.37-.47-.55-.31-.34-.46-.48Zm3.06,4.22a3.81,3.81,0,0,1,.43-.62l.48-.52a2.59,2.59,0,0,0-.44-.52c-.17-.16-.36-.34-.57-.52a10.86,10.86,0,0,0-1,.92,3.39,3.39,0,0,0-.73,1Z"/><path class="cls-1" d="M132.89,179.21l-.11,0L124.52,178l0-.12a2.52,2.52,0,0,1,.21-.69,5.7,5.7,0,0,1,.32-.6,5.15,5.15,0,0,1,.37-.51l.27-.37c-.07-.12-.17-.26-.28-.41l-.42-.55-.46-.54c-.13-.14-.25-.27-.37-.38l-.59,4.24-2-.28,0-.12.31-2.22-1.5-.21.19-1.38,1.5.21.25-1.74.11,0,1.88.26-.13.89,1.41-.53,0,.05c.09.08.2.19.32.32l.36.41.36.43c.09.1.16.2.23.29a9,9,0,0,1,.82-.65,12.14,12.14,0,0,1,1-.65l.07,0,1.53,1-.43.28c.1.08.21.19.33.3s.28.28.41.42c.28-.2.57-.39.85-.57a10.65,10.65,0,0,1,.95-.54l.07,0,1.37,1.08-.15.09c-.3.16-.61.34-.95.55a10.63,10.63,0,0,0-.89.61,7.46,7.46,0,0,0-.79.66,2.93,2.93,0,0,0-.47.53l2.36.33Zm-8.1-1.38,7.9,1.11.13-.88-2.5-.35.1-.16a4.08,4.08,0,0,1,.61-.73c.25-.22.51-.45.8-.66s.59-.42.92-.63.54-.33.8-.47l-1-.77a6.92,6.92,0,0,0-.86.49l-.94.62-.09.06-.06-.08c-.14-.16-.29-.32-.46-.48l-.44-.4-.12-.1.39-.25-1.11-.71a11.2,11.2,0,0,0-1,.6,7.34,7.34,0,0,0-.89.72l-.1.09-.08-.11c-.08-.11-.18-.24-.3-.38l-.36-.43-.36-.4a3.18,3.18,0,0,0-.25-.26l-1.2.46.34.35.47.55.43.56a5.27,5.27,0,0,1,.33.5l0,.06,0,.06a4.31,4.31,0,0,1-.32.44,4.89,4.89,0,0,0-.35.5,4.32,4.32,0,0,0-.3.56A2.47,2.47,0,0,0,124.79,177.83Zm-2.92-.21,1.52.21.59-4.16,0,0h0l.11-.79-1.52-.21-.25,1.74-1.5-.21-.13.91,1.5.21v.12Zm6.87-.14-2.1-.29.07-.14a3.67,3.67,0,0,1,.76-1,11.11,11.11,0,0,1,1-.92l.08-.06.07.06.58.53a2.81,2.81,0,0,1,.45.54l0,.07-.06.07-.48.52a3.51,3.51,0,0,0-.42.59ZM127,177l1.62.23a3.73,3.73,0,0,1,.41-.57l.41-.45a2.07,2.07,0,0,0-.37-.42l-.49-.46c-.32.27-.64.55-.94.85A4.17,4.17,0,0,0,127,177Zm6.38-3.25-.11,0-10.87-1.52,0-.12.48-3.43,2,.29,0,.11-.29,2.08,9,1.26ZM122.66,172l10.51,1.47.13-.88-9-1.26,0-.12.29-2.07-1.52-.22Z"/><path class="cls-1" d="M109.26,171.35c-1.62-.34-2.33-1.18-2.06-2.45.39-1.84,1.69-3,4.34-2.4l6.93,1.48-2.28,1.8-5.64-1.2c-.63-.14-.94,0-1,.53q-.1.51.6.66l4.06.86c1.69.36,2.28,1.34,2,2.57-.36,1.72-1.68,2.81-4.28,2.26l-6.47-1.38,2.3-1.82,5.16,1.1c.63.13.93,0,1-.51.07-.34-.13-.53-.61-.63Z"/><path class="cls-1" d="M95.1,167.6c.94-3.44,3.38-4.56,7.5-3.45,3.18.86,4.48,2.42,3.82,4.85-.93,3.44-3.38,4.55-7.5,3.44C95.75,171.58,94.45,170,95.1,167.6Zm2.36.36c-.37,1.35.39,1.85,2.39,2.39,3,.8,3.63.44,4.22-1.72.36-1.35-.41-1.85-2.39-2.39C98.73,165.44,98,165.82,97.46,168Z"/><path class="cls-1" d="M83.3,167.34l2.5-1.54,2.57.86,3-5.78,2.23.75-2.95,5.78L94,168.54l-2.51,1.54Z"/><path class="cls-1" d="M74.72,160.05c1.32-3.31,3.88-4.14,7.84-2.55,3,1.22,4.16,2.92,3.23,5.25-1.32,3.31-3.88,4.13-7.84,2.54C74.9,164.07,73.79,162.38,74.72,160.05Zm2.29.63c-.51,1.3.18,1.88,2.1,2.65,2.85,1.14,3.56.85,4.39-1.22.52-1.29-.19-1.88-2.09-2.65C78.57,158.33,77.84,158.62,77,160.68Z"/><path class="cls-1" d="M68.58,157.4c.17-1.24.3-2.09.41-2.69-.58.39-1.22.78-2.6,1.59l-2.53,1.49a1.7,1.7,0,0,1-1.69.18,1.13,1.13,0,0,1-.48-1.57l2.71-7.16,2.1,1-1.1,2.82c-.37.91-.64,1.56-.94,2.2.58-.4,1.23-.81,2.36-1.51L69,152.45a1.57,1.57,0,0,1,1.78-.2c.51.26.78.52.65,1.41l-.36,2.27c-.2,1.23-.31,1.85-.44,2.44.49-.46,1.13-1.07,1.86-1.74l2.4-2.18,2.07,1-6.2,5.43a1.73,1.73,0,0,1-1.9.39,1.17,1.17,0,0,1-.62-1.34Z"/><path class="cls-1" d="M53.22,146.75c1.72-2,3.9-2.21,6.61-.55s3.47,3.34,2.38,5.1a4.8,4.8,0,0,1-.48.66l-3.21,3.77-2-1.23,3.22-3.76a3.68,3.68,0,0,0,.28-.39c.48-.77.13-1.35-1.64-2.43-1.55-.95-2.33-.87-3.14.06L52,151.75l-2-1.24Z"/><path class="cls-1" d="M47,137.43l2.86,2.12.2,3c.07,1,.09,1.51.08,1.87l.87-.91,1.8-1.77,1.89,1.42-6.26,6.15-1.89-1.4L48,146.48c.39-.37.8-.73,1.13-1-.46,0-1.11.11-2.14.17l-3.28.19-2.74-2,4.12,0c1.45,0,2.1,0,2.73,0-.1-.49-.22-1.18-.35-2.41Z"/><path class="cls-1" d="M45,135.51l1.8,1.52-6.66,5.73-1.78-1.52Z"/></g></g></svg>