<svg xmlns="http://www.w3.org/2000/svg" viewBox="0 0 465.51 137.47"><defs><style>.cls-1{fill:#fff;}</style></defs><g id="レイヤー_2" data-name="レイヤー 2"><g id="レイヤー_1-2" data-name="レイヤー 1"><path class="cls-1" d="M202.42,131.74a1.62,1.62,0,0,0-.71-1.38,5.5,5.5,0,0,0-2.34-.75l-3.34-.5a12.25,12.25,0,0,1-5.57-2,4.85,4.85,0,0,1,.68-7.91,12.68,12.68,0,0,1,6.63-1.47,11.6,11.6,0,0,1,6.06,1.32,6,6,0,0,1,2.74,4.07l-4.41.5a3.51,3.51,0,0,0-1.55-1.9,6.32,6.32,0,0,0-3-.57,7.85,7.85,0,0,0-3.21.52,1.66,1.66,0,0,0-1.13,1.53,1.53,1.53,0,0,0,.67,1.34,6.74,6.74,0,0,0,2.43.71l3.94.63a10.37,10.37,0,0,1,5.13,1.91,4.75,4.75,0,0,1,1.6,3.81,4.84,4.84,0,0,1-2.34,4.34,12.68,12.68,0,0,1-6.8,1.5q-9,0-9.7-6.36h4.63a3.1,3.1,0,0,0,1.53,2.22,7.2,7.2,0,0,0,3.56.72,7.49,7.49,0,0,0,3.33-.59A1.86,1.86,0,0,0,202.42,131.74Z"/><path class="cls-1" d="M209.54,127.61a10,10,0,0,1,1.34-5.25,8.76,8.76,0,0,1,3.81-3.4,13.29,13.29,0,0,1,5.86-1.2,13.1,13.1,0,0,1,5.83,1.2,8.72,8.72,0,0,1,3.77,3.4,11,11,0,0,1,0,10.51,8.76,8.76,0,0,1-3.81,3.4,13.29,13.29,0,0,1-5.86,1.2,13.14,13.14,0,0,1-5.82-1.2,8.69,8.69,0,0,1-3.78-3.4A10,10,0,0,1,209.54,127.61Zm4.81,0a6,6,0,0,0,1.62,4.46,7.26,7.26,0,0,0,9.07,0,6.95,6.95,0,0,0,0-8.92,7.29,7.29,0,0,0-9.08,0A5.91,5.91,0,0,0,214.35,127.61Z"/><path class="cls-1" d="M235.11,118.23h4.62V137h-4.62Z"/><path class="cls-1" d="M253,133.26H242.65V130l10.11-11.17h4.29v11.24h2.81l-.45,3.18h-2.36V137h-4Zm0-10.06-6.23,6.88H253Z"/><path class="cls-1" d="M261.33,132.13a4.32,4.32,0,0,1,.92-2.74,5.68,5.68,0,0,1,2.65-1.78,4.17,4.17,0,0,1-2.91-4.07,4.37,4.37,0,0,1,2.05-3.81,9.86,9.86,0,0,1,5.62-1.39,9.7,9.7,0,0,1,5.57,1.37,4.34,4.34,0,0,1,2,3.78,4.13,4.13,0,0,1-.77,2.48,4.73,4.73,0,0,1-2.18,1.64,5.61,5.61,0,0,1,2.67,1.73,4.13,4.13,0,0,1,.93,2.69,4.53,4.53,0,0,1-2.14,4,11.21,11.21,0,0,1-6.16,1.41,11.38,11.38,0,0,1-6.14-1.37A4.43,4.43,0,0,1,261.33,132.13Zm4.23-.42c0,1.6,1.36,2.39,4.07,2.39s4-.79,4-2.39-1.34-2.39-4-2.39S265.56,130.12,265.56,131.71Zm.47-7.83c0,1.51,1.19,2.26,3.58,2.26s3.57-.75,3.57-2.26a1.82,1.82,0,0,0-.92-1.64,6.57,6.57,0,0,0-5.31,0A1.82,1.82,0,0,0,266,123.88Z"/><path class="cls-1" d="M3.13,82.27H0L6.74,67.68h3.38l6.76,14.59H13.65L12.1,78.82H4.64Zm5.27-12L5.64,76.47h5.5Z"/><path class="cls-1" d="M29.26,78.26A1.46,1.46,0,0,0,28.62,77a4.91,4.91,0,0,0-2.09-.67L24,75.93a9.16,9.16,0,0,1-4.29-1.48,3.71,3.71,0,0,1,.52-6,9.71,9.71,0,0,1,5-1.11,8.88,8.88,0,0,1,4.56,1,4.7,4.7,0,0,1,2.12,3.08L29,71.72a3,3,0,0,0-1.34-1.6,5.37,5.37,0,0,0-2.52-.48,6.75,6.75,0,0,0-2.81.47,1.46,1.46,0,0,0-1,1.35A1.39,1.39,0,0,0,22,72.7a6,6,0,0,0,2.2.66l3,.45a7.6,7.6,0,0,1,3.9,1.45,4,4,0,0,1-.55,6.22,9.33,9.33,0,0,1-5.09,1.16q-6.93,0-7.44-4.83H21a2.57,2.57,0,0,0,1.33,1.88,6.25,6.25,0,0,0,3.06.62,6.16,6.16,0,0,0,2.86-.53A1.65,1.65,0,0,0,29.26,78.26Z"/><path class="cls-1" d="M35.13,67.68h3V82.27h-3Z"/><path class="cls-1" d="M43.41,82.27H40.28L47,67.68H50.4l6.76,14.59H53.93l-1.55-3.45H44.92Zm5.27-12-2.76,6.22h5.5Z"/><path class="cls-1" d="M56.49,67.68h2.86L57.9,72.81H55.67Z"/><path class="cls-1" d="M72.18,78.26A1.46,1.46,0,0,0,71.54,77a4.91,4.91,0,0,0-2.1-.67l-2.55-.39a9.16,9.16,0,0,1-4.29-1.48,3.71,3.71,0,0,1,.52-6,9.69,9.69,0,0,1,5-1.11,8.83,8.83,0,0,1,4.56,1,4.68,4.68,0,0,1,2.13,3.08L72,71.72a3,3,0,0,0-1.34-1.6,5.44,5.44,0,0,0-2.53-.48,6.79,6.79,0,0,0-2.81.47,1.46,1.46,0,0,0-1,1.35,1.42,1.42,0,0,0,.62,1.24,6,6,0,0,0,2.2.66l3,.45A7.64,7.64,0,0,1,74,75.26a4,4,0,0,1-.55,6.22,9.35,9.35,0,0,1-5.09,1.16q-6.93,0-7.44-4.83h3a2.63,2.63,0,0,0,1.33,1.88,6.29,6.29,0,0,0,3.07.62,6.19,6.19,0,0,0,2.86-.53A1.67,1.67,0,0,0,72.18,78.26Z"/><path class="cls-1" d="M83,75a7.71,7.71,0,0,1,1-4.06,6.91,6.91,0,0,1,2.92-2.66,11.1,11.1,0,0,1,8.92,0,6.8,6.8,0,0,1,2.91,2.65,8.61,8.61,0,0,1,0,8.15,6.94,6.94,0,0,1-2.93,2.66,11.1,11.1,0,0,1-8.92,0A6.8,6.8,0,0,1,84,79.05,7.87,7.87,0,0,1,83,75Zm3.15,0a5,5,0,0,0,1.39,3.78,6.18,6.18,0,0,0,7.72,0,5.84,5.84,0,0,0,0-7.55,6.21,6.21,0,0,0-7.73,0A5,5,0,0,0,86.1,75Z"/><path class="cls-1" d="M107.21,78.88l3.55-11.12h2.95l3.55,11.14,3.31-11.22h3.23l-4.9,14.59h-3.27l-3.48-10.83-3.47,10.83h-3.19l-4.88-14.59h3.31Z"/><path class="cls-1" d="M126,67.68h2.78l8.68,10.46V67.68h2.9V82.27h-2.77l-8.69-10.48V82.27H126Z"/><path class="cls-1" d="M149.51,76.18v-8.5h3v8.68a3.66,3.66,0,0,0,1,2.83,4.36,4.36,0,0,0,3.06.91,4.4,4.4,0,0,0,3.07-.91,3.69,3.69,0,0,0,1-2.83V67.68h3v8.5q0,3.33-1.8,4.89a9.65,9.65,0,0,1-10.55,0A6.17,6.17,0,0,1,149.51,76.18Z"/><path class="cls-1" d="M167.17,67.68H170l8.68,10.46V67.68h2.9V82.27h-2.78l-8.68-10.48V82.27h-2.9Z"/><path class="cls-1" d="M196.51,76.06h-8.27v6.21h-3V67.68h3V73.4h8.27V67.68h3V82.27h-3Z"/><path class="cls-1" d="M203.22,67.68h3V82.27h-3Z"/><path class="cls-1" d="M209.92,67.68h2.78l8.68,10.46V67.68h2.91V82.27h-2.78l-8.69-10.48V82.27h-2.9Z"/><path class="cls-1" d="M226.82,75a7.93,7.93,0,0,1,1-4.16,6.91,6.91,0,0,1,2.91-2.65,9.75,9.75,0,0,1,4.33-.92,8.1,8.1,0,0,1,4.68,1.21,5.89,5.89,0,0,1,2.37,3.22l-3,.39a3.23,3.23,0,0,0-1.46-1.77,5.22,5.22,0,0,0-2.64-.58,5,5,0,0,0-3.79,1.39,5.36,5.36,0,0,0-1.3,3.82,5,5,0,0,0,1.42,3.85,5.74,5.74,0,0,0,4.07,1.32,9.91,9.91,0,0,0,4.23-.81V76.69h-4.19V74.38h7v6.25a10.15,10.15,0,0,1-3.18,1.49,14.37,14.37,0,0,1-3.85.52,10.78,10.78,0,0,1-4.6-.91,6.77,6.77,0,0,1-3-2.61A7.68,7.68,0,0,1,226.82,75Z"/><path class="cls-1" d="M245.52,67.68h12.1v2.37H248.5V73.6h8.67V76H248.5V79.9h9.57l-.37,2.37H245.52Z"/><path class="cls-1" d="M260.83,67.68h6.47q4.15,0,6.33,1.87A6.76,6.76,0,0,1,275.81,75a6.61,6.61,0,0,1-2.31,5.4,10.1,10.1,0,0,1-6.58,1.9h-6.09ZM272.7,75c0-3.18-1.79-4.78-5.38-4.78h-3.51v9.61H267Q272.7,79.78,272.7,75Z"/><path class="cls-1" d="M283.65,75a8,8,0,0,1,1-4,6.85,6.85,0,0,1,2.78-2.71,9.14,9.14,0,0,1,4.36-1q6,0,7.29,5l-3,.36a3.92,3.92,0,0,0-1.53-2.14,5.16,5.16,0,0,0-2.8-.66,4.82,4.82,0,0,0-3.61,1.36A5.2,5.2,0,0,0,286.8,75a5.13,5.13,0,0,0,1.33,3.77,4.88,4.88,0,0,0,3.68,1.36,5.46,5.46,0,0,0,3-.7,3.4,3.4,0,0,0,1.43-2.2h3.05a5.65,5.65,0,0,1-2.31,4,8.76,8.76,0,0,1-5.21,1.41,9.27,9.27,0,0,1-4.39-1A6.71,6.71,0,0,1,284.61,79,8.13,8.13,0,0,1,283.65,75Z"/><path class="cls-1" d="M302,67.68h3V79.74h9l-.39,2.53H302Z"/><path class="cls-1" d="M316.27,76.18v-8.5h3v8.68a3.69,3.69,0,0,0,1,2.83,5.63,5.63,0,0,0,6.14,0,3.69,3.69,0,0,0,1-2.83V67.68h3v8.5q0,3.33-1.8,4.89a9.65,9.65,0,0,1-10.55,0C316.86,80,316.27,78.4,316.27,76.18Z"/><path class="cls-1" d="M333.93,67.68h7c4,0,5.93,1.25,5.93,3.76a3.08,3.08,0,0,1-2.35,3.1c1.95.65,2.92,1.8,2.92,3.48a3.61,3.61,0,0,1-1.57,3.17,8.12,8.12,0,0,1-4.6,1.08h-7.29Zm9.2,2.64a5.23,5.23,0,0,0-2.38-.41h-4V73.6h4.17a4.15,4.15,0,0,0,2.22-.46,1.57,1.57,0,0,0,.72-1.44A1.46,1.46,0,0,0,343.13,70.32Zm1.28,7.6c0-1.45-1.13-2.17-3.37-2.17h-4.27V80H341a5,5,0,0,0,2.61-.5A1.76,1.76,0,0,0,344.41,77.92Z"/><path class="cls-1" d="M355.18,75a8,8,0,0,1,1-4,6.85,6.85,0,0,1,2.78-2.71,9.07,9.07,0,0,1,4.35-1q6,0,7.3,5l-3,.36a3.92,3.92,0,0,0-1.53-2.14,5.11,5.11,0,0,0-2.8-.66,4.82,4.82,0,0,0-3.61,1.36A5.24,5.24,0,0,0,358.33,75a5.17,5.17,0,0,0,1.32,3.77,4.91,4.91,0,0,0,3.68,1.36,5.52,5.52,0,0,0,3-.7,3.44,3.44,0,0,0,1.43-2.2h3a5.62,5.62,0,0,1-2.31,4,8.74,8.74,0,0,1-5.21,1.41,9.2,9.2,0,0,1-4.38-1A6.66,6.66,0,0,1,356.14,79,8.13,8.13,0,0,1,355.18,75Z"/><path class="cls-1" d="M373.39,76.18v-8.5h3v8.68a3.69,3.69,0,0,0,1,2.83,4.4,4.4,0,0,0,3.07.91,4.36,4.36,0,0,0,3.06-.91,3.66,3.66,0,0,0,1-2.83V67.68h3v8.5q0,3.33-1.8,4.89a9.66,9.66,0,0,1-10.56,0Q373.39,79.51,373.39,76.18Z"/><path class="cls-1" d="M391,67.68h3V79.74h9l-.39,2.53H391Z"/><path class="cls-1" d="M408.84,70.21h-5.78V67.68h14.57v2.53h-5.76V82.27h-3Z"/><path class="cls-1" d="M419.59,76.18v-8.5h3v8.68a3.66,3.66,0,0,0,1,2.83,4.36,4.36,0,0,0,3.06.91,4.4,4.4,0,0,0,3.07-.91,3.69,3.69,0,0,0,1-2.83V67.68h3v8.5a6.17,6.17,0,0,1-1.79,4.89,9.66,9.66,0,0,1-10.56,0A6.17,6.17,0,0,1,419.59,76.18Z"/><path class="cls-1" d="M436.84,67.68h7.09c4,0,6,1.52,6,4.58a4.08,4.08,0,0,1-.7,2.47,4.39,4.39,0,0,1-2,1.49l3.62,6h-3.33l-3.17-5.46h-4.62v5.46h-2.88ZM447,72.24a1.91,1.91,0,0,0-.76-1.7,4.5,4.5,0,0,0-2.45-.51h-4v4.43h4a4.43,4.43,0,0,0,2.44-.54A1.88,1.88,0,0,0,447,72.24Z"/><path class="cls-1" d="M453,67.68h12.1v2.37H456V73.6h8.66V76H456V79.9h9.56l-.37,2.37H453Z"/><path class="cls-1" d="M144.06,52.48h-13.3L154.42,0h14.85l23.67,52.48H179.27l-4.85-11.17H148.69Zm17.57-42.12-8.9,21.1H170.6Z"/><path class="cls-1" d="M200.14,0h24q15.3,0,23.23,6.69t7.94,19.55q0,12.57-8.34,19.4T223,52.48H200.14ZM242,26.17q0-15.74-17.79-15.73H212.93V42h10.44Q242,42,242,26.17Z"/><path class="cls-1" d="M264.75,0h14.92l17.86,38.59L315.32,0h14.55V52.48H317.82V17.79L302.09,52.48h-9.78L276.58,17.86V52.48H264.75Z"/></g></g></svg>