<svg xmlns="http://www.w3.org/2000/svg" viewBox="0 0 1719.98 931.83"><defs><style>.cls-1,.cls-2,.cls-3,.cls-4,.cls-5,.cls-6,.cls-7,.cls-8{fill:#fff;stroke:#fff;stroke-miterlimit:10;}.cls-1{stroke-width:7.55px;}.cls-2{stroke-width:4.31px;}.cls-3{stroke-width:3.23px;}.cls-4{stroke-width:2.05px;}.cls-5{stroke-width:1.08px;}.cls-6{stroke-width:0.54px;}.cls-7{stroke-width:5.39px;}.cls-8{stroke-width:6.47px;}</style></defs><g id="レイヤー_2" data-name="レイヤー 2"><g id="レイヤー_1-2" data-name="レイヤー 1"><path class="cls-1" d="M242,100.61H139.84v38H124.32v-67c0-13.84,10.83-25,24.25-25H242v16H139.84v22H242Z"/><path class="cls-1" d="M382.88,113.62c0,13.84-10.84,25-24.26,25H289.41c-13.42,0-24.25-11.17-24.25-25v-67h15.52v76h86.67v-76h15.53Z"/><path class="cls-1" d="M523.12,46.59v75.54a17.67,17.67,0,0,1-17.47,18,17.22,17.22,0,0,1-12.45-5.33L420,58.09v80.54H404.43V63.09a17.66,17.66,0,0,1,17.46-18,17.22,17.22,0,0,1,12.45,5.33l73.25,76.71V46.59Z"/><path class="cls-1" d="M561,138.63H545.49v-92H561Zm104.78,0H632l-57.73-30.35a18.2,18.2,0,0,1,0-32l56.44-29.68h33.95L577.34,92.28Z"/><path class="cls-1" d="M798.11,113.62c0,13.84-10.83,25-24.25,25H704.65c-13.42,0-24.25-11.17-24.25-25v-42c0-13.84,10.83-25,24.25-25h69.21c13.42,0,24.25,11.17,24.25,25Zm-15.52,9v-60H695.92v60Z"/><path class="cls-1" d="M929.84,62.59H879.39v76H863.87v-76H813.42v-16H929.84Z"/><path class="cls-2" d="M1108.93,139.76h-25V88.67c-5.8,8.34-20.61,10-34.55,11.26-14.52,1.46-27.59,3.13-27.59,14.39,0,9.17,11,12.93,23.81,12.93a66.34,66.34,0,0,0,20.62-3.13v14.6c-9.87,2.29-18,2.71-27.59,2.71-24.1,0-41.23-8.55-41.23-24.4,0-22.52,25.56-26.27,48.79-29C1066,86,1084,84.5,1084,73.66c0-8.76-7.84-16.89-30.2-16.89-19.16,0-32.81,7.3-37.74,19.81l-19.75-7.51c6.68-15.85,30.78-27.32,60.4-27.32a74.94,74.94,0,0,1,25.84,4.38l33.69-7.71,4.64,13.76-23.23,4c7.84,4.59,11.33,12.3,11.33,26.49Z"/><path class="cls-2" d="M1176.58,73.87c0-15.43-11.61-18.14-20.91-18.14-7.55,0-13.65,1.46-21.19,4.17l-5.81-12.1c8.13-3.33,20.61-6,33.68-6,21.2,0,37.75,7.72,37.75,29.82v68.19h-23.52Z"/><path class="cls-2" d="M1214,112.86c0-10.63,7-20.23,22.36-24.4-14.81-2.92-22.94-11-22.94-20.85,0-12.72,13.35-24.81,38-24.81,10.75,0,21.2,1.87,27.3,4.38l-5.52,13.13a53.57,53.57,0,0,0-18.87-3.12c-11,0-17.13,4.58-17.13,11.46,0,8.14,10.45,12.31,23.23,12.31h7.55V93.89c-19.46,0-29,6-29,17.09,0,9,8.42,15.85,30.78,15.85s33.1-5.42,33.1-22.94v-60h9.29c10.17,0,11.91-.63,15.69-1.46v61.93c0,19.81-14.23,37.53-58.95,37.53C1230,141.84,1214,127.67,1214,112.86Z"/><path class="cls-2" d="M1340.93,112.86c0-10.63,7-20.23,22.36-24.4-14.81-2.92-22.94-11-22.94-20.85,0-12.72,13.36-24.81,38-24.81,10.74,0,21.2,1.87,27.3,4.38l-5.52,13.13a53.67,53.67,0,0,0-18.88-3.12c-11,0-17.13,4.58-17.13,11.46,0,8.14,10.45,12.31,23.23,12.31h7.55V93.89c-19.45,0-29,6-29,17.09,0,9,8.42,15.85,30.78,15.85s33.11-5.42,33.11-22.94v-60h9.29c10.16,0,11.9-.63,15.68-1.46v61.93c0,19.81-14.23,37.53-59,37.53C1356.9,141.84,1340.93,127.67,1340.93,112.86Z"/><path class="cls-2" d="M1438.19,2.16h20.91V31.35h-20.91Z"/><path class="cls-2" d="M1469.89,122.24V93.47h21.77v16.89c0,11.26,16.26,16.47,34.85,16.47,21.2,0,39.2-10.22,39.2-35.24,0-23.77-17.42-34.82-38-34.82-21.2,0-37.46,10.22-41.81,23.77l-19.46-6.46c6.1-18.77,31.36-32.33,62.72-32.33,29.91,0,62.14,15.85,62.14,49.84s-32.52,50.25-65,50.25C1505.6,141.84,1481.21,135,1469.89,122.24Z"/><path class="cls-3" d="M156.81,333.42l-62.94-96h24.78l46.59,72.93,45.66-72.93h24.24l-62.4,96Z"/><path class="cls-3" d="M247.17,333.42v-96H269v96Z"/><path class="cls-3" d="M398.83,333.42l-98.14-69.93v69.93h-19v-96h18.88l89.85,65.71V237.45h19.15v96Z"/><path class="cls-3" d="M535.56,333.42,489.9,260.36l-46.6,73.06H418.93l62.8-96H497.8l62.39,96Z"/><path class="cls-3" d="M689.84,333.42v-42H618.07v42H596.25v-96h21.82V274h71.77V237.45h22v96Z"/><path class="cls-3" d="M755.29,333.42c-22,0-30.26-9.41-30.26-23.17V260.63c0-13.77,8.3-23.18,30.26-23.18h63.87c22,0,30.26,9.41,30.26,23.18v49.62c0,13.76-8.3,23.17-30.26,23.17Zm72.31-73.06c0-3.82-3-5.59-8.44-5.59H755.29c-5.49,0-8.44,1.77-8.44,5.59v50c0,3.95,2.95,5.59,8.44,5.59h63.87c5.49,0,8.44-1.64,8.44-5.59Z"/><path class="cls-3" d="M961.13,237.45H983v72.8c0,13.76-8.3,23.17-30.26,23.17H892.57c-22,0-30.26-9.41-30.26-23.17v-72.8h21.82v72.93c0,3.95,3,5.59,8.44,5.59h60.12c5.49,0,8.44-1.64,8.44-5.59Z"/><path class="cls-3" d="M998.37,333.42V316h83.83c6.15,0,8.56-1.09,8.56-5.72V296.48c0-4.36-2.54-5.86-8.56-5.86h-56.38c-22.09,0-30.53-9.41-30.53-23.31v-6.55c0-13.9,8.44-23.31,30.53-23.31h81.55v17.32h-81.55c-5.76,0-8.7,1.5-8.7,5.86v6.81c0,4.09,2.54,5.86,8.7,5.86h56.38c22.09,0,30.52,9.41,30.52,23.31V310c0,13.91-8.43,23.45-30.52,23.45Z"/><path class="cls-3" d="M1124.8,333.42v-96h99.35v17.32h-77.53V274H1220v17.44h-73.38V316h77.53v17.45Z"/><path class="cls-4" d="M1291.73,278.77a9.24,9.24,0,0,1,3.68-7.25c5.67-4.67,8-11.92,8-20.52,0-3.32.83-3.93,1.5-3.93,2.17,0,7.68,12.53,7.68,22.73,0,10.94-6.85,16.22-13,16.22C1292.23,286,1291.73,280.24,1291.73,278.77Zm152.24,12c0,3.69-7.18,4.67-13.36,4.67-5,0-6.34-1.72-6.34-3.68v-1h-61.09v.74c0,3.32-6.68,4.42-12.86,4.42-4,0-6.67-1.1-6.67-3.19v-.49a110.93,110.93,0,0,0,1-12.29v-5.9a49.83,49.83,0,0,0-.67-8.35,9.49,9.49,0,0,1-1.84.12,5.59,5.59,0,0,1-5.84-5.16c-.66-7.25-1.67-9.71-3.34-12.29v11.92c0,19.54.17,41.78.17,41.78,0,19.9,0,21.62.16,24.2,0,1.11.34,7.13.34,8.48,0,1.72-.83,5.28-13.52,5.28-5,0-6.68-1.72-6.68-4.05v-.74c.17-1.72,1.17-22.85,1.17-33.17V248.54c0-7.49-.5-17.32-1.67-23,1.51,0,26.54,1,26.54,4.91,0,1.6-2.33,2.83-6.18,3.32-.16,2.21-.33,5.78-.33,10.32,14.86,5.65,17.2,11.31,17.2,14.38a7.39,7.39,0,0,1-1.84,4.79,161.73,161.73,0,0,1,15.86,4.55h58.92c1.34-1.11,7.18-5.78,9-5.78,1,0,16.35,5.28,16.35,8.85,0,1.59-2,2.82-5.17,3.32-.17,2.33-.17,5.28-.17,5.28,0,1.72.34,4.54.5,6.14l.34,4.79ZM1409.25,299c3.67-2.7,8-5.65,9.68-5.65,2.67,0,18.36,6.88,18.36,10.45,0,1.84-2.5,3.19-7.85,3.32a92.32,92.32,0,0,1-18.36,13.51c12.52,2,26.38,2.58,41.23,2.95,1.51,0,2.17.61,2.17,1s-.83,1.11-2,1.6c-7,3.07-15.19,7-18,10.44a3.59,3.59,0,0,1-3.33,1.48c-.84,0-20.2-1.11-37.73-9.34-25.71,9.22-56.92,10.69-57.75,10.69-1.51,0-2.18-.49-2.18-.86s.67-1.11,2.51-1.47c18.19-3.45,33.72-8.12,46.74-14.5a48.83,48.83,0,0,1-17-19.54c-7.35.12-16,.49-19.36.86a14.36,14.36,0,0,1-3.51-5.9c5.68.86,34,1,34,1Zm20.86-39.56c0,4.18-12,4.55-13.18,4.55-5.18,0-7.35-1.23-7.35-3.57v-.24l.17-.86h-34.22V260c0,3.69-13.35,4.18-13.69,4.18-4,0-6.68-1-6.68-3.2v-.49c.5-1.72,1-7.61,1-13.39v-7.62a81.9,81.9,0,0,0-1.34-13.76,126.27,126.27,0,0,1,21.87,5.65h32c6.51-5.65,8.18-6,8.68-6,1.33,0,17.19,5.78,17.19,9.34,0,1.6-2,2.7-5.34,3.44a18,18,0,0,0-.17,3.2c0,2.58.17,5.4.17,5.4,0,2,.33,5.41.5,7.25.17,1.6.33,4.67.33,5.41ZM1373,272h-10v9.22c0,1.1.17,3.68.17,5.4H1373Zm3.67,31s-2.51,0-6,.12a55,55,0,0,0,22.53,13.39A78.47,78.47,0,0,0,1408.75,303Zm33.38-67.58H1375.2v7.86h34.88Zm-.16,19.53c0-2.58.16-4.42.16-6.63v-1.11H1375.2v.86c0,1.72.16,5.9.16,7v.37h34.56ZM1398.23,272h-9.85v14.62h9.85Zm26.37,0h-10.85v14.62h10.69c0-1.47.16-3.68.16-5.4Z"/><path class="cls-4" d="M1587.32,335.05a40.71,40.71,0,0,0,.5-4.67V330h-45.23c0,1,.33,3.32.33,4.42v.12c0,.74-.5,4.43-13.69,4.43-4.17,0-7.17-1-7.17-3.44v-.49a77,77,0,0,0,1-13.4v-7.86a56.44,56.44,0,0,0-1.51-12.9,172,172,0,0,1,22.21,2c2.67.5,4.34,1.6,4.34,2.95s-2,2.58-5.35,3.2a68.65,68.65,0,0,0-.33,8.6v8h12.19V295.48h-8.52c-7.51,0-26.37.12-32.72.74-2.16-1.23-3.33-4.18-3.5-6.51,6.51.73,30.05,1.47,40.73,1.47h4v-14.5h-2.34c-7,0-20.2.13-26.87.62v.37c0,1.47-9.19,6.14-20.87,11.55V304.7c0,4.79.5,12.65.67,17.32v.49c0,13.27-19.37,16.71-22.2,16.71a4.49,4.49,0,0,1-4.35-2.45c-2-5.16-10.34-8.6-14.19-9.71-1.33-.37-2.5-1-2.5-1.72s1.17-1.11,2.17-1.11a3.13,3.13,0,0,1,1,.13A76.25,76.25,0,0,0,1477,325c4.5,0,8.18-1.84,8.18-5.65V296.71c-2.34.86-4.68,1.84-7.18,2.7v.37c0,2.71-1.34,4.43-3,4.43-4.84,0-12.85-16.84-13.52-19.3a207.4,207.4,0,0,0,23.71-1.84V257.88a179.72,179.72,0,0,0-18.7.74,8.34,8.34,0,0,1-3.17-6c5.17.61,14.36,1,21.87,1.11v-8.48c0-5.41-.67-15-1.84-19.54,3.17,0,27.54.62,27.54,4.55,0,1.47-2.34,2.58-6,3.19-.17,2.7-.33,10.69-.33,20.15a42.93,42.93,0,0,1,6.34-8.48,3,3,0,0,1,1.51-.49c2.17,0,11.68,7.87,11.68,11.06,0,1.6-1.5,2.21-3,2.21h-16.52v22.49c6-1.11,12-2.34,17.36-3.69a4.44,4.44,0,0,1,1.17-.12,9.44,9.44,0,0,1-2.5-5.53c6.5.74,25.53,1.35,36.22,1.35h26.87a67.05,67.05,0,0,1,10.68-9.58,2.74,2.74,0,0,1,1.34-.37c2,0,17.86,8.48,17.86,11.92,0,1.47-1.5,2.33-3.5,2.33h-34.89v14.5h14.52c1.84-2.21,7-8.11,11.35-10.94a2.81,2.81,0,0,1,1.34-.36c3.17,0,19.36,9.83,19.36,13.27,0,1.47-1.84,2.33-3.67,2.33h-42.9v30.11h12.68V314a60.35,60.35,0,0,0-1.5-13.39,178.17,178.17,0,0,1,22.7,2.09c2.67.49,4.34,1.6,4.34,2.95s-2,2.58-5.17,3.2a70.66,70.66,0,0,0-.33,8.72v3.56c0,2.46.33,6.51.5,8.48a45.79,45.79,0,0,1,.33,4.79c0,3.07-7.18,4.55-14,4.55-4.34,0-7.35-1.11-7.35-3.57Zm-8.68-64.27c-.66,0-1.17-.36-1.17-.86a3.59,3.59,0,0,1,.51-1.35c4.67-7.49,9.34-21.5,9.68-27-22.37,1.84-50.42,3.32-70.61,3.44-2.34,0-3.51-.61-3.51-1s.84-1.11,3.17-1.35c31.39-3.93,66.44-12.78,75.12-17.94,7,2.46,21.37,10.32,21.37,13.88,0,1.48-1.67,2.34-3.84,2.34a15.11,15.11,0,0,1-5.18-1.11c-3,.37-6.34.74-9.85,1,8,1.72,20,5.53,20,8.24,0,1.72-2.33,2.45-5.17,2.45a11.19,11.19,0,0,1-2-.12C1597.34,260.59,1580.14,270.78,1578.64,270.78Zm-47.9-8.35c-.67-4.42-1.84-10.45-6.85-14.13-1-.74-1.33-1.35-1.33-1.6s.5-.74,1.5-.74c3.34,0,26.54,3.08,26.54,14.5,0,4.55-4.84,9-11,9C1534.41,269.43,1531.24,266.36,1530.74,262.43Zm26.54-2.58c-.17-4.92-1.17-10.2-4.34-13.4a3.07,3.07,0,0,1-1.17-1.59c0-.62.83-.74,1.33-.74,3,0,24,4.42,24,14.87,0,4.91-5,8.6-11.52,8.6A8,8,0,0,1,1557.28,259.85Z"/><path class="cls-5" d="M196,859.71h10.44V820H228.7v8.67h20.68V820H271.8v43.2H212.46V871h67.85v13.32H122.38V871h68.24V863.2H130.69V820h22.23v8.67H173.8V820H196Zm35.76,31a124.36,124.36,0,0,1,13,.78,72.28,72.28,0,0,1,13.82,2.77,33.39,33.39,0,0,1,11,5.63,11.39,11.39,0,0,1,4.55,9.31q0,6.87-3.78,11a23.64,23.64,0,0,1-9.76,6.27,54.05,54.05,0,0,1-13.53,2.78q-7.55.65-15.08.65H166.65a114.77,114.77,0,0,1-13.15-.78,49.7,49.7,0,0,1-12.27-2.91,24.62,24.62,0,0,1-9.09-5.88,13.31,13.31,0,0,1-3.58-9.58,13.56,13.56,0,0,1,3.87-9.89,26.2,26.2,0,0,1,9.86-6.14,60,60,0,0,1,13.24-3.11,112.42,112.42,0,0,1,13.82-.9Zm19.33,18.75a3.17,3.17,0,0,0-2.12-2.84,18.12,18.12,0,0,0-5.32-1.49,65.22,65.22,0,0,0-7.06-.58c-2.58-.09-5-.13-7.34-.13h-57c-2.71,0-5.28.06-7.73.19a35.06,35.06,0,0,0-6.57.91,13.62,13.62,0,0,0-4.64,1.94,3.84,3.84,0,0,0-1.74,3.29,3.39,3.39,0,0,0,1.64,2.92,12.65,12.65,0,0,0,4.25,1.68,34.8,34.8,0,0,0,6,.71c2.25.08,4.54.13,6.86.13h59.15c3,0,5.77-.05,8.41-.13a37,37,0,0,0,6.86-.78,11.63,11.63,0,0,0,4.64-2A4.57,4.57,0,0,0,251.12,909.5ZM173.8,842.38H152.92v7.24H173.8Zm75.58,0H228.7v7.24h20.68Z"/><path class="cls-5" d="M401.53,882.15c-1.29-.86-2.81-2-4.54-3.37s-3.52-2.84-5.32-4.39l-5.41-4.66q-2.72-2.33-4.64-4.27A101.93,101.93,0,0,1,371.28,876q-5.91,5.25-12.09,9.77l-18.56-8.15,4.84-4c-1.81-1.12-4-2.52-6.48-4.2a66,66,0,0,1-6.86-5.24q-5.42,4.79-10.92,9.38a112.89,112.89,0,0,1-11.12,8.21l-16.81-9.44q5.6-4,11.21-8.54T315,854.54a118.79,118.79,0,0,0,9-9.58,45.52,45.52,0,0,0,6.38-9.76H298.5V821.1H405.2a33.86,33.86,0,0,1-1.45,8.6,59.73,59.73,0,0,1-3,7.76,74.49,74.49,0,0,1-3.68,6.86c-1.29,2.11-2.38,4.07-3.29,5.88a60.37,60.37,0,0,0,5,5.5q3.09,3,6.48,6.08t7,6q3.57,2.91,6.86,5.11Zm-99.36,21.47v-14.1H443.09v41.77h-23V903.62Zm52.38-68.42a42.29,42.29,0,0,1-4.44,8.34q-2.72,3.94-5.22,7.31a37.48,37.48,0,0,0,6.57,5.63c2.58,1.76,5.35,3.6,8.31,5.49a150.5,150.5,0,0,0,11.51-13.13,44.84,44.84,0,0,0,7.63-13.64ZM462.8,848.13v14.49H443.09v22h-23v-66h23v29.48Z"/><path class="cls-3" d="M562.66,893.65v1.07c0,6.56,1.18,10.07,4,11.74,3.53,2.14,11.19,3,25.62,3a210.74,210.74,0,0,0,30.48-1.83c5.59-.76,8.39-1.83,10.16-4a14.06,14.06,0,0,0,2.94-8.7c0-5.94-2.5-8.84-9.27-10.37-4.12-.91-4.27-.91-31.07-1.06H581.36c-20.76-.16-28.86-1.83-34.31-7-4.71-4.27-6.92-10.67-6.92-19.67,0-11.29,2.65-20.59,7.37-24.86,6.62-6.41,21.64-8.85,54-8.85,19.73,0,30.33.77,37.1,2.9,12.22,3.66,16.49,10.52,16.49,26.23v2H633.05c-.15-5.95-1.62-9-4.72-10.53-4.12-2-13.54-3.2-24.44-3.2-18.55,0-31.51,1.22-35.93,3.51-3.53,1.67-5.3,5.18-5.3,9.91,0,4.42,1.33,7.32,4.12,9,3.39,2,9,2.59,24.45,2.59h16.64c29.45,0,38.43,1.68,44.61,8.54,4.13,4.42,6,11.13,6,21.2,0,10.67-2.21,18-7.07,22.88-6.47,6.4-19.14,8.54-52.27,8.54-35.34,0-46.38-1.68-52.57-7.78-4.42-4.42-6.33-10.52-6.33-20.13,0-.92,0-3.21.15-5.19Z"/><path class="cls-3" d="M798.85,833.11c4.13,4.73,6.34,11.28,7.22,21.5.44,4.73.59,10.22.59,21.5,0,25.47-2.36,35.23-9.87,42.1-5.45,4.88-12.81,7.32-25.18,8.08-4.71.3-22.53.61-36.22.61-30,0-38.14-.92-46.53-5.64-6.48-3.66-10.75-10.68-12.08-20.75-.88-6.7-1.17-12.19-1.17-28.82,0-23.79,2.2-33.25,9.27-39.65,5.3-4.88,12.22-7.17,24.89-8.24,5-.45,19.73-.76,37.69-.76C782.21,823,791.49,824.87,798.85,833.11ZM698.72,875.05c0,19.82,1.48,26.23,6.92,29.13,5.45,3.05,10.17,3.5,38.29,3.5,25.32,0,31.66-1.06,35.63-5.64,3.39-3.81,4.42-10.37,4.42-27.6,0-31.88-.29-32.18-42.7-32.18C699.31,842.26,698.72,842.72,698.72,875.05Z"/><path class="cls-3" d="M865.41,843.17H819.18V824.11h115v19.06H888.09v82.66H865.41Z"/><path class="cls-3" d="M1071.81,833.11c4.13,4.73,6.34,11.28,7.22,21.5.44,4.73.59,10.22.59,21.5,0,25.47-2.36,35.23-9.87,42.1-5.45,4.88-12.81,7.32-25.18,8.08-4.71.3-22.53.61-36.22.61-30,0-38.14-.92-46.53-5.64-6.48-3.66-10.75-10.68-12.08-20.75-.88-6.7-1.17-12.19-1.17-28.82,0-23.79,2.2-33.25,9.27-39.65,5.3-4.88,12.22-7.17,24.89-8.24,5-.45,19.73-.76,37.69-.76C1055.17,823,1064.45,824.87,1071.81,833.11ZM971.68,875.05c0,19.82,1.48,26.23,6.92,29.13,5.45,3.05,10.17,3.5,38.29,3.5,25.32,0,31.66-1.06,35.63-5.64,3.39-3.81,4.42-10.37,4.42-27.6,0-31.88-.29-32.18-42.7-32.18C972.27,842.26,971.68,842.72,971.68,875.05Z"/><path class="cls-3" d="M1101.4,824.11h35l46.24,76.56,46.08-76.56h34.61V925.83h-22.24l.89-83.72-50.8,83.72h-17.82l-50.51-83.72.59,83.72H1101.4Z"/><path class="cls-3" d="M1407,824.11v64c0,19.37-3,27.3-12.37,32.79-8.39,5-16.79,5.95-51.54,5.95-34,0-44.32-2.14-51.53-10.52-5-6-6.49-13-6.49-31.73V824.11h22.68v53.23c0,13.57,0,13.57.74,17.84,1.62,10.82,7.36,12.81,36.81,12.81,13.25,0,25.47-.61,28.86-1.53,5.74-1.52,8.83-5.18,9.72-11.59.3-1.83.3-1.83.44-16V824.11Z"/><path class="cls-3" d="M1428.3,824.11H1451v40.57h16.49l50.06-40.57h32.54l-62.43,50,67.29,51.7h-34l-53.9-42.4h-16v42.4H1428.3Z"/><path class="cls-3" d="M1570.53,824.11h22.68V925.83h-22.68Z"/><path class="cls-6" d="M550.77,634.31a10.14,10.14,0,0,1-1.19,4.14l-37.46,87.24c-.69,1.71-3.41,2.85-4.94,2.85H449.11c-2.55,0-4.09-1-4.94-2.85l-37.46-87.24a10.17,10.17,0,0,1-1.2-4.14v-2c0-1.57.86-2.28,2.56-2.28H434a2.42,2.42,0,0,1,2.39,1.71l35.42,81.1c.17.43.68.72,1.53.72h14.3c1,0,1.71-.29,1.88-.86l35.25-81a2.83,2.83,0,0,1,2.55-1.71h21c1.7,0,2.55.71,2.55,2.28Z"/><path class="cls-6" d="M671.15,720.13a10.06,10.06,0,0,1,1.19,4.13v2c0,1.56-.85,2.28-2.55,2.28H643.9a2.41,2.41,0,0,1-2.38-1.71l-8.17-18.68H561.14l-8,18.68a2.84,2.84,0,0,1-2.55,1.71h-21c-1.7,0-2.56-.72-2.56-2.28v-2a10.08,10.08,0,0,1,1.2-4.13l37.46-87.24c.68-1.71,3.41-2.85,4.94-2.85h58.07c2.55,0,4.09,1,4.94,2.85ZM590.27,645c-1,0-1.71.29-1.88.86L567.28,694h59.94L606.1,645.72c-.17-.43-.68-.72-1.53-.72Z"/><path class="cls-6" d="M714.43,726.26c0,1.56-1,2.28-2.72,2.28H684.63c-1.7,0-2.72-.72-2.72-2.28V632.32c0-1.43,1-2.28,2.72-2.28h27.08c1.7,0,2.72.85,2.72,2.28Z"/><path class="cls-6" d="M798.71,701.17a2.83,2.83,0,0,0,1.2,2.28l10.56,8.26a5.22,5.22,0,0,0,3.4,1.14h58.24c1.7,0,2.56.72,2.56,2.29v11.12c0,1.56-.86,2.28-2.56,2.28h-77a7.43,7.43,0,0,1-4.77-1.57l-22.65-17.82a3.89,3.89,0,0,1-1.53-3.14V632.32c0-1.57.85-2.28,2.72-2.28H796c1.87,0,2.72.71,2.72,2.28Z"/><path class="cls-6" d="M1026.7,720.13a10.06,10.06,0,0,1,1.19,4.13v2c0,1.56-.85,2.28-2.55,2.28H999.45a2.41,2.41,0,0,1-2.38-1.71l-8.17-18.68H916.69l-8,18.68a2.84,2.84,0,0,1-2.55,1.71H885.19c-1.7,0-2.56-.72-2.56-2.28v-2a10.08,10.08,0,0,1,1.2-4.13l37.46-87.24c.68-1.71,3.41-2.85,4.94-2.85H984.3c2.55,0,4.08,1,4.94,2.85ZM945.81,645c-1,0-1.7.29-1.87.86L922.83,694h59.94l-21.12-48.32c-.17-.43-.68-.72-1.53-.72Z"/><path class="cls-6" d="M1170.28,724.69c0,2.56-1.37,3.85-4.26,3.85h-16.86a12.46,12.46,0,0,1-8.34-3l-81.06-63.72v64.44c0,1.56-.85,2.28-2.56,2.28h-18.9c-1.7,0-2.55-.72-2.55-2.28V633.88c0-2.56,1.36-3.84,4.25-3.84h16.86a12.49,12.49,0,0,1,8.35,3l80.37,64V632.32c0-1.57.86-2.28,2.73-2.28h19.41c1.71,0,2.56.71,2.56,2.28Z"/><path class="cls-6" d="M1305.64,642.86c0,1.43-.85,2.14-2.55,2.14h-73.91a5.06,5.06,0,0,0-3.91,1.29l-9,7.12a2.49,2.49,0,0,0-.85,1.86v46.32a2.92,2.92,0,0,0,1.19,2.43l11.07,8.69a3.84,3.84,0,0,0,2.55.86h50.92c1.88,0,2.73-.86,2.73-2.71V675.94c0-1.57.85-2.29,2.55-2.29h20.95c1.87,0,2.72.72,2.72,2.29v48.32c0,2.85-1.7,4.28-4.94,4.28h-93.32a6.94,6.94,0,0,1-4.25-1.29l-23-18.1A3.9,3.9,0,0,1,1183,706V648a3.9,3.9,0,0,1,1.54-3.14l16.52-13.26a6.84,6.84,0,0,1,4.42-1.56h97.58c1.7,0,2.55.71,2.55,2.28Z"/><path class="cls-7" d="M2.7,530.92V433.36H76.44c21.19,0,31.93,9.66,31.93,24.79,0,9.65-4.38,16.28-10.74,18.88,12.71.28,27.69,8.79,27.69,25.79,0,16.72-8.76,28.1-36.87,28.1ZM21.91,449.5v23.35H75.73c8.06,0,13.14-3.75,13.14-11.39,0-8.21-6.5-12-15.11-12Zm0,37.9v26.81h64.7c11.73,0,17.24-4,17.24-13.41,0-9.94-7.49-13.4-17.94-13.4Z"/><path class="cls-7" d="M232.7,433.36h19.21v59.23c0,36.75-20.91,40.35-63.85,40.35-35.61,0-51-6.48-51-40.21V433.36h20.2v60.09c0,18.74,8.47,23.21,34.61,23.21,28.25,0,40.83-3.46,40.83-23.21Z"/><path class="cls-7" d="M267.26,530.92V433.36h72.47c39.13,0,52.27,15.56,52.27,48.85s-13.14,48.71-52.27,48.71Zm72.61-17.15c22.61,0,32.07-8.64,32.07-32.28,0-24.64-9.46-33-32.07-33H286.62v65.28Z"/><path class="cls-7" d="M469.55,534.09c-42.38,0-65.69-12.68-65.69-51.88s23.31-51.88,65.69-51.88,65.69,12.69,65.69,51.88S511.93,534.09,469.55,534.09Zm0-87.76c-33.06,0-45.49,9.08-45.49,35.88s12.43,35.89,45.49,35.89,45.63-9.08,45.63-35.89S502.74,446.33,469.55,446.33Z"/><path class="cls-7" d="M590.34,530.92V450.08h-50V433.36H659.7v16.72H609.55v80.84Z"/><path class="cls-7" d="M771.21,460.31c-2.54-8.79-19.64-15.56-40.68-15.56-27.13,0-39.7,5.62-39.7,15.27,0,12.25,14.55,14,25.14,14,9.89,0,16.53-.72,30.94-.72,24.73,0,41.53,5.76,41.53,27.09,0,19.6-17.23,33.72-60.32,33.72-30.37,0-52.41-8.79-59.47-26.66l18.36-4.9c4.52,10,18.51,16.72,42.52,16.72,26.42,0,38.71-6.77,38.71-16.72,0-10.95-11.86-13.69-24.58-13.69-9.46,0-17.09.87-29.66.87-16.82,0-43.8-4.76-43.8-29s31.79-30.41,60.33-30.41c33.48,0,53.39,10.09,57.77,23.78Z"/><path class="cls-8" d="M965.7,531.71l-31.48-35.92H891.41v35.92H874v-99h69.07c23.65,0,41.06,11,41.06,31.53,0,17.11-12.18,27.58-29.89,30.69l32.94,36.77Zm-23.79-50.49c14.51,0,24.37-4.52,24.37-16.82s-9.86-16.83-24.37-16.83H891.27v33.65Z"/><path class="cls-8" d="M1099.16,507.81H1034l-12.92,23.9h-18.86l55-99h19.15l54.85,99h-19Zm-7.69-14.43-24.82-45.81-24.81,45.81Z"/><path class="cls-8" d="M1250.83,509.5c-9.29,14.57-29.46,25.18-57.32,25.18-40,0-64-19.8-64-52.47s23.94-52.46,63.69-52.46c25,0,42.08,9.05,52.24,19.65l-14.22,9.9c-9-9.9-20.9-14.7-37.87-14.7-28.58,0-46.14,12.72-46.14,37.61s17.84,37.62,47,37.62c17.85,0,32.36-4.53,39.76-15.84V492.68h-42.37V478.11h59.2Z"/><path class="cls-8" d="M1353.59,507.81h-65.15l-12.91,23.9h-18.86l55-99h19.15l54.85,99h-19Zm-7.69-14.43-24.81-45.81-24.81,45.81Z"/><path class="cls-8" d="M1475.76,447.57h-46.28v84.14h-17.41V447.57h-46V432.72h109.69Z"/><path class="cls-8" d="M1552.81,507.81h-65.15l-12.91,23.9h-18.86l55-99H1530l54.85,99h-19Zm-7.69-14.43-24.81-45.81-24.81,45.81Z"/><path class="cls-8" d="M1691.56,531.71l-44-50.06-30.32,23.9v26.16h-17.41v-99h17.41V487l69.07-54.3h23.5l-49,39,52.09,60Z"/></g></g></svg>