<svg xmlns="http://www.w3.org/2000/svg" viewBox="0 0 1389.21 325.76"><defs><style>.cls-1{fill:#fff;}</style></defs><g id="レイヤー_2" data-name="レイヤー 2"><g id="レイヤー_1-2" data-name="レイヤー 1"><path class="cls-1" d="M200.78,0h13.11l20.87,85.66h-14L217.2,68.58H197.47l-3.55,17.08h-14Zm13.95,56.48-7.4-35.91-7.39,35.91Z"/><path class="cls-1" d="M263.22,22.26h12.16V27c2.7-3.61,5.95-5.72,10.7-5.72s7.58,1.33,10.17,3.92c5.17,5.17,5.35,14.61,5.35,28.75s-.18,23.52-5.35,28.69a13,13,0,0,1-9.93,4,12.46,12.46,0,0,1-10.46-5.11v26.4H263.22Zm14.62,51.31a5.82,5.82,0,0,0,4.33,1.74,6,6,0,0,0,5.3-3.31c1.2-2.4,1.5-6.67,1.5-18s-.3-15.64-1.5-18.11a6,6,0,0,0-5.3-3.25,5.79,5.79,0,0,0-4.33,1.75c-1.32,1.26-2,3.13-2,5.89V67.61C275.86,70.38,276.52,72.3,277.84,73.57Z"/><path class="cls-1" d="M312.25,0h12.64V26.41a14.45,14.45,0,0,1,4.69-3.85,15,15,0,0,1,16.18,2.7c3.67,3.67,4.45,7.76,4.45,14.5v45.9H337.52V40.06c0-5-2.71-7.46-6.32-7.46s-6.31,2.47-6.31,7.46v45.6H312.25Z"/><path class="cls-1" d="M366.58,82c-5.54-5.6-6.14-15.34-6.14-28s.6-22.44,6.14-28c3.49-3.49,8.06-4.64,13.29-4.64s9.87,1.15,13.29,4.64c5.6,5.59,6.14,15.34,6.14,28s-.54,22.43-6.14,28c-3.42,3.43-8.06,4.63-13.29,4.63S370.07,85.42,366.58,82Zm9.14-8.36a5.68,5.68,0,0,0,4.15,1.68,5.9,5.9,0,0,0,4.21-1.68c2.23-2.23,2.59-6.14,2.59-19.67s-.36-17.45-2.59-19.73a6.08,6.08,0,0,0-4.21-1.63,5.84,5.84,0,0,0-4.15,1.63c-2.28,2.28-2.65,6.19-2.65,19.73S373.44,71.4,375.72,73.63Z"/><path class="cls-1" d="M417.29,80.37c-2.58-2.53-4.81-6.74-4.81-13.84V33.63h-6.55V24h6.55V6.08h12.63V24H434v9.63h-8.91V65.75c0,6,2.95,8.6,9,8.6h.12V85.66h-1C424.93,85.66,420.3,83.43,417.29,80.37Z"/><path class="cls-1" d="M447.08,82c-5.54-5.6-6.14-15.34-6.14-28s.6-22.44,6.14-28c3.48-3.49,8.06-4.64,13.29-4.64s9.86,1.15,13.29,4.64c5.6,5.59,6.14,15.34,6.14,28s-.54,22.43-6.14,28c-3.43,3.43-8.06,4.63-13.29,4.63S450.56,85.42,447.08,82Zm9.14-8.36a5.66,5.66,0,0,0,4.15,1.68,5.92,5.92,0,0,0,4.21-1.68c2.22-2.23,2.59-6.14,2.59-19.67s-.37-17.45-2.59-19.73a6.09,6.09,0,0,0-4.21-1.63,5.82,5.82,0,0,0-4.15,1.63c-2.29,2.28-2.65,6.19-2.65,19.73S453.93,71.4,456.22,73.63Z"/><path class="cls-1" d="M493.94,103.58c-3.73-3.67-5.05-8.48-5.05-13.65h12.63c0,2.65.42,4.87,1.86,6.31a5.94,5.94,0,0,0,4.52,1.69,5.78,5.78,0,0,0,4.27-1.69c1.8-1.8,2.1-4.75,2.1-8.72v-9A12.21,12.21,0,0,1,504,83.61a13,13,0,0,1-10.05-4c-5.17-5.17-5.41-14.13-5.41-27.19s.24-22.07,5.41-27.24c2.59-2.59,5.53-3.92,10.05-3.92,4.81,0,8.12,2.11,10.82,5.72V22.26H527V87.82c0,7.46-1.56,12.15-5.23,15.82a19.27,19.27,0,0,1-13.83,5.24C502.66,108.88,497.61,107.31,493.94,103.58Zm8.72-34.28A6,6,0,0,0,508,72.61a5.93,5.93,0,0,0,4.33-1.75c1.26-1.26,1.92-3.13,1.92-5.89V40.24c0-2.76-.66-4.63-1.92-5.89A5.7,5.7,0,0,0,508,32.6a6,6,0,0,0-5.36,3.25c-1.2,2.47-1.5,6.74-1.5,16.6C501.16,62.62,501.46,66.89,502.66,69.3Z"/><path class="cls-1" d="M539.48,22.26h12.15v6.8a16.74,16.74,0,0,1,6.56-5.84,19.71,19.71,0,0,1,8.6-1.93h.3V33.63h-3.85c-3.85,0-6.31,1.14-8.18,3s-2.95,4.52-2.95,8.49V85.66H539.48Z"/><path class="cls-1" d="M577.44,82.53c-3.61-3.61-5-8.72-5-15.1,0-5.53,1.74-10.34,5-13.65,4-4,8.84-5.18,15-5.18h5.9V40.06c0-5-2.17-7.64-6-7.64a5.67,5.67,0,0,0-4.33,1.69c-1.45,1.44-2,3.61-2,6.07H573.47a18.81,18.81,0,0,1,5.35-13.77,19.32,19.32,0,0,1,13.66-5.12c6,0,10.34,1.63,13.59,4.88s5.06,7.16,5.06,13.47v46H599.22V80.18a14.65,14.65,0,0,1-4.7,4.7,12.86,12.86,0,0,1-6.79,1.74A13.91,13.91,0,0,1,577.44,82.53Zm14.32-7a6,6,0,0,0,4.39-1.74c1.68-1.69,2.29-4,2.29-6.86V57.57H594.1c-2.7,0-4.87.36-6.68,2.1-1.56,1.57-2.34,4.15-2.34,7.16C585.08,72.54,587.42,75.55,591.76,75.55Z"/><path class="cls-1" d="M623.28,22.26h12.15V27c2.71-3.61,6-5.72,10.71-5.72s7.58,1.33,10.17,3.92c5.17,5.17,5.35,14.61,5.35,28.75s-.18,23.52-5.35,28.69a13,13,0,0,1-9.93,4,12.46,12.46,0,0,1-10.46-5.11v26.4H623.28ZM637.9,73.57a5.81,5.81,0,0,0,4.33,1.74,6,6,0,0,0,5.3-3.31c1.2-2.4,1.5-6.67,1.5-18s-.3-15.64-1.5-18.11a6,6,0,0,0-5.3-3.25,5.78,5.78,0,0,0-4.33,1.75c-1.32,1.26-2,3.13-2,5.89V67.61C635.92,70.38,636.58,72.3,637.9,73.57Z"/><path class="cls-1" d="M672.31,0h12.63V26.41a14.6,14.6,0,0,1,4.7-3.85,15,15,0,0,1,16.18,2.7c3.66,3.67,4.45,7.76,4.45,14.5v45.9H697.58V40.06c0-5-2.71-7.46-6.32-7.46s-6.32,2.47-6.32,7.46v45.6H672.31Z"/><path class="cls-1" d="M721.76.18h14v14h-14ZM722.42,24h12.64V85.66H722.42Z"/><path class="cls-1" d="M751.72,81.87C746,76.15,745.65,65.33,745.65,54s.36-22.26,6.07-28c3.61-3.55,8.18-4.7,13.35-4.7,5.72,0,10.29,1.51,13.48,4.64,3.61,3.67,5.17,9.26,5.41,14.85H771.39c-.06-2.52-.42-5-2-6.55a5.44,5.44,0,0,0-4.27-1.63,6,6,0,0,0-4.21,1.63c-2.23,2.16-2.65,6-2.65,19.73s.42,17.5,2.65,19.67a5.8,5.8,0,0,0,4.21,1.68,5.31,5.31,0,0,0,4.27-1.68c1.56-1.57,1.92-4,2-6.56H784c-.24,5.65-1.8,11.25-5.41,14.86-3.19,3.19-7.76,4.69-13.48,4.69C759.9,86.62,755.33,85.48,751.72,81.87Z"/><path class="cls-1" d="M818.74,82.65c-5.17-5.17-5.41-14.56-5.41-28.69s.24-23.58,5.41-28.75a12.85,12.85,0,0,1,9.86-3.92,12.42,12.42,0,0,1,10.47,5.06V0h12.69V85.66H839.61V80.91c-2.7,3.6-6,5.71-10.71,5.71S821.33,85.24,818.74,82.65ZM827.46,72a6.07,6.07,0,0,0,5.35,3.31,5.93,5.93,0,0,0,4.34-1.74c1.26-1.27,1.92-3.19,1.92-6V40.24c0-2.76-.66-4.63-1.92-5.89a5.89,5.89,0,0,0-4.34-1.75,6,6,0,0,0-5.35,3.25c-1.2,2.47-1.5,6.74-1.5,18.11S826.26,69.6,827.46,72Z"/><path class="cls-1" d="M868.49,82c-5.54-5.6-6.13-15.34-6.13-28s.59-22.44,6.13-28c3.49-3.49,8.06-4.64,13.29-4.64s9.87,1.15,13.3,4.64c5.59,5.59,6.13,15.34,6.13,28s-.54,22.43-6.13,28c-3.43,3.43-8.06,4.63-13.3,4.63S872,85.42,868.49,82Zm9.14-8.36a5.69,5.69,0,0,0,4.15,1.68A5.94,5.94,0,0,0,886,73.63c2.22-2.23,2.58-6.14,2.58-19.67s-.36-17.45-2.58-19.73a6.12,6.12,0,0,0-4.22-1.63,5.86,5.86,0,0,0-4.15,1.63C875.35,36.51,875,40.42,875,54S875.35,71.4,877.63,73.63Z"/><path class="cls-1" d="M916,81.87c-5.72-5.72-6.08-16.54-6.08-27.91S910.3,31.7,916,26c3.61-3.55,8.18-4.7,13.35-4.7,5.72,0,10.29,1.51,13.48,4.64,3.61,3.67,5.17,9.26,5.41,14.85H935.69c-.06-2.52-.42-5-2-6.55a5.42,5.42,0,0,0-4.27-1.63,6,6,0,0,0-4.21,1.63c-2.23,2.16-2.65,6-2.65,19.73s.42,17.5,2.65,19.67a5.82,5.82,0,0,0,4.21,1.68,5.29,5.29,0,0,0,4.27-1.68c1.57-1.57,1.93-4,2-6.56h12.57c-.24,5.65-1.8,11.25-5.41,14.86-3.19,3.19-7.76,4.69-13.48,4.69C924.2,86.62,919.63,85.48,916,81.87Z"/><path class="cls-1" d="M962.1,82.65c-3.67-3.67-4.45-7.82-4.45-14.5V22.26h12.63V67.85c0,5,2.77,7.46,6.38,7.46S983,72.85,983,67.85V22.26H995.6v63.4H983.45V80.91a15.48,15.48,0,0,1-5.17,4.45,13.34,13.34,0,0,1-6,1.26A13.58,13.58,0,0,1,962.1,82.65Z"/><path class="cls-1" d="M1008.12,22.26h12.15V27a14.34,14.34,0,0,1,5.18-4.45,12.42,12.42,0,0,1,5.77-1.27,14.52,14.52,0,0,1,12,6.5,18,18,0,0,1,5.84-4.87,16.48,16.48,0,0,1,7.46-1.63c5.11,0,8.06,1.63,10.34,3.92,3.67,3.72,4.46,7.81,4.46,14.55v45.9h-12.64V40.06c0-5-2.76-7.46-6.31-7.46s-6.32,2.47-6.32,7.46v45.6h-12.69V40.06c0-5-2.71-7.46-6.32-7.46s-6.31,2.47-6.31,7.46v45.6h-12.64Z"/><path class="cls-1" d="M1087.72,81.69c-4.52-4.51-6.14-12.33-6.14-27.73s1.62-23.34,6.14-27.85c3.73-3.73,8.36-4.82,13.29-4.82,5.23,0,9.44,1,13.23,4.82,4.7,4.69,6.2,13.23,6.2,31.1v.36h-26.23c0,9.62.42,13.89,2.65,16.06a5.56,5.56,0,0,0,4.21,1.68,5.86,5.86,0,0,0,4.33-1.62c1.68-1.69,2.1-4.33,2.1-6.62h12.7c-.18,6.14-1.93,11.13-5.72,14.86-3.3,3.31-7.64,4.69-13.41,4.69S1091.45,85.42,1087.72,81.69Zm20.09-33.45c0-7-.37-11.79-2.59-14A5.41,5.41,0,0,0,1101,32.6a5.26,5.26,0,0,0-4.15,1.63c-2.29,2.22-2.59,7-2.65,14Z"/><path class="cls-1" d="M1131.09,22.26h12.15V27a14.85,14.85,0,0,1,5.18-4.45,15,15,0,0,1,16.18,2.7c3.67,3.67,4.45,7.76,4.45,14.5v45.9h-12.69V40.06c0-5-2.71-7.46-6.32-7.46s-6.32,2.47-6.32,7.46v45.6h-12.63Z"/><path class="cls-1" d="M1188.54,80.37c-2.58-2.53-4.81-6.74-4.81-13.84V33.63h-6.55V24h6.55V6.08h12.63V24h8.91v9.63h-8.91V65.75c0,6,3,8.6,9,8.6h.12V85.66h-1C1196.18,85.66,1191.55,83.43,1188.54,80.37Z"/><path class="cls-1" d="M6.14,201.56C.6,196,0,186.22,0,173.53s.6-22.44,6.14-28c3.48-3.48,8.06-4.63,13.29-4.63s9.86,1.15,13.29,4.63c5.6,5.6,6.14,15.34,6.14,28s-.54,22.43-6.14,28c-3.43,3.43-8.06,4.63-13.29,4.63S9.62,205,6.14,201.56Zm9.14-8.36a5.66,5.66,0,0,0,4.15,1.68,5.92,5.92,0,0,0,4.21-1.68c2.22-2.23,2.59-6.14,2.59-19.67s-.37-17.45-2.59-19.73a6.09,6.09,0,0,0-4.21-1.63,5.82,5.82,0,0,0-4.15,1.63c-2.29,2.28-2.65,6.19-2.65,19.73S13,191,15.28,193.2Z"/><path class="cls-1" d="M52,153.19H45.48v-9.62H52V138c0-7.1,2.28-11.37,4.75-13.84,3.07-3,7.58-5.29,15.82-5.29h1v11.31h-.12c-5.83,0-8.78,2.82-8.78,8.36v5h8.9v9.62h-8.9v52H52Z"/><path class="cls-1" d="M110.93,199.93c-2.59-2.52-4.81-6.73-4.81-13.83V153.19H99.56v-9.62h6.56V125.64h12.63v17.93h8.9v9.62h-8.9v32.13c0,6,3,8.6,9,8.6h.13v11.31h-1C118.57,205.23,113.94,203,110.93,199.93Z"/><path class="cls-1" d="M136.5,119.57h12.64V146a14.45,14.45,0,0,1,4.69-3.85,13.21,13.21,0,0,1,6-1.27,13.4,13.4,0,0,1,10.17,4c3.67,3.67,4.45,7.76,4.45,14.5v45.9H161.77v-45.6c0-5-2.71-7.46-6.32-7.46s-6.31,2.47-6.31,7.46v45.6H136.5Z"/><path class="cls-1" d="M190.83,201.26c-4.51-4.51-6.14-12.33-6.14-27.73s1.63-23.34,6.14-27.86c3.73-3.72,8.36-4.81,13.29-4.81,5.23,0,9.44,1,13.24,4.81,4.69,4.7,6.19,13.24,6.19,31.1v.36H197.32c0,9.63.42,13.9,2.65,16.07a5.56,5.56,0,0,0,4.21,1.68,5.85,5.85,0,0,0,4.33-1.62c1.69-1.69,2.11-4.33,2.11-6.62h12.69c-.18,6.13-1.93,11.13-5.71,14.86-3.31,3.31-7.64,4.69-13.42,4.69S194.56,205,190.83,201.26Zm20.09-33.45c0-7-.36-11.79-2.59-14a5.39,5.39,0,0,0-4.21-1.63A5.27,5.27,0,0,0,200,153.8c-2.28,2.22-2.59,7-2.65,14Z"/><path class="cls-1" d="M259.83,202.22c-3.67-3.67-4.45-7.82-4.45-14.5V141.83H268v45.59c0,5,2.77,7.46,6.38,7.46s6.31-2.47,6.31-7.46V141.83h12.63v63.4H281.18v-4.76a15.4,15.4,0,0,1-5.17,4.46,13.34,13.34,0,0,1-6,1.26A13.58,13.58,0,0,1,259.83,202.22Z"/><path class="cls-1" d="M305.85,141.83H318v4.75a14.75,14.75,0,0,1,5.18-4.45,13.21,13.21,0,0,1,6-1.27,13.39,13.39,0,0,1,10.17,4c3.67,3.67,4.45,7.76,4.45,14.5v45.9H331.12v-45.6c0-5-2.71-7.46-6.32-7.46s-6.31,2.47-6.31,7.46v45.6H305.85Z"/><path class="cls-1" d="M355.31,119.75h13.95V133.7H355.31Zm.66,23.82H368.6v61.66H356Z"/><path class="cls-1" d="M394.47,206.19a12.91,12.91,0,0,1-9.87-4c-5.17-5.17-5.41-14.56-5.41-28.69s.24-23.58,5.41-28.76c2.59-2.58,5.54-3.91,10.17-3.91s8,2.11,10.7,5.72v-4.75h12.16v85.65h-12.7v-26.4A12.31,12.31,0,0,1,394.47,206.19Zm-1.15-14.62a6,6,0,0,0,5.36,3.31,5.9,5.9,0,0,0,4.33-1.74c1.26-1.27,1.92-3.19,1.92-6V159.81c0-2.77-.66-4.63-1.92-5.89a5.87,5.87,0,0,0-4.33-1.75,6,6,0,0,0-5.36,3.25c-1.2,2.47-1.5,6.74-1.5,18.11S392.12,189.17,393.32,191.57Z"/><path class="cls-1" d="M434.23,202.22c-3.67-3.67-4.45-7.82-4.45-14.5V141.83h12.63v45.59c0,5,2.77,7.46,6.38,7.46s6.32-2.47,6.32-7.46V141.83h12.63v63.4H455.59v-4.76a15.53,15.53,0,0,1-5.18,4.46,13.31,13.31,0,0,1-6,1.26A13.59,13.59,0,0,1,434.23,202.22Z"/><path class="cls-1" d="M484.47,201.26c-4.51-4.51-6.14-12.33-6.14-27.73s1.63-23.34,6.14-27.86c3.73-3.72,8.36-4.81,13.29-4.81,5.23,0,9.44,1,13.24,4.81,4.69,4.7,6.19,13.24,6.19,31.1v.36H491c0,9.63.42,13.9,2.65,16.07a5.56,5.56,0,0,0,4.21,1.68,5.85,5.85,0,0,0,4.33-1.62c1.69-1.69,2.11-4.33,2.11-6.62H517c-.18,6.13-1.93,11.13-5.71,14.86-3.31,3.31-7.64,4.69-13.42,4.69S488.2,205,484.47,201.26Zm20.09-33.45c0-7-.36-11.79-2.59-14a5.39,5.39,0,0,0-4.21-1.63,5.27,5.27,0,0,0-4.15,1.63c-2.29,2.22-2.59,7-2.65,14Z"/><path class="cls-1" d="M552.87,202.22c-5.18-5.17-5.41-14.56-5.41-28.69s.23-23.58,5.41-28.76a12.87,12.87,0,0,1,9.86-3.91,12.44,12.44,0,0,1,10.47,5.06V119.57h12.69v85.66H573.74v-4.76c-2.7,3.61-6,5.72-10.71,5.72S555.45,204.81,552.87,202.22Zm8.72-10.65a6.07,6.07,0,0,0,5.35,3.31,5.89,5.89,0,0,0,4.33-1.74c1.27-1.27,1.93-3.19,1.93-6V159.81c0-2.77-.66-4.63-1.93-5.89a5.86,5.86,0,0,0-4.33-1.75,5.94,5.94,0,0,0-5.35,3.25c-1.2,2.47-1.5,6.74-1.5,18.11S560.39,189.17,561.59,191.57Z"/><path class="cls-1" d="M600.46,202.1c-3.62-3.61-5-8.72-5-15.1,0-5.53,1.75-10.35,5-13.65,4-4,8.85-5.18,15-5.18h5.9v-8.54c0-5-2.17-7.64-6-7.64a5.68,5.68,0,0,0-4.33,1.69c-1.44,1.44-2,3.6-2,6.07h-12.7A18.78,18.78,0,0,1,601.84,146a19.31,19.31,0,0,1,13.65-5.12c6,0,10.35,1.63,13.6,4.88s5,7.15,5,13.47v46H622.23v-5.48a14.62,14.62,0,0,1-4.69,4.7,12.9,12.9,0,0,1-6.8,1.74A13.92,13.92,0,0,1,600.46,202.1Zm14.31-7a6,6,0,0,0,4.39-1.74c1.69-1.69,2.29-4,2.29-6.86v-9.39h-4.33c-2.71,0-4.88.37-6.68,2.11-1.56,1.56-2.35,4.15-2.35,7.16C608.09,192.11,610.44,195.12,614.77,195.12Z"/><path class="cls-1" d="M646.3,141.83h12.15v4.75a14.72,14.72,0,0,1,5.17-4.45,15,15,0,0,1,16.18,2.7c3.67,3.67,4.45,7.76,4.45,14.5v45.9H671.56v-45.6c0-5-2.71-7.46-6.32-7.46s-6.31,2.47-6.31,7.46v45.6H646.3Z"/><path class="cls-1" d="M700.56,201.44c-5.71-5.72-6.07-16.54-6.07-27.91s.36-22.26,6.07-28c3.61-3.55,8.18-4.7,13.35-4.7,5.72,0,10.29,1.51,13.48,4.63,3.61,3.67,5.17,9.27,5.41,14.86H720.23c-.06-2.52-.42-5-2-6.55a5.42,5.42,0,0,0-4.27-1.63,6,6,0,0,0-4.21,1.63c-2.22,2.16-2.64,5.95-2.64,19.73s.42,17.5,2.64,19.67a5.83,5.83,0,0,0,4.21,1.68,5.29,5.29,0,0,0,4.27-1.68c1.57-1.57,1.93-4,2-6.56H732.8c-.24,5.65-1.8,11.25-5.41,14.86-3.19,3.19-7.76,4.69-13.48,4.69C708.74,206.19,704.17,205.05,700.56,201.44Z"/><path class="cls-1" d="M746.76,201.26c-4.51-4.51-6.13-12.33-6.13-27.73s1.62-23.34,6.13-27.86c3.73-3.72,8.36-4.81,13.3-4.81,5.23,0,9.44,1,13.23,4.81,4.69,4.7,6.2,13.24,6.2,31.1v.36H753.26c0,9.63.42,13.9,2.65,16.07a5.54,5.54,0,0,0,4.21,1.68,5.86,5.86,0,0,0,4.33-1.62c1.68-1.69,2.1-4.33,2.1-6.62h12.7c-.18,6.13-1.93,11.13-5.72,14.86-3.31,3.31-7.64,4.69-13.41,4.69S750.49,205,746.76,201.26Zm20.1-33.45c0-7-.37-11.79-2.59-14a5.41,5.41,0,0,0-4.21-1.63,5.26,5.26,0,0,0-4.15,1.63c-2.29,2.22-2.59,7-2.65,14Z"/><path class="cls-1" d="M811.67,141.83h12.16v4.75a14.21,14.21,0,0,1,5.17-4.45,12.29,12.29,0,0,1,5.77-1.27,14.52,14.52,0,0,1,12,6.5,18,18,0,0,1,5.84-4.87,16.38,16.38,0,0,1,7.46-1.63c5.11,0,8.06,1.63,10.35,3.91,3.66,3.73,4.45,7.82,4.45,14.56v45.9H862.26v-45.6c0-5-2.76-7.46-6.31-7.46s-6.32,2.47-6.32,7.46v45.6H836.94v-45.6c0-5-2.71-7.46-6.32-7.46s-6.31,2.47-6.31,7.46v45.6H811.67Z"/><path class="cls-1" d="M891.15,202.22c-3.67-3.67-4.45-7.82-4.45-14.5V141.83h12.63v45.59c0,5,2.76,7.46,6.38,7.46s6.31-2.47,6.31-7.46V141.83h12.63v63.4H912.5v-4.76a15.49,15.49,0,0,1-5.17,4.46,13.38,13.38,0,0,1-6,1.26A13.57,13.57,0,0,1,891.15,202.22Z"/><path class="cls-1" d="M939.52,201.08c-3.73-3.73-5.24-8.24-5.3-14.32h12.45c.07,2.65.61,4.63,2.17,6.2a6.72,6.72,0,0,0,4.87,1.92,6.44,6.44,0,0,0,7-7c0-4.51-2.41-6.43-6.38-8.36l-8.42-3.91c-7.82-3.61-11-7.94-11-16.36a17.66,17.66,0,0,1,5.35-13.11c3.55-3.55,8.42-5.24,13.83-5.24s9.87,1.39,13.18,4.7,5.35,7.81,5.35,14.19H960.21c0-2.53-.48-4.57-1.87-6a6.32,6.32,0,0,0-4.51-1.75,6.2,6.2,0,0,0-6.61,6.5c0,3.91,1.92,5.65,5.77,7.52l8.18,3.73c8.12,3.67,11.91,8.24,11.91,17.38,0,6.32-1.92,10.53-5.23,13.78-3.67,3.66-8.91,5.29-14.38,5.29C947.64,206.19,942.89,204.45,939.52,201.08Z"/><path class="cls-1" d="M982.23,119.75h14V133.7h-14Zm.66,23.82h12.64v61.66H982.89Z"/><path class="cls-1" d="M1012.19,201.44c-5.72-5.72-6.08-16.54-6.08-27.91s.36-22.26,6.08-28c3.61-3.55,8.18-4.7,13.35-4.7,5.72,0,10.29,1.51,13.48,4.63,3.61,3.67,5.17,9.27,5.41,14.86h-12.57c-.06-2.52-.42-5-2-6.55a5.42,5.42,0,0,0-4.27-1.63,6,6,0,0,0-4.21,1.63c-2.22,2.16-2.65,5.95-2.65,19.73s.43,17.5,2.65,19.67a5.83,5.83,0,0,0,4.21,1.68,5.29,5.29,0,0,0,4.27-1.68c1.57-1.57,1.93-4,2-6.56h12.57c-.24,5.65-1.8,11.25-5.41,14.86-3.19,3.19-7.76,4.69-13.48,4.69C1020.37,206.19,1015.8,205.05,1012.19,201.44Z"/><path class="cls-1" d="M1079.87,201.44c-5.72-5.72-6.08-16.54-6.08-27.91s.36-22.26,6.08-28c3.61-3.55,8.18-4.7,13.35-4.7,5.72,0,10.29,1.51,13.48,4.63,3.61,3.67,5.17,9.27,5.41,14.86h-12.57c-.06-2.52-.42-5-2-6.55a5.42,5.42,0,0,0-4.27-1.63,6,6,0,0,0-4.21,1.63c-2.23,2.16-2.65,5.95-2.65,19.73s.42,17.5,2.65,19.67a5.82,5.82,0,0,0,4.21,1.68,5.29,5.29,0,0,0,4.27-1.68c1.57-1.57,1.93-4,2-6.56h12.57c-.24,5.65-1.8,11.25-5.41,14.86-3.19,3.19-7.76,4.69-13.48,4.69C1088.05,206.19,1083.48,205.05,1079.87,201.44Z"/><path class="cls-1" d="M1126.31,199.93c-2.52-2.46-4.81-6.49-4.81-13.83V119.57h12.63v65.69c0,5.83,2.89,8.66,8.54,8.66h.12v11.31h-.9C1133.59,205.23,1129.2,202.88,1126.31,199.93Z"/><path class="cls-1" d="M1155.25,202.22c-3.67-3.67-4.45-7.82-4.45-14.5V141.83h12.63v45.59c0,5,2.77,7.46,6.38,7.46s6.31-2.47,6.31-7.46V141.83h12.63v63.4H1176.6v-4.76a15.49,15.49,0,0,1-5.17,4.46,13.38,13.38,0,0,1-6,1.26A13.57,13.57,0,0,1,1155.25,202.22Z"/><path class="cls-1" d="M1213.42,200.47v4.76h-12.15V119.57h12.64v26.35a12.57,12.57,0,0,1,10.46-5.06,13,13,0,0,1,9.93,3.91c5.17,5.18,5.35,14.62,5.35,28.76s-.18,23.52-5.35,28.69c-2.59,2.59-5.54,4-10.17,4S1216.13,204.08,1213.42,200.47Zm2.47-7.33a5.81,5.81,0,0,0,4.33,1.74,6,6,0,0,0,5.29-3.31c1.21-2.4,1.51-6.67,1.51-18s-.3-15.64-1.51-18.11a5.91,5.91,0,0,0-5.29-3.25,5.78,5.78,0,0,0-4.33,1.75c-1.32,1.26-2,3.12-2,5.89v27.37C1213.91,190,1214.57,191.87,1215.89,193.14Z"/><path class="cls-1" d="M1252.65,201.08c-3.73-3.73-5.24-8.24-5.3-14.32h12.46c.06,2.65.6,4.63,2.16,6.2a6.72,6.72,0,0,0,4.87,1.92,6.44,6.44,0,0,0,7-7c0-4.51-2.4-6.43-6.38-8.36l-8.42-3.91c-7.82-3.61-11-7.94-11-16.36a17.66,17.66,0,0,1,5.35-13.11c3.55-3.55,8.42-5.24,13.84-5.24s9.86,1.39,13.17,4.7,5.35,7.81,5.35,14.19h-12.39c0-2.53-.48-4.57-1.86-6A6.36,6.36,0,0,0,1267,152a6.2,6.2,0,0,0-6.61,6.5c0,3.91,1.92,5.65,5.77,7.52l8.18,3.73c8.12,3.67,11.91,8.24,11.91,17.38,0,6.32-1.92,10.53-5.23,13.78-3.67,3.66-8.9,5.29-14.38,5.29C1260.77,206.19,1256,204.45,1252.65,201.08Z"/><path class="cls-1" d="M1321.77,201.56c-5.54-5.6-6.14-15.34-6.14-28s.6-22.44,6.14-28c3.49-3.48,8.06-4.63,13.29-4.63s9.87,1.15,13.3,4.63c5.59,5.6,6.13,15.34,6.13,28s-.54,22.43-6.13,28c-3.43,3.43-8.06,4.63-13.3,4.63S1325.26,205,1321.77,201.56Zm9.14-8.36a5.69,5.69,0,0,0,4.15,1.68,5.94,5.94,0,0,0,4.22-1.68c2.22-2.23,2.58-6.14,2.58-19.67s-.36-17.45-2.58-19.73a6.12,6.12,0,0,0-4.22-1.63,5.86,5.86,0,0,0-4.15,1.63c-2.28,2.28-2.64,6.19-2.64,19.73S1328.63,191,1330.91,193.2Z"/><path class="cls-1" d="M1367.67,153.19h-6.55v-9.62h6.55V138c0-7.1,2.29-11.37,4.75-13.84,3.07-3,7.59-5.29,15.82-5.29h1v11.31h-.12c-5.84,0-8.78,2.82-8.78,8.36v5h8.9v9.62h-8.9v52h-12.64Z"/><path class="cls-1" d="M120.53,320c-3.91-3.91-5.3-9.38-5.3-18.46h13.36c0,4.51.36,7.7,2.46,9.86a8.53,8.53,0,0,0,6.2,2.29c2.77,0,4.81-.73,6.19-2.11,2.17-2.16,2.59-5.59,2.59-10s-.3-7.16-1.26-9c-1.08-2.28-2.77-3.55-6.62-5.11l-10.4-4.21c-4.76-1.93-7.83-4.39-9.63-8-1.56-3.19-2.23-7.34-2.23-13.42,0-7.39,1.93-13.53,6.2-17.8,3.91-3.91,9.26-5.83,15.4-5.83,6.31,0,11.79,1.56,15.76,5.47,4.27,4.27,5.71,10.47,5.71,18.53H145.55c0-5.18-.48-7.94-2.47-9.93a7.56,7.56,0,0,0-5.59-2,7.77,7.77,0,0,0-5.6,2c-2.1,2.11-2.58,5.42-2.58,9,0,3.37.18,5.42,1,7.1s2.71,3.13,5.9,4.45l10,4.09c5.42,2.17,8.78,4.76,10.77,8.67,1.8,3.6,2.41,8.48,2.41,15.52,0,8.9-1.15,14.49-5.3,18.7-3.61,3.55-9.26,5.9-16.9,5.9C129.91,325.76,124.62,324.07,120.53,320Z"/><path class="cls-1" d="M174.55,321.13c-5.54-5.6-6.14-15.34-6.14-28s.6-22.43,6.14-28c3.49-3.48,8.06-4.63,13.29-4.63s9.87,1.15,13.3,4.63c5.59,5.6,6.13,15.34,6.13,28s-.54,22.44-6.13,28c-3.43,3.42-8.06,4.63-13.3,4.63S178,324.55,174.55,321.13Zm9.14-8.37a5.66,5.66,0,0,0,4.15,1.69,5.91,5.91,0,0,0,4.22-1.69c2.22-2.22,2.58-6.13,2.58-19.67s-.36-17.44-2.58-19.73a6.16,6.16,0,0,0-4.22-1.62,5.89,5.89,0,0,0-4.15,1.62c-2.28,2.29-2.64,6.2-2.64,19.73S181.41,310.54,183.69,312.76Z"/><path class="cls-1" d="M222,321.79c-3.67-3.67-4.45-7.82-4.45-14.5v-45.9H230.2V307c0,5,2.76,7.46,6.37,7.46s6.32-2.47,6.32-7.46v-45.6h12.63V324.8H243.37V320a15.35,15.35,0,0,1-5.17,4.45,13.26,13.26,0,0,1-6,1.27A13.59,13.59,0,0,1,222,321.79Z"/><path class="cls-1" d="M275.38,319.5c-2.59-2.52-4.81-6.74-4.81-13.83V272.76H264v-9.62h6.56V245.21H283.2v17.93h8.9v9.62h-8.9v32.12c0,6,2.95,8.61,9,8.61h.12V324.8h-1C283,324.8,278.39,322.57,275.38,319.5Z"/><path class="cls-1" d="M301,239.14h12.63v26.4a14.66,14.66,0,0,1,4.69-3.84,15,15,0,0,1,16.18,2.7c3.67,3.67,4.46,7.76,4.46,14.5v45.9h-12.7V279.2c0-5-2.7-7.46-6.31-7.46s-6.32,2.47-6.32,7.46v45.6H301Z"/><path class="cls-1" d="M355.28,320.83c-4.52-4.52-6.14-12.34-6.14-27.74s1.62-23.33,6.14-27.85c3.72-3.73,8.36-4.81,13.29-4.81,5.23,0,9.44,1,13.23,4.81,4.69,4.7,6.2,13.24,6.2,31.1v.36H361.77c0,9.63.42,13.9,2.65,16.06a5.51,5.51,0,0,0,4.21,1.69,5.86,5.86,0,0,0,4.33-1.62c1.68-1.69,2.1-4.34,2.1-6.62h12.7c-.18,6.13-1.93,11.13-5.72,14.86-3.31,3.3-7.64,4.69-13.41,4.69S359,324.55,355.28,320.83Zm20.09-33.45c0-7-.37-11.79-2.59-14a5.44,5.44,0,0,0-4.21-1.62,5.28,5.28,0,0,0-4.15,1.62c-2.29,2.23-2.59,7-2.65,14Z"/><path class="cls-1" d="M400.7,321.67c-3.61-3.61-5-8.73-5-15.1,0-5.54,1.75-10.35,5.05-13.66,4-4,8.85-5.17,15-5.17h5.9V279.2c0-5-2.16-7.64-6-7.64a5.73,5.73,0,0,0-4.33,1.68c-1.44,1.45-2,3.61-2,6.08H396.73a18.8,18.8,0,0,1,5.35-13.78,19.35,19.35,0,0,1,13.65-5.11c6,0,10.35,1.63,13.6,4.87s5.05,7.16,5.05,13.48v46H422.47v-5.48a14.49,14.49,0,0,1-4.69,4.69,12.78,12.78,0,0,1-6.8,1.75A13.92,13.92,0,0,1,400.7,321.67Zm14.31-7a6,6,0,0,0,4.39-1.75c1.69-1.68,2.29-4,2.29-6.85V296.7h-4.33c-2.71,0-4.87.37-6.68,2.11-1.56,1.56-2.34,4.15-2.34,7.16C408.34,311.68,410.68,314.69,415,314.69Z"/><path class="cls-1" d="M448.88,320.64c-3.72-3.72-5.23-8.24-5.29-14.31H456c.06,2.65.6,4.63,2.17,6.19a6.67,6.67,0,0,0,4.87,1.93,6.47,6.47,0,0,0,7-7c0-4.51-2.41-6.44-6.38-8.36l-8.42-3.91c-7.82-3.61-11-7.94-11-16.36a17.67,17.67,0,0,1,5.36-13.12c3.55-3.54,8.42-5.23,13.83-5.23s9.87,1.38,13.17,4.69,5.36,7.82,5.36,14.2H469.58c0-2.53-.48-4.57-1.87-6a6.33,6.33,0,0,0-4.51-1.75,6.21,6.21,0,0,0-6.62,6.5c0,3.91,1.93,5.65,5.78,7.52l8.18,3.73c8.12,3.66,11.91,8.24,11.91,17.38,0,6.32-1.93,10.53-5.23,13.77-3.67,3.67-8.91,5.3-14.38,5.3C457,325.76,452.25,324,448.88,320.64Z"/><path class="cls-1" d="M499.6,319.5c-2.59-2.52-4.81-6.74-4.81-13.83V272.76h-6.56v-9.62h6.56V245.21h12.63v17.93h8.9v9.62h-8.9v32.12c0,6,2.95,8.61,9,8.61h.12V324.8h-1C507.24,324.8,502.61,322.57,499.6,319.5Z"/><path class="cls-1" d="M562,239.14H575.1L596,324.8H582l-3.55-17.09H558.67l-3.54,17.09h-14Zm14,56.48-7.4-35.91-7.4,35.91Z"/><path class="cls-1" d="M605.24,320.64c-3.73-3.72-5.23-8.24-5.29-14.31H612.4c.06,2.65.6,4.63,2.16,6.19a6.71,6.71,0,0,0,4.88,1.93,7,7,0,0,0,5.11-1.87,7,7,0,0,0,1.86-5.17c0-4.51-2.4-6.44-6.37-8.36l-8.42-3.91c-7.82-3.61-11-7.94-11-16.36A17.67,17.67,0,0,1,606,265.66c3.55-3.54,8.43-5.23,13.84-5.23s9.86,1.38,13.17,4.69,5.36,7.82,5.36,14.2h-12.4c0-2.53-.48-4.57-1.86-6a6.33,6.33,0,0,0-4.51-1.75,6.21,6.21,0,0,0-6.62,6.5c0,3.91,1.92,5.65,5.77,7.52l8.18,3.73c8.13,3.66,11.91,8.24,11.91,17.38,0,6.32-1.92,10.53-5.23,13.77-3.67,3.67-8.9,5.3-14.37,5.3C613.36,325.76,608.61,324,605.24,320.64Z"/><path class="cls-1" d="M648,239.32h13.95v14H648Zm.66,23.82h12.63V324.8H648.62Z"/><path class="cls-1" d="M675.81,321.67c-3.61-3.61-5-8.73-5-15.1,0-5.54,1.75-10.35,5.06-13.66,4-4,8.84-5.17,15-5.17h5.89V279.2c0-5-2.16-7.64-6-7.64a5.69,5.69,0,0,0-4.32,1.68c-1.45,1.45-2,3.61-2,6.08H671.84a18.8,18.8,0,0,1,5.35-13.78,19.35,19.35,0,0,1,13.65-5.11c6,0,10.35,1.63,13.6,4.87s5,7.16,5,13.48v46H697.58v-5.48a14.49,14.49,0,0,1-4.69,4.69,12.77,12.77,0,0,1-6.79,1.75A13.93,13.93,0,0,1,675.81,321.67Zm14.31-7a6,6,0,0,0,4.4-1.75c1.68-1.68,2.28-4,2.28-6.85V296.7h-4.33c-2.71,0-4.87.37-6.68,2.11-1.56,1.56-2.34,4.15-2.34,7.16C683.45,311.68,685.79,314.69,690.12,314.69Z"/><path class="cls-1" d="M745.23,321.67c-3.61-3.61-5-8.73-5-15.1,0-5.54,1.74-10.35,5-13.66,4-4,8.84-5.17,15-5.17h5.9V279.2c0-5-2.17-7.64-6-7.64a5.7,5.7,0,0,0-4.33,1.68c-1.45,1.45-2,3.61-2,6.08H741.26a18.84,18.84,0,0,1,5.35-13.78,19.36,19.36,0,0,1,13.66-5.11c6,0,10.34,1.63,13.59,4.87s5.06,7.16,5.06,13.48v46H767v-5.48a14.59,14.59,0,0,1-4.69,4.69,12.8,12.8,0,0,1-6.8,1.75A14,14,0,0,1,745.23,321.67Zm14.32-7a6,6,0,0,0,4.39-1.75c1.68-1.68,2.29-4,2.29-6.85V296.7h-4.34c-2.7,0-4.87.37-6.67,2.11-1.57,1.56-2.35,4.15-2.35,7.16C752.87,311.68,755.22,314.69,759.55,314.69Z"/><path class="cls-1" d="M791.07,261.39h12.15v4.76a14.75,14.75,0,0,1,5.18-4.45,13.21,13.21,0,0,1,6-1.27,13.39,13.39,0,0,1,10.17,4c3.67,3.67,4.45,7.76,4.45,14.5v45.9H816.34V279.2c0-5-2.71-7.46-6.32-7.46s-6.31,2.47-6.31,7.46v45.6H791.07Z"/><path class="cls-1" d="M844.68,321.79c-5.18-5.18-5.42-14.56-5.42-28.7s.24-23.58,5.42-28.75a12.87,12.87,0,0,1,9.86-3.91A12.47,12.47,0,0,1,865,265.48V239.14H877.7V324.8H865.55V320c-2.71,3.61-6,5.72-10.71,5.72S847.26,324.37,844.68,321.79Zm8.72-10.65a6.06,6.06,0,0,0,5.35,3.31,5.89,5.89,0,0,0,4.33-1.74c1.27-1.27,1.93-3.19,1.93-6V279.38c0-2.77-.66-4.63-1.93-5.89a5.86,5.86,0,0,0-4.33-1.75A5.94,5.94,0,0,0,853.4,275c-1.2,2.46-1.51,6.74-1.51,18.1S852.2,308.73,853.4,311.14Z"/><path class="cls-1" d="M912.71,239.14h35.92v12.09h-22.5v24H945.5v12H926.13v25.45h22.5V324.8H912.71Z"/><path class="cls-1" d="M961.45,321.67c-3.61-3.61-5-8.73-5-15.1,0-5.54,1.75-10.35,5-13.66,4-4,8.85-5.17,15-5.17h5.9V279.2c0-5-2.17-7.64-6-7.64a5.73,5.73,0,0,0-4.33,1.68c-1.44,1.45-2,3.61-2,6.08H957.48a18.8,18.8,0,0,1,5.35-13.78,19.35,19.35,0,0,1,13.65-5.11c6,0,10.35,1.63,13.6,4.87s5,7.16,5,13.48v46H983.22v-5.48a14.49,14.49,0,0,1-4.69,4.69,12.78,12.78,0,0,1-6.8,1.75A13.92,13.92,0,0,1,961.45,321.67Zm14.31-7a6,6,0,0,0,4.39-1.75c1.69-1.68,2.29-4,2.29-6.85V296.7h-4.33c-2.71,0-4.87.37-6.68,2.11-1.56,1.56-2.34,4.15-2.34,7.16C969.09,311.68,971.43,314.69,975.76,314.69Z"/><path class="cls-1" d="M1009.63,320.64c-3.72-3.72-5.23-8.24-5.29-14.31h12.45c.06,2.65.6,4.63,2.17,6.19a6.67,6.67,0,0,0,4.87,1.93,6.47,6.47,0,0,0,7-7c0-4.51-2.41-6.44-6.38-8.36l-8.42-3.91c-7.82-3.61-11-7.94-11-16.36a17.7,17.7,0,0,1,5.35-13.12c3.55-3.54,8.43-5.23,13.84-5.23s9.87,1.38,13.17,4.69,5.36,7.82,5.36,14.2h-12.39c0-2.53-.48-4.57-1.87-6a6.33,6.33,0,0,0-4.51-1.75,6.21,6.21,0,0,0-6.62,6.5c0,3.91,1.93,5.65,5.78,7.52l8.18,3.73c8.12,3.66,11.91,8.24,11.91,17.38,0,6.32-1.93,10.53-5.23,13.77-3.67,3.67-8.91,5.3-14.38,5.3C1017.75,325.76,1013,324,1009.63,320.64Z"/><path class="cls-1" d="M1060.35,319.5c-2.59-2.52-4.82-6.74-4.82-13.83V272.76H1049v-9.62h6.55V245.21h12.64v17.93h8.9v9.62h-8.9v32.12c0,6,2.95,8.61,9,8.61h.12V324.8h-1C1068,324.8,1063.35,322.57,1060.35,319.5Z"/><path class="cls-1" d="M1122.73,239.14h13.12l20.87,85.66h-14l-3.55-17.09h-19.73l-3.54,17.09h-14Zm14,56.48-7.4-35.91-7.4,35.91Z"/><path class="cls-1" d="M1166,320.64c-3.73-3.72-5.23-8.24-5.29-14.31h12.45c.06,2.65.6,4.63,2.16,6.19a6.71,6.71,0,0,0,4.88,1.93,7,7,0,0,0,5.11-1.87,7,7,0,0,0,1.86-5.17c0-4.51-2.4-6.44-6.37-8.36l-8.42-3.91c-7.82-3.61-11-7.94-11-16.36a17.67,17.67,0,0,1,5.35-13.12c3.55-3.54,8.42-5.23,13.84-5.23s9.86,1.38,13.17,4.69,5.36,7.82,5.36,14.2h-12.4c0-2.53-.48-4.57-1.86-6a6.33,6.33,0,0,0-4.51-1.75,6.21,6.21,0,0,0-6.62,6.5c0,3.91,1.92,5.65,5.77,7.52l8.18,3.73c8.12,3.66,11.91,8.24,11.91,17.38,0,6.32-1.92,10.53-5.23,13.77-3.67,3.67-8.9,5.3-14.38,5.3C1174.11,325.76,1169.36,324,1166,320.64Z"/><path class="cls-1" d="M1208.7,239.32h14v14h-14Zm.66,23.82H1222V324.8h-12.64Z"/><path class="cls-1" d="M1236.56,321.67c-3.61-3.61-5-8.73-5-15.1,0-5.54,1.75-10.35,5.06-13.66,4-4,8.84-5.17,15-5.17h5.9V279.2c0-5-2.16-7.64-6-7.64a5.69,5.69,0,0,0-4.32,1.68c-1.45,1.45-2,3.61-2,6.08h-12.69a18.8,18.8,0,0,1,5.35-13.78,19.35,19.35,0,0,1,13.65-5.11c6,0,10.35,1.63,13.6,4.87s5,7.16,5,13.48v46h-11.91v-5.48a14.49,14.49,0,0,1-4.69,4.69,12.78,12.78,0,0,1-6.8,1.75A13.92,13.92,0,0,1,1236.56,321.67Zm14.31-7a6,6,0,0,0,4.4-1.75c1.68-1.68,2.28-4,2.28-6.85V296.7h-4.33c-2.71,0-4.87.37-6.68,2.11-1.56,1.56-2.34,4.15-2.34,7.16C1244.2,311.68,1246.54,314.69,1250.87,314.69Z"/></g></g></svg>