<svg xmlns="http://www.w3.org/2000/svg" viewBox="0 0 1129.18 611.76"><defs><style>.cls-1,.cls-2,.cls-3,.cls-4,.cls-5,.cls-6,.cls-7,.cls-8{fill:#fff;stroke:#fff;stroke-miterlimit:10;}.cls-1{stroke-width:4.96px;}.cls-2{stroke-width:2.83px;}.cls-3{stroke-width:2.12px;}.cls-4{stroke-width:1.35px;}.cls-5{stroke-width:0.71px;}.cls-6{stroke-width:0.35px;}.cls-7{stroke-width:3.54px;}.cls-8{stroke-width:4.25px;}</style></defs><g id="レイヤー_2" data-name="レイヤー 2"><g id="レイヤー_1-2" data-name="レイヤー 1"><path class="cls-1" d="M158.9,66.05H91.81V91H81.62V47A16.16,16.16,0,0,1,97.54,30.58H158.9V41.09H91.81V55.54H158.9Z"/><path class="cls-1" d="M251.36,74.59A16.15,16.15,0,0,1,235.44,91H190a16.15,16.15,0,0,1-15.92-16.42v-44h10.19V80.5h56.9V30.58h10.19Z"/><path class="cls-1" d="M343.43,30.58v49.6A11.61,11.61,0,0,1,332,92a11.29,11.29,0,0,1-8.17-3.5L275.7,38.14V91H265.51V41.42A11.59,11.59,0,0,1,277,29.6a11.31,11.31,0,0,1,8.18,3.5l48.09,50.36V30.58Z"/><path class="cls-1" d="M368.31,91H358.12V30.58h10.19Zm68.79,0H414.91L377,71.09a12,12,0,0,1,0-21l37.05-19.49h22.3L379,60.58Z"/><path class="cls-1" d="M524,74.59A16.15,16.15,0,0,1,508,91H462.61a16.15,16.15,0,0,1-15.92-16.42V47a16.16,16.16,0,0,1,15.92-16.43H508A16.16,16.16,0,0,1,524,47ZM513.78,80.5V41.09h-56.9V80.5Z"/><path class="cls-1" d="M610.45,41.09H577.33V91H567.14V41.09H534V30.58h76.44Z"/><path class="cls-2" d="M728,91.75h-16.4V58.21c-3.81,5.48-13.53,6.58-22.68,7.4-9.53,1-18.11,2-18.11,9.44,0,6,7.24,8.49,15.63,8.49A43.67,43.67,0,0,0,700,81.49v9.58a74.64,74.64,0,0,1-18.11,1.78c-15.83,0-27.07-5.61-27.07-16,0-14.78,16.77-17.25,32-19,13-1.37,24.78-2.32,24.78-9.44,0-5.75-5.14-11.09-19.82-11.09-12.58,0-21.54,4.79-24.78,13l-13-4.92c4.39-10.41,20.21-17.94,39.66-17.94a49.07,49.07,0,0,1,17,2.88l22.12-5.07,3.05,9-15.26,2.6c5.15,3,7.44,8.07,7.44,17.38Z"/><path class="cls-2" d="M772.44,48.49c0-10.13-7.63-11.91-13.73-11.91a38.73,38.73,0,0,0-13.92,2.74L741,31.38a61.64,61.64,0,0,1,22.11-4c13.92,0,24.78,5.07,24.78,19.58V91.75H772.44Z"/><path class="cls-2" d="M797,74.09c0-7,4.58-13.27,14.69-16-9.73-1.92-15.07-7.26-15.07-13.69,0-8.35,8.77-16.29,25-16.29,7,0,13.91,1.23,17.92,2.87l-3.63,8.63a35.07,35.07,0,0,0-12.39-2.06c-7.24,0-11.24,3-11.24,7.53,0,5.34,6.86,8.08,15.25,8.08h5v8.49c-12.77,0-19.06,4-19.06,11.22,0,5.89,5.53,10.41,20.21,10.41s21.73-3.56,21.73-15.06V28.78h6.1c6.67,0,7.81-.41,10.3-1V68.48c0,13-9.35,24.64-38.7,24.64C807.51,93.12,797,83.81,797,74.09Z"/><path class="cls-2" d="M880.33,74.09c0-7,4.58-13.27,14.68-16C885.29,56.16,880,50.82,880,44.39c0-8.35,8.77-16.29,25-16.29,7.06,0,13.92,1.23,17.93,2.87l-3.63,8.63a35.07,35.07,0,0,0-12.39-2.06c-7.24,0-11.25,3-11.25,7.53,0,5.34,6.87,8.08,15.25,8.08h5v8.49c-12.77,0-19.06,4-19.06,11.22,0,5.89,5.53,10.41,20.2,10.41s21.74-3.56,21.74-15.06V28.78h6.1c6.67,0,7.81-.41,10.29-1V68.48c0,13-9.34,24.64-38.7,24.64C890.82,93.12,880.33,83.81,880.33,74.09Z"/><path class="cls-2" d="M944.18,1.42h13.73V20.58H944.18Z"/><path class="cls-2" d="M965,80.25V61.36h14.3V72.45c0,7.39,10.67,10.82,22.88,10.82,13.91,0,25.73-6.71,25.73-23.14,0-15.61-11.44-22.86-25-22.86-13.92,0-24.59,6.71-27.45,15.6l-12.77-4.24c4-12.32,20.58-21.22,41.17-21.22,19.64,0,40.8,10.41,40.8,32.72s-21.35,33-42.71,33C988.44,93.12,972.43,88.6,965,80.25Z"/><path class="cls-3" d="M102.94,218.89l-41.31-63H77.89l30.59,47.88,30-47.88h15.91l-41,63Z"/><path class="cls-3" d="M162.27,218.89v-63H176.6v63Z"/><path class="cls-3" d="M261.84,218.89,197.4,173v45.91H184.92v-63h12.4l59,43.13V155.89h12.57v63Z"/><path class="cls-3" d="M351.6,218.89l-30-48-30.59,48H275l41.23-63h10.55l41,63Z"/><path class="cls-3" d="M452.89,218.89V191.33H405.77v27.56H391.44v-63h14.33v24h47.12v-24H467.3v63Z"/><path class="cls-3" d="M495.85,218.89c-14.41,0-19.86-6.17-19.86-15.21V171.1c0-9,5.45-15.21,19.86-15.21h41.94c14.41,0,19.86,6.18,19.86,15.21v32.58c0,9-5.45,15.21-19.86,15.21Zm47.47-48c0-2.51-1.93-3.67-5.53-3.67H495.85c-3.6,0-5.54,1.16-5.54,3.67v32.84c0,2.59,1.94,3.67,5.54,3.67h41.94c3.6,0,5.53-1.08,5.53-3.67Z"/><path class="cls-3" d="M631,155.89h14.33v47.79c0,9-5.45,15.21-19.87,15.21H586c-14.42,0-19.87-6.17-19.87-15.21V155.89h14.33v47.88c0,2.59,1.93,3.67,5.54,3.67h39.47c3.6,0,5.54-1.08,5.54-3.67Z"/><path class="cls-3" d="M655.44,218.89V207.44h55c4,0,5.63-.72,5.63-3.76v-9c0-2.86-1.67-3.85-5.63-3.85h-37c-14.5,0-20-6.17-20-15.3v-4.3c0-9.12,5.54-15.3,20-15.3H727v11.37H673.46c-3.78,0-5.71,1-5.71,3.84v4.48c0,2.68,1.67,3.85,5.71,3.85h37c14.5,0,20,6.17,20,15.3v8.77c0,9.13-5.54,15.39-20,15.39Z"/><path class="cls-3" d="M738.44,218.89v-63h65.23v11.37h-50.9v12.61h48.17v11.46H752.77v16.11h50.9v11.45Z"/><path class="cls-4" d="M848,183a6.05,6.05,0,0,1,2.41-4.75c3.73-3.07,5.27-7.83,5.27-13.48,0-2.17.54-2.58,1-2.58,1.42,0,5,8.23,5,14.93,0,7.18-4.49,10.65-8.55,10.65C848.36,187.78,848,184,848,183Zm100,7.91c0,2.42-4.71,3.07-8.77,3.07-3.29,0-4.17-1.13-4.17-2.42v-.65h-40.1v.49c0,2.17-4.39,2.9-8.44,2.9-2.63,0-4.38-.73-4.38-2.1v-.32a71.88,71.88,0,0,0,.65-8.07V180a32.74,32.74,0,0,0-.44-5.49,5.35,5.35,0,0,1-1.2.09,3.68,3.68,0,0,1-3.84-3.39c-.43-4.76-1.09-6.38-2.19-8.07v7.83c0,12.82.11,27.42.11,27.42,0,13.07,0,14.2.11,15.89,0,.73.22,4.68.22,5.57,0,1.13-.55,3.47-8.88,3.47-3.29,0-4.38-1.13-4.38-2.66v-.49c.11-1.13.77-15,.77-21.78V163.17a88.9,88.9,0,0,0-1.1-15.08c1,0,17.42.64,17.42,3.22,0,1.05-1.53,1.86-4,2.18-.11,1.45-.22,3.79-.22,6.78,9.75,3.71,11.29,7.42,11.29,9.44a4.86,4.86,0,0,1-1.21,3.14,106.56,106.56,0,0,1,10.41,3h38.69c.87-.73,4.71-3.8,5.92-3.8.65,0,10.73,3.47,10.73,5.81,0,1.05-1.31,1.86-3.39,2.18-.11,1.53-.11,3.47-.11,3.47,0,1.13.22,3,.33,4l.22,3.15Zm-22.8,5.41c2.41-1.78,5.26-3.72,6.36-3.72,1.75,0,12.05,4.52,12.05,6.86,0,1.21-1.64,2.1-5.15,2.18a60.53,60.53,0,0,1-12.05,8.87,212,212,0,0,0,27.07,1.94c1,0,1.42.4,1.42.64s-.55.73-1.31,1.05c-4.61,2-10,4.6-11.84,6.86a2.39,2.39,0,0,1-2.19,1,73.58,73.58,0,0,1-24.77-6.13c-16.87,6.05-37.37,7-37.91,7-1,0-1.43-.33-1.43-.57s.44-.73,1.65-1c11.94-2.26,22.13-5.32,30.68-9.52A32,32,0,0,1,896.58,199c-4.82.08-10.52.32-12.71.56a9.32,9.32,0,0,1-2.3-3.87c3.72.56,22.35.65,22.35.65Zm13.7-26c0,2.74-7.89,3-8.66,3-3.39,0-4.82-.81-4.82-2.34v-.17l.11-.56H903.05v.4c0,2.42-8.77,2.75-9,2.75-2.63,0-4.38-.65-4.38-2.1V171a47.89,47.89,0,0,0,.65-8.8v-5a54.17,54.17,0,0,0-.87-9,81.63,81.63,0,0,1,14.35,3.71h21c4.28-3.71,5.37-4,5.7-4,.88,0,11.29,3.8,11.29,6.14,0,1-1.32,1.77-3.51,2.26a11.86,11.86,0,0,0-.11,2.09c0,1.7.11,3.55.11,3.55,0,1.29.22,3.55.33,4.76.11,1.05.22,3.07.22,3.55Zm-37.48,8.23h-6.57v6c0,.72.11,2.42.11,3.55h6.46Zm2.41,20.33s-1.64,0-3.94.08a36.2,36.2,0,0,0,14.79,8.79,51.44,51.44,0,0,0,10.19-8.87Zm21.92-44.37h-22.9v5.16h22.9Zm-.11,12.83c0-1.7.11-2.91.11-4.36v-.73h-22.9v.57c0,1.13.11,3.87.11,4.6v.24h22.68ZM918,178.58h-6.47v9.6H918Zm17.31,0h-7.12v9.6h7c0-1,.11-2.42.11-3.55Z"/><path class="cls-4" d="M1042.09,220a27,27,0,0,0,.33-3.06v-.25h-29.7c0,.65.22,2.18.22,2.91v.08c0,.48-.33,2.9-9,2.9-2.73,0-4.71-.64-4.71-2.26V220a50.21,50.21,0,0,0,.66-8.79V206a36.91,36.91,0,0,0-1-8.47,112.25,112.25,0,0,1,14.58,1.29c1.75.32,2.85,1,2.85,1.93s-1.32,1.7-3.51,2.1a44.47,44.47,0,0,0-.22,5.65v5.24h8V194H1015c-4.93,0-17.31.08-21.48.48a5.53,5.53,0,0,1-2.3-4.28c4.28.49,19.73,1,26.74,1h2.63v-9.52h-1.53c-4.61,0-13.26.08-17.65.41v.24c0,1-6,4-13.69,7.58V200c0,3.14.32,8.31.43,11.37v.32c0,8.71-12.71,11-14.57,11a2.93,2.93,0,0,1-2.85-1.61c-1.32-3.39-6.8-5.65-9.32-6.37-.87-.25-1.64-.65-1.64-1.13s.77-.73,1.43-.73a2.17,2.17,0,0,1,.65.08,48.86,48.86,0,0,0,7.78.41c3,0,5.37-1.21,5.37-3.71V194.79c-1.53.57-3.07,1.21-4.71,1.78v.24c0,1.77-.88,2.9-2,2.9-3.18,0-8.44-11.05-8.88-12.66A137.25,137.25,0,0,0,975,185.84V169.3a115.3,115.3,0,0,0-12.27.49,5.47,5.47,0,0,1-2.08-4c3.39.41,9.42.65,14.35.73V161a67.51,67.51,0,0,0-1.2-12.82c2.08,0,18.08.4,18.08,3,0,1-1.53,1.7-3.95,2.1-.11,1.77-.21,7-.21,13.23a28,28,0,0,1,4.16-5.57,2,2,0,0,1,1-.32c1.42,0,7.67,5.16,7.67,7.26,0,1.05-1,1.45-2,1.45H987.74v14.76c3.94-.72,7.89-1.53,11.39-2.42a2.9,2.9,0,0,1,.77-.08,6.16,6.16,0,0,1-1.64-3.63c4.27.49,16.76.89,23.78.89h17.64a44,44,0,0,1,7-6.29,1.82,1.82,0,0,1,.88-.24c1.32,0,11.73,5.56,11.73,7.82,0,1-1,1.53-2.31,1.53h-22.9v9.52h9.54c1.2-1.45,4.6-5.32,7.45-7.18a1.82,1.82,0,0,1,.87-.24c2.09,0,12.72,6.45,12.72,8.71,0,1-1.21,1.54-2.41,1.54h-28.17v19.76h8.33v-7.58a39.61,39.61,0,0,0-1-8.8,116.15,116.15,0,0,1,14.91,1.38c1.75.32,2.85,1,2.85,1.93s-1.32,1.7-3.4,2.1a45.79,45.79,0,0,0-.22,5.73v2.33c0,1.62.22,4.28.33,5.57a28.84,28.84,0,0,1,.22,3.15c0,2-4.71,3-9.21,3-2.85,0-4.82-.72-4.82-2.34Zm-5.7-42.19c-.44,0-.77-.24-.77-.56a2.33,2.33,0,0,1,.33-.89c3.07-4.92,6.14-14.12,6.36-17.75-14.68,1.21-33.1,2.18-46.35,2.26-1.54,0-2.31-.4-2.31-.64s.55-.73,2.09-.89c20.6-2.58,43.61-8.39,49.31-11.78,4.6,1.62,14,6.78,14,9.12,0,1-1.1,1.53-2.52,1.53a9.79,9.79,0,0,1-3.4-.73c-2,.25-4.16.49-6.47.65,5.26,1.13,13.15,3.63,13.15,5.4,0,1.13-1.53,1.62-3.39,1.62a7.31,7.31,0,0,1-1.32-.08C1048.67,171.08,1037.38,177.77,1036.39,177.77Zm-31.45-5.48c-.44-2.91-1.21-6.86-4.49-9.28-.66-.48-.88-.89-.88-1s.33-.48,1-.48c2.19,0,17.42,2,17.42,9.52,0,3-3.18,5.89-7.23,5.89C1007.35,176.89,1005.27,174.87,1004.94,172.29Zm17.43-1.7c-.11-3.22-.77-6.69-2.85-8.79a2,2,0,0,1-.77-1.05c0-.4.55-.48.87-.48,2,0,15.79,2.9,15.79,9.76,0,3.23-3.29,5.64-7.56,5.64A5.21,5.21,0,0,1,1022.37,170.59Z"/><path class="cls-5" d="M128.69,564.41h6.86V538.34h14.59V544h13.58v-5.69h14.72V566.7h-39v5.09H184v8.75H80.34v-8.75h44.8V566.7H85.8V538.34h14.59V544H114.1v-5.69h14.59Zm23.48,20.37a82.09,82.09,0,0,1,8.51.51,47.46,47.46,0,0,1,9.07,1.83,22,22,0,0,1,7.23,3.69,7.49,7.49,0,0,1,3,6.12,10.29,10.29,0,0,1-2.48,7.21,15.52,15.52,0,0,1-6.41,4.12,35.48,35.48,0,0,1-8.88,1.83q-4.95.42-9.9.42H109.41a75.85,75.85,0,0,1-8.64-.51,32.19,32.19,0,0,1-8-1.91,16.19,16.19,0,0,1-6-3.86,8.73,8.73,0,0,1-2.35-6.29,8.91,8.91,0,0,1,2.54-6.49,17.1,17.1,0,0,1,6.47-4,38.78,38.78,0,0,1,8.7-2,72.63,72.63,0,0,1,9.07-.6Zm12.69,12.32a2.06,2.06,0,0,0-1.39-1.87,12.09,12.09,0,0,0-3.49-1,44,44,0,0,0-4.64-.38c-1.69-.06-3.29-.09-4.82-.09H113.08c-1.77,0-3.47.05-5.07.13a23.08,23.08,0,0,0-4.32.6,9,9,0,0,0-3,1.27,2.52,2.52,0,0,0-1.14,2.16,2.2,2.2,0,0,0,1.07,1.92,8.44,8.44,0,0,0,2.8,1.1,22.76,22.76,0,0,0,3.93.47c1.48.05,3,.08,4.51.08h38.83c1.94,0,3.78,0,5.52-.08a25.44,25.44,0,0,0,4.51-.51,7.76,7.76,0,0,0,3-1.32A3,3,0,0,0,164.86,597.1ZM114.1,553H100.39v4.75H114.1Zm49.62,0H150.14v4.75h13.58Z"/><path class="cls-5" d="M263.61,579.14c-.85-.57-1.84-1.3-3-2.21s-2.3-1.87-3.49-2.89l-3.55-3c-1.19-1-2.2-2-3-2.81a66.6,66.6,0,0,1-6.79,6.92c-2.59,2.3-5.23,4.43-7.94,6.42l-12.18-5.35,3.17-2.64q-1.77-1.1-4.25-2.76a42.18,42.18,0,0,1-4.5-3.44q-3.56,3.15-7.17,6.16a74.29,74.29,0,0,1-7.3,5.39l-11-6.2q3.68-2.62,7.36-5.6t6.92-6.07a81.47,81.47,0,0,0,5.9-6.28,30.22,30.22,0,0,0,4.18-6.41H196v-9.26h70a23.11,23.11,0,0,1-.95,5.65,40.1,40.1,0,0,1-2,5.09,48.5,48.5,0,0,1-2.41,4.5q-1.28,2.09-2.16,3.86a39.58,39.58,0,0,0,3.3,3.61c1.35,1.33,2.77,2.67,4.25,4s3,2.64,4.57,3.91,3.07,2.39,4.5,3.35Zm-65.23,14.09V584h92.51V611.4h-15.1V593.23Zm34.39-44.91a27.67,27.67,0,0,1-2.92,5.47q-1.78,2.6-3.43,4.8a24.63,24.63,0,0,0,4.32,3.69c1.69,1.16,3.51,2.37,5.45,3.61a99.34,99.34,0,0,0,7.56-8.62,29.48,29.48,0,0,0,5-8.95Zm71.07,8.49v9.51H290.89v14.43h-15.1v-43.3h15.1v19.36Z"/><path class="cls-3" d="M369.39,586.69v.7c0,4.31.78,6.61,2.61,7.71,2.32,1.4,7.35,2,16.82,2a139.15,139.15,0,0,0,20-1.2c3.68-.5,5.51-1.2,6.67-2.6a9.21,9.21,0,0,0,1.94-5.71c0-3.9-1.65-5.81-6.09-6.81-2.71-.6-2.81-.6-20.4-.7h-9.28c-13.63-.1-18.95-1.2-22.52-4.6-3.1-2.81-4.55-7-4.55-12.92,0-7.41,1.74-13.52,4.84-16.32,4.34-4.2,14.21-5.81,35.47-5.81,13,0,19.92.5,24.36,1.91,8,2.4,10.83,6.9,10.83,17.22v1.3H415.6c-.1-3.91-1.06-5.91-3.09-6.91-2.71-1.3-8.9-2.1-16.05-2.1-12.18,0-20.69.8-23.59,2.3-2.32,1.1-3.48,3.4-3.48,6.51,0,2.9.87,4.8,2.71,5.91,2.22,1.3,5.9,1.7,16,1.7h10.92c19.33,0,25.23,1.1,29.29,5.61,2.71,2.9,4,7.3,4,13.91,0,7-1.46,11.82-4.65,15-4.25,4.21-12.56,5.61-34.31,5.61-23.2,0-30.45-1.1-34.51-5.11-2.91-2.9-4.16-6.91-4.16-13.22,0-.6,0-2.1.1-3.4Z"/><path class="cls-3" d="M524.45,546.94c2.71,3.11,4.16,7.41,4.74,14.12.29,3.1.39,6.71.39,14.12,0,16.72-1.55,23.12-6.48,27.63-3.58,3.2-8.41,4.81-16.53,5.31-3.09.2-14.79.4-23.78.4-19.72,0-25-.6-30.55-3.71-4.25-2.4-7.06-7-7.93-13.61-.58-4.41-.77-8-.77-18.93,0-15.62,1.45-21.82,6.09-26,3.48-3.2,8-4.7,16.34-5.41,3.28-.3,12.95-.5,24.74-.5C513.53,540.33,519.62,541.54,524.45,546.94Zm-65.73,27.53c0,13,1,17.23,4.54,19.13s6.67,2.3,25.14,2.3c16.62,0,20.78-.7,23.39-3.7,2.22-2.51,2.9-6.81,2.9-18.13,0-20.92-.19-21.12-28-21.12C459.1,553,458.72,553.25,458.72,574.47Z"/><path class="cls-3" d="M568.15,553.55H537.8V541h75.5v12.52H583v54.27H568.15Z"/><path class="cls-3" d="M703.65,546.94c2.71,3.11,4.16,7.41,4.74,14.12.29,3.1.39,6.71.39,14.12,0,16.72-1.55,23.12-6.48,27.63-3.58,3.2-8.41,4.81-16.53,5.31-3.09.2-14.79.4-23.78.4-19.72,0-25-.6-30.55-3.71-4.25-2.4-7.05-7-7.93-13.61-.58-4.41-.77-8-.77-18.93,0-15.62,1.45-21.82,6.09-26,3.48-3.2,8-4.7,16.34-5.41,3.28-.3,13-.5,24.75-.5C692.73,540.33,698.82,541.54,703.65,546.94Zm-65.73,27.53c0,13,1,17.23,4.54,19.13s6.67,2.3,25.14,2.3c16.62,0,20.78-.7,23.39-3.7,2.22-2.51,2.9-6.81,2.9-18.13,0-20.92-.19-21.12-28-21.12C638.31,553,637.92,553.25,637.92,574.47Z"/><path class="cls-3" d="M723.08,541h23l30.35,50.27L806.7,541h22.72v66.79h-14.6l.58-55-33.35,55h-11.7l-33.15-55,.38,55h-14.5Z"/><path class="cls-3" d="M923.67,541v42.06c0,12.71-1.93,17.92-8.12,21.52-5.51,3.31-11,3.91-33.83,3.91-22.33,0-29.1-1.4-33.84-6.91-3.28-3.91-4.25-8.51-4.25-20.83V541h14.89v35c0,8.91,0,8.91.48,11.71,1.06,7.11,4.83,8.41,24.17,8.41,8.7,0,16.72-.4,19-1,3.77-1,5.79-3.4,6.37-7.61.2-1.2.2-1.2.29-10.51V541Z"/><path class="cls-3" d="M937.69,541h14.89v26.64H963.4L996.27,541h21.37l-41,32.85,44.18,33.94H998.5L963.11,580H952.58v27.84H937.69Z"/><path class="cls-3" d="M1031.06,541H1046v66.79h-14.89Z"/><path class="cls-6" d="M361.59,416.43a6.54,6.54,0,0,1-.79,2.71l-24.59,57.28a4,4,0,0,1-3.24,1.87H294.84a3.19,3.19,0,0,1-3.24-1.87L267,419.14a6.54,6.54,0,0,1-.79-2.71v-1.31c0-1,.56-1.5,1.68-1.5h17a1.59,1.59,0,0,1,1.57,1.13L309.71,468c.12.28.45.46,1,.46h9.39c.67,0,1.12-.18,1.23-.56l23.14-53.15a1.87,1.87,0,0,1,1.68-1.13h13.75c1.12,0,1.68.47,1.68,1.5Z"/><path class="cls-6" d="M440.62,472.77a6.6,6.6,0,0,1,.78,2.71v1.31c0,1-.56,1.5-1.68,1.5h-17a1.59,1.59,0,0,1-1.57-1.12l-5.36-12.26H368.4l-5.26,12.26a1.86,1.86,0,0,1-1.68,1.12H347.71c-1.11,0-1.67-.47-1.67-1.5v-1.31a6.6,6.6,0,0,1,.78-2.71l24.59-57.27c.45-1.13,2.24-1.88,3.25-1.88h38.12A3.18,3.18,0,0,1,416,415.5Zm-53.11-49.32c-.67,0-1.11.19-1.23.56l-13.86,31.63h39.35l-13.86-31.72c-.11-.28-.45-.47-1-.47Z"/><path class="cls-6" d="M469,476.79c0,1-.67,1.5-1.79,1.5H449.47c-1.12,0-1.79-.47-1.79-1.5V415.12c0-.94.67-1.5,1.79-1.5h17.77c1.12,0,1.79.56,1.79,1.5Z"/><path class="cls-6" d="M524.36,460.32a1.89,1.89,0,0,0,.78,1.5l6.94,5.43a3.5,3.5,0,0,0,2.23.75h38.24c1.12,0,1.68.46,1.68,1.49v7.3c0,1-.56,1.5-1.68,1.5H522a4.9,4.9,0,0,1-3.14-1L504,465.56a2.54,2.54,0,0,1-1-2.06V415.12c0-1,.56-1.5,1.79-1.5h17.77c1.23,0,1.79.47,1.79,1.5Z"/><path class="cls-6" d="M674,472.77a6.6,6.6,0,0,1,.78,2.71v1.31c0,1-.56,1.5-1.67,1.5h-17a1.59,1.59,0,0,1-1.57-1.12l-5.36-12.26h-47.4l-5.26,12.26a1.85,1.85,0,0,1-1.67,1.12H581.13c-1.11,0-1.67-.47-1.67-1.5v-1.31a6.6,6.6,0,0,1,.78-2.71l24.6-57.27c.44-1.13,2.23-1.88,3.24-1.88H646.2a3.18,3.18,0,0,1,3.24,1.88Zm-53.11-49.32c-.67,0-1.11.19-1.23.56l-13.86,31.63H645.2l-13.87-31.72c-.11-.28-.44-.47-1-.47Z"/><path class="cls-6" d="M768.3,475.76c0,1.69-.9,2.53-2.8,2.53H754.43a8.14,8.14,0,0,1-5.47-2l-53.22-41.83v42.3c0,1-.56,1.5-1.68,1.5H681.65c-1.12,0-1.67-.47-1.67-1.5V416.15c0-1.68.89-2.53,2.79-2.53h11.07a8.23,8.23,0,0,1,5.48,2l52.76,42V415.12c0-1,.57-1.5,1.79-1.5h12.75c1.12,0,1.68.47,1.68,1.5Z"/><path class="cls-6" d="M857.17,422.05c0,.93-.56,1.4-1.68,1.4H807a3.35,3.35,0,0,0-2.57.84L798.47,429a1.65,1.65,0,0,0-.56,1.22V460.6a1.89,1.89,0,0,0,.79,1.59L806,467.9a2.51,2.51,0,0,0,1.68.56h33.43c1.23,0,1.79-.56,1.79-1.77V443.76c0-1,.55-1.5,1.67-1.5h13.75c1.23,0,1.79.47,1.79,1.5v31.72c0,1.87-1.12,2.81-3.24,2.81H795.57a4.6,4.6,0,0,1-2.8-.84l-15.09-11.89a2.54,2.54,0,0,1-1-2.06V425.41a2.54,2.54,0,0,1,1-2.05l10.84-8.71a4.53,4.53,0,0,1,2.91-1h64.06c1.12,0,1.68.47,1.68,1.5Z"/><path class="cls-7" d="M1.77,348.56V284.51H50.18c13.91,0,21,6.33,21,16.27,0,6.34-2.87,10.69-7,12.39,8.35.19,18.18,5.77,18.18,16.94,0,11-5.75,18.45-24.2,18.45ZM14.38,295.1v15.33H49.72c5.29,0,8.62-2.46,8.62-7.48,0-5.39-4.26-7.85-9.92-7.85Zm0,24.88v17.6H56.86c7.7,0,11.32-2.65,11.32-8.8,0-6.53-4.92-8.8-11.78-8.8Z"/><path class="cls-7" d="M152.77,284.51h12.61v38.88c0,24.12-13.72,26.49-41.92,26.49-23.37,0-33.48-4.26-33.48-26.4v-39h13.26V324c0,12.3,5.57,15.23,22.72,15.23,18.55,0,26.81-2.27,26.81-15.23Z"/><path class="cls-7" d="M175.46,348.56V284.51H223c25.69,0,34.31,10.21,34.31,32.07s-8.62,32-34.31,32Zm47.67-11.26c14.84,0,21.05-5.68,21.05-21.2,0-16.17-6.21-21.66-21.05-21.66h-35V337.3Z"/><path class="cls-7" d="M308.26,350.64c-27.82,0-43.12-8.33-43.12-34.06s15.3-34.06,43.12-34.06,43.13,8.32,43.13,34.06S336.08,350.64,308.26,350.64Zm0-57.62c-21.7,0-29.86,6-29.86,23.56s8.16,23.55,29.86,23.55,30-6,30-23.55S330.05,293,308.26,293Z"/><path class="cls-7" d="M387.56,348.56V295.48H354.73v-11H433.1v11H400.18v53.08Z"/><path class="cls-7" d="M506.31,302.2c-1.67-5.77-12.9-10.22-26.71-10.22-17.81,0-26.07,3.69-26.07,10,0,8,9.56,9.17,16.51,9.17,6.5,0,10.85-.47,20.31-.47,16.24,0,27.27,3.79,27.27,17.79,0,12.86-11.31,22.14-39.6,22.14-19.94,0-34.41-5.77-39-17.51L451,329.92c3,6.53,12.15,11,27.92,11,17.34,0,25.41-4.44,25.41-11,0-7.19-7.79-9-16.14-9-6.21,0-11.22.57-19.48.57-11,0-28.75-3.13-28.75-19s20.87-20,39.61-20c22,0,35,6.62,37.93,15.61Z"/><path class="cls-8" d="M634,349.07l-20.67-23.58h-28.1v23.58H573.79v-65h45.34c15.53,0,27,7.24,27,20.71,0,11.23-8,18.1-19.62,20.14l21.62,24.14Zm-15.62-33.14c9.53,0,16-3,16-11.05s-6.47-11.05-16-11.05H585.12v22.1Z"/><path class="cls-8" d="M721.61,333.38H678.83l-8.47,15.69H658l36.11-65h12.57l36,65H730.18Zm-5.05-9.47-16.29-30.08L684,323.91Z"/><path class="cls-8" d="M821.18,334.49c-6.1,9.57-19.34,16.53-37.63,16.53-26.29,0-42-13-42-34.44s15.72-34.45,41.82-34.45c16.39,0,27.63,5.95,34.29,12.91l-9.33,6.5c-5.91-6.5-13.72-9.66-24.86-9.66-18.77,0-30.3,8.36-30.3,24.7s11.72,24.69,30.87,24.69c11.72,0,21.24-3,26.1-10.4v-7.42H782.31v-9.57h38.87Z"/><path class="cls-8" d="M888.64,333.38H845.87l-8.47,15.69H825l36.1-65h12.58l36,65H897.22Zm-5-9.47-16.29-30.08L851,323.91Z"/><path class="cls-8" d="M968.85,293.83H938.47v55.24H927V293.83H896.84v-9.75h72Z"/><path class="cls-8" d="M1019.43,333.38H976.66l-8.47,15.69H955.8l36.1-65h12.58l36,65H1028Zm-5-9.47L998.1,293.83l-16.29,30.08Z"/><path class="cls-8" d="M1110.52,349.07l-28.86-32.86-19.91,15.68v17.18h-11.43v-65h11.43v35.65l45.34-35.65h15.44l-32.2,25.63,34.2,39.36Z"/></g></g></svg>