<svg xmlns="http://www.w3.org/2000/svg" viewBox="0 0 209.51 69.65"><defs><style>.cls-1{fill:#fff;}</style></defs><g id="レイヤー_2" data-name="レイヤー 2"><g id="レイヤー_1-2" data-name="レイヤー 1"><path class="cls-1" d="M92.43,25.18H74.74l-1.2,4.44h0l-4,14.93h0L68.35,49H90.5l6.38-23.8ZM74,44.55l4-14.93H91.23l-4,14.93Z"/><path class="cls-1" d="M166.54,20.63l1.18-4.44H145.59l-1.2,4.44h0l-2.48,9.27h0l-.67,2.51L138,44.55h0L136.8,49h22.12l1.21-4.43h0l2.74-10.2h0l1.2-4.45h0l2.49-9.27ZM155.67,44.55H142.43l2.74-10.2h13.24ZM159.6,29.9H146.36l2.49-9.27h13.24Z"/><polygon class="cls-1" points="135.62 37.68 141.38 16.19 136.93 16.19 131.75 35.54 118.52 35.54 123.71 16.19 119.25 16.19 112.87 40 117.33 40 130.55 40 128.15 48.98 132.59 48.98 135 40 135.01 40 135.62 37.68"/><polygon class="cls-1" points="94.94 48.98 99.4 48.98 105.78 25.18 101.33 25.18 94.94 48.98"/><polygon class="cls-1" points="102.55 20.63 106.99 20.63 108.19 16.19 103.74 16.19 102.55 20.63"/><polygon class="cls-1" points="64.57 29.9 51.34 29.9 53.82 20.63 71.51 20.63 72.69 16.19 55.01 16.19 50.58 16.19 49.38 20.63 49.39 20.63 46.91 29.9 46.91 29.9 45.72 34.35 50.15 34.35 63.38 34.35 60.65 44.55 42.99 44.55 41.79 48.98 59.47 48.98 63.91 48.98 69.03 29.9 64.57 29.9"/><path class="cls-1" d="M208.94,35.87,192.39,15.18,181,1a2.6,2.6,0,0,0-2-1H26.24a2.54,2.54,0,0,0-2,1L.56,30.58a2.56,2.56,0,0,0,0,3.2l23.68,29.6h0l4.24,5.3a2.54,2.54,0,0,0,2,1H183.26a2.54,2.54,0,0,0,2-1l23.68-29.62A2.56,2.56,0,0,0,208.94,35.87ZM177.79,59.22H27.48l-21.63-27,21.63-27H177.79l21.62,27.05Z"/></g></g></svg>